<!DOCTYPE svg PUBLIC "-//W3C//DTD SVG 20010904//EN" "http://www.w3.org/TR/2001/REC-SVG-20010904/DTD/svg10.dtd">
<svg version="1.0" xmlns="http://www.w3.org/2000/svg" width="1200px" height="410px" viewBox="0 0 12000 4100" preserveAspectRatio="xMidYMid meet">
<g id="layer101" fill="#3c78d8" stroke="none">
<path d="M0 2050 l0 -2050 6000 0 6000 0 0 2050 0 2050 -6000 0 -6000 0 0 -2050z"/>
</g>
<g id="layer102" fill="#668cd5" stroke="none">
<path d="M0 2050 l0 -2050 6000 0 6000 0 0 2050 0 2050 -6000 0 -6000 0 0 -2050z m5430 770 c109 -26 229 -86 313 -155 114 -94 187 -212 229 -367 30 -112 32 -336 4 -448 -89 -364 -403 -589 -789 -567 -110 6 -187 24 -273 62 l-54 24 0 140 0 141 51 -31 c233 -144 576 -81 717 131 62 93 86 181 86 315 -1 231 -83 388 -245 466 -73 36 -142 49 -254 49 -234 0 -386 -113 -452 -337 -16 -52 -18 -138 -21 -840 l-3 -783 -140 0 -140 0 3 803 c4 792 4 803 26 882 39 143 94 239 191 335 118 118 228 173 396 200 85 13 255 3 355 -20z m-3360 -960 l0 -960 270 0 270 0 0 -140 0 -140 -690 0 -690 0 0 140 0 140 275 0 275 0 0 960 0 960 145 0 145 0 0 -960z m2040 437 c0 -435 -3 -533 -15 -582 -39 -151 -129 -267 -259 -330 -133 -65 -155 -68 -528 -73 l-338 -4 0 130 0 130 303 4 c287 4 305 5 362 28 79 30 144 95 176 175 23 59 24 69 27 418 l3 358 -279 -3 -278 -3 -60 -30 c-82 -42 -106 -85 -102 -182 3 -63 7 -76 34 -110 91 -111 327 -135 497 -49 l67 34 0 -138 0 -139 -37 -11 c-343 -97 -694 1 -803 224 -106 218 -27 485 176 593 135 72 203 80 687 82 l367 1 0 -523z m3567 496 c-4 -3 -10 -3 -14 0 -3 4 0 7 7 7 7 0 10 -3 7 -7z m-80 -10 c-4 -3 -10 -3 -14 0 -3 4 0 7 7 7 7 0 10 -3 7 -7z m496 0 c-7 -2 -19 -2 -25 0 -7 3 -2 5 12 5 14 0 19 -2 13 -5z m-556 -20 c-4 -3 -10 -3 -14 0 -3 4 0 7 7 7 7 0 10 -3 7 -7z m620 0 c-4 -3 -10 -3 -14 0 -3 4 0 7 7 7 7 0 10 -3 7 -7z m-690 -20 c-4 -3 -10 -3 -14 0 -3 4 0 7 7 7 7 0 10 -3 7 -7z m750 0 c-4 -3 -10 -3 -14 0 -3 4 0 7 7 7 7 0 10 -3 7 -7z m-519 -10 c-10 -2 -26 -2 -35 0 -10 3 -2 5 17 5 19 0 27 -2 18 -5z m300 0 c-10 -2 -26 -2 -35 0 -10 3 -2 5 17 5 19 0 27 -2 18 -5z m-401 -19 c-3 -3 -12 -4 -19 -1 -8 3 -5 6 6 6 11 1 17 -2 13 -5z m710 -71 c-4 -3 -10 -3 -14 0 -3 4 0 7 7 7 7 0 10 -3 7 -7z m650 -550 c-4 -3 -7 0 -7 7 0 7 3 10 7 7 3 -4 3 -10 0 -14z m-2310 -195 c-3 -7 -5 -2 -5 12 0 14 2 19 5 13 2 -7 2 -19 0 -25z m948 -8 c7 -22 -1 -40 -17 -40 -7 0 -6 5 2 15 13 16 6 35 -15 35 -18 0 -26 -25 -12 -40 9 -10 9 -11 0 -6 -15 8 -17 -3 -4 -23 5 -8 16 -11 26 -8 9 4 14 3 10 -3 -17 -28 -55 5 -55 47 0 41 53 60 65 23z m77 -5 c13 -30 -3 -75 -26 -75 -18 0 -36 31 -35 57 0 10 5 3 10 -14 11 -37 34 -44 44 -13 10 32 -4 63 -26 57 -10 -3 -17 -1 -13 4 10 17 34 9 46 -16z m82 10 c7 -19 -3 -45 -16 -45 -6 0 -5 6 2 15 13 16 6 35 -15 35 -21 0 -28 -19 -13 -37 9 -12 9 -15 1 -9 -15 8 -17 -3 -4 -23 5 -8 16 -11 26 -8 9 4 14 3 10 -3 -11 -18 -35 -10 -46 14 -17 37 -4 76 25 76 13 0 26 -7 30 -15z m80 0 c7 -19 -3 -45 -16 -45 -6 0 -5 6 2 15 13 16 6 35 -15 35 -21 0 -28 -19 -13 -37 9 -12 9 -15 1 -9 -15 8 -17 -3 -4 -23 5 -8 16 -11 26 -8 9 4 14 3 10 -3 -17 -28 -55 5 -55 47 0 38 51 60 64 28z m63 8 l-28 -4 26 -31 c20 -24 23 -33 14 -44 -15 -19 -34 -18 -50 3 -13 15 -12 15 8 2 17 -10 25 -11 34 -2 8 8 3 19 -20 44 -17 17 -31 34 -31 35 0 2 17 3 38 3 30 -2 32 -3 9 -6z m92 -21 c-5 -2 -9 -19 -9 -38 0 -20 -4 -33 -8 -30 -5 3 -7 20 -4 37 4 29 2 31 -17 26 -11 -3 -21 -1 -21 4 0 5 9 9 20 9 11 0 20 5 20 10 0 6 6 5 14 -2 8 -7 10 -14 5 -16z m85 12 c3 -9 3 -21 -1 -27 -4 -7 -7 -21 -8 -32 0 -28 -40 -28 -40 0 -1 11 -4 26 -9 33 -13 21 1 42 28 42 13 0 27 -7 30 -16z m58 7 l-24 -6 21 -19 c12 -11 21 -28 21 -38 0 -27 -29 -34 -48 -12 -9 10 -10 13 -2 6 7 -6 20 -12 27 -12 19 0 16 37 -5 52 -35 25 -35 38 0 37 28 -1 30 -2 10 -8z m835 -43 c-3 -7 -5 -2 -5 12 0 14 2 19 5 13 2 -7 2 -19 0 -25z m-1012 -8 c3 -5 4 -10 1 -10 -3 0 -8 5 -11 10 -3 6 -4 10 -1 10 3 0 8 -4 11 -10z m-1328 -47 c-3 -10 -5 -4 -5 12 0 17 2 24 5 18 2 -7 2 -21 0 -30z m70 15 c-3 -8 -6 -5 -6 6 -1 11 2 17 5 13 3 -3 4 -12 1 -19z m2290 -55 c-4 -3 -7 0 -7 7 0 7 3 10 7 7 3 -4 3 -10 0 -14z m60 -25 c-3 -7 -5 -2 -5 12 0 14 2 19 5 13 2 -7 2 -19 0 -25z m-1456 -14 c14 -17 3 -45 -22 -52 -8 -2 -5 2 5 10 12 9 17 21 13 32 -6 16 -36 23 -38 9 0 -5 -2 -19 -4 -33 -1 -14 3 -32 9 -40 10 -13 9 -13 -6 -1 -20 15 -23 43 -8 72 13 23 33 25 51 3z m79 1 c6 -8 8 -20 4 -27 -5 -7 -7 -23 -5 -35 1 -13 -2 -23 -8 -23 -6 0 -8 6 -5 14 3 8 0 17 -6 21 -8 5 -5 11 7 20 15 11 16 16 5 27 -10 10 -17 10 -35 -1 -20 -13 -21 -13 -8 2 17 21 35 22 51 2z m80 0 c16 -19 6 -45 -20 -52 -27 -7 -25 -21 3 -26 19 -4 18 -4 -5 -6 -23 -1 -28 3 -28 23 0 19 4 23 20 19 24 -6 39 22 21 40 -9 9 -17 8 -34 -2 -20 -13 -21 -13 -8 2 17 21 35 22 51 2z m84 -17 c8 -5 7 -8 -1 -8 -8 0 -13 -13 -13 -32 l-1 -33 -24 30 c-30 36 -31 45 -5 45 12 0 20 7 21 18 0 13 2 14 6 2 3 -8 11 -18 17 -22z m80 0 c8 -5 7 -8 -1 -8 -8 0 -13 -13 -13 -32 l-1 -33 -24 30 c-30 36 -31 45 -5 45 12 0 20 7 21 18 0 13 2 14 6 2 3 -8 11 -18 17 -22z m76 6 c13 -33 13 -37 -6 -60 -15 -18 -15 -18 -4 3 15 33 2 76 -21 70 -11 -3 -17 -1 -13 4 10 18 35 9 44 -17z m80 0 c13 -33 13 -37 -6 -60 -15 -18 -15 -18 -4 3 13 27 3 73 -16 73 -19 0 -29 -49 -15 -72 7 -11 7 -18 1 -18 -16 0 -23 49 -11 76 14 31 39 31 51 -2z m80 -59 c11 -13 7 -15 -26 -14 -30 2 -33 3 -12 6 27 4 28 5 13 33 -8 16 -15 37 -15 47 1 10 7 1 14 -20 8 -20 19 -44 26 -52z m-1473 -142 c-1 -43 -3 -10 -3 72 0 83 2 118 3 78 2 -40 2 -107 0 -150z m-60 175 c-3 -8 -6 -5 -6 6 -1 11 2 17 5 13 3 -3 4 -12 1 -19z m1335 -35 c7 -9 7 -13 0 -13 -13 0 -22 25 -21 53 2 19 2 19 6 -3 3 -14 10 -31 15 -37z m-362 -3 c0 -5 -5 -10 -11 -10 -5 0 -7 5 -4 10 3 6 8 10 11 10 2 0 4 -4 4 -10z m45 0 c3 -5 1 -10 -4 -10 -6 0 -11 5 -11 10 0 6 2 10 4 10 3 0 8 -4 11 -10z m-53 -152 l18 -38 -37 1 c-30 2 -32 3 -10 6 32 5 31 3 12 39 -8 16 -15 36 -14 44 0 13 1 13 6 0 3 -8 14 -32 25 -52z m79 0 l19 -38 -38 1 c-30 2 -32 3 -9 6 32 5 31 3 12 39 -8 16 -15 36 -14 44 0 13 1 13 6 0 3 -8 14 -32 24 -52z m94 42 c7 -22 -1 -40 -17 -40 -7 0 -6 5 2 15 17 21 2 38 -27 30 -16 -4 -22 -2 -18 5 11 18 53 11 60 -10z m79 4 c3 -9 3 -21 -1 -27 -4 -7 -6 -20 -5 -30 4 -21 -25 -34 -40 -19 -8 8 -5 9 11 5 15 -4 21 -1 21 11 0 9 -5 16 -11 16 -6 0 -3 7 5 16 20 19 11 38 -15 31 -11 -3 -19 -1 -19 4 0 16 48 10 54 -7z m78 -9 c8 -19 8 -31 0 -50 -27 -59 -80 -3 -56 59 9 25 43 19 56 -9z m79 2 c19 -41 -23 -104 -45 -68 -4 5 2 7 13 4 21 -5 33 23 24 57 -8 30 -37 20 -44 -15 -5 -22 -7 -24 -8 -8 -3 53 40 75 60 30z m79 4 c5 -11 10 -26 9 -33 0 -7 -5 -1 -11 15 -18 50 -57 26 -44 -28 7 -26 31 -34 39 -12 4 9 6 9 6 -1 1 -19 -27 -26 -44 -12 -16 13 -20 47 -9 74 8 22 41 20 54 -3z m70 -31 c0 -48 -1 -50 -20 -38 -17 10 -18 14 -5 16 10 2 15 15 15 38 0 19 2 34 5 34 3 0 5 -23 5 -50z m-427 -19 c-4 -14 1 -21 19 -24 21 -4 20 -4 -4 -6 -24 -1 -28 3 -28 24 0 14 4 25 9 25 5 0 7 -9 4 -19z m-1096 -23 c-3 -8 -6 -5 -6 6 -1 11 2 17 5 13 3 -3 4 -12 1 -19z m2430 -50 c-3 -7 -5 -2 -5 12 0 14 2 19 5 13 2 -7 2 -19 0 -25z m-60 0 c-3 -8 -6 -5 -6 6 -1 11 2 17 5 13 3 -3 4 -12 1 -19z m-1397 -43 c6 -8 8 -20 4 -27 -5 -7 -7 -23 -5 -35 1 -13 -2 -23 -7 -23 -6 0 -8 9 -5 20 4 14 0 20 -12 20 -12 0 -16 -6 -12 -20 3 -11 1 -20 -5 -20 -5 0 -8 10 -7 23 2 12 0 28 -5 35 -9 15 10 42 29 42 7 0 18 -7 25 -15z m80 -4 c5 -11 10 -28 9 -38 0 -10 -5 -3 -10 15 -5 17 -16 32 -24 32 -8 0 -19 -15 -24 -32 -5 -18 -10 -25 -10 -15 -1 26 17 57 34 57 8 0 19 -9 25 -19z m81 3 c14 -17 3 -45 -22 -52 -8 -2 -5 2 5 10 12 9 17 21 13 32 -6 16 -36 23 -38 9 0 -5 -2 -19 -4 -33 -1 -14 2 -31 7 -37 7 -9 7 -13 -1 -13 -17 0 -25 49 -12 76 12 28 33 31 52 8z m79 1 c16 -19 6 -45 -20 -52 -27 -7 -25 -21 3 -26 19 -4 18 -4 -5 -6 -23 -1 -28 3 -28 22 0 18 5 23 21 23 25 -1 33 13 19 34 -8 13 -12 13 -32 1 -21 -13 -22 -13 -9 2 17 21 35 22 51 2z m60 11 c0 -2 -7 -7 -16 -10 -8 -3 -12 -2 -9 4 6 10 25 14 25 6z m100 -22 c13 -33 13 -37 -6 -60 -15 -18 -15 -18 -4 3 15 33 2 76 -21 70 -11 -3 -17 -1 -13 4 10 18 35 9 44 -17z m60 22 c0 -2 -7 -7 -16 -10 -8 -3 -12 -2 -9 4 6 10 25 14 25 6z m99 -13 c10 -19 -2 -53 -20 -53 -6 0 -4 7 5 15 20 20 9 48 -15 42 -11 -3 -17 -1 -13 4 9 15 32 10 43 -8z m-233 -57 c-3 -14 -11 -26 -17 -26 -8 0 -8 5 1 15 13 16 6 35 -15 35 -21 0 -28 -19 -13 -37 11 -14 11 -15 -2 -11 -8 2 -15 16 -15 29 0 20 5 24 28 24 22 -1 26 3 22 20 -5 18 -4 18 6 -2 6 -12 9 -33 5 -47z m151 47 c-4 -3 -7 0 -7 7 0 7 3 10 7 7 3 -4 3 -10 0 -14z m-1440 -25 c-3 -7 -5 -2 -5 12 0 14 2 19 5 13 2 -7 2 -19 0 -25z m70 0 c-3 -8 -6 -5 -6 6 -1 11 2 17 5 13 3 -3 4 -12 1 -19z m1255 -35 c7 -9 7 -13 0 -13 -13 0 -22 25 -21 53 2 19 2 19 6 -3 3 -14 10 -31 15 -37z m151 25 c-2 -5 1 -15 7 -23 7 -9 8 -15 2 -15 -12 0 -22 24 -22 53 0 17 2 19 9 7 6 -8 7 -18 4 -22z m-23 5 c0 -7 -4 -13 -10 -13 -5 0 -10 5 -10 10 0 13 -27 13 -35 0 -4 -6 -1 -17 5 -25 9 -11 9 -15 1 -15 -15 0 -25 26 -17 45 7 19 66 17 66 -2z m887 -15 c-3 -7 -5 -2 -5 12 0 14 2 19 5 13 2 -7 2 -19 0 -25z m60 -5 c-4 -3 -7 0 -7 7 0 7 3 10 7 7 3 -4 3 -10 0 -14z m-1392 -13 c3 -5 1 -10 -4 -10 -6 0 -11 5 -11 10 0 6 2 10 4 10 3 0 8 -4 11 -10z m35 0 c0 -5 -5 -10 -11 -10 -5 0 -7 5 -4 10 3 6 8 10 11 10 2 0 4 -4 4 -10z m80 0 c0 -5 -5 -10 -11 -10 -5 0 -7 5 -4 10 3 6 8 10 11 10 2 0 4 -4 4 -10z m320 6 c0 -3 -5 -8 -12 -12 -7 -4 -8 -3 -4 4 7 12 16 16 16 8z m80 -6 c0 -5 -5 -10 -11 -10 -5 0 -7 5 -4 10 3 6 8 10 11 10 2 0 4 -4 4 -10z m-1503 -47 c-4 -3 -7 0 -7 7 0 7 3 10 7 7 3 -4 3 -10 0 -14z m20 -65 c-3 -8 -6 -5 -6 6 -1 11 2 17 5 13 3 -3 4 -12 1 -19z m2260 5 c-4 -3 -7 0 -7 7 0 7 3 10 7 7 3 -4 3 -10 0 -14z m70 -10 c-4 -3 -7 0 -7 7 0 7 3 10 7 7 3 -4 3 -10 0 -14z m-20 -50 c-4 -3 -7 0 -7 7 0 7 3 10 7 7 3 -4 3 -10 0 -14z m-2210 -30 c-4 -3 -7 0 -7 7 0 7 3 10 7 7 3 -4 3 -10 0 -14z m2190 -10 c-4 -3 -7 0 -7 7 0 7 3 10 7 7 3 -4 3 -10 0 -14z m-430 -510 c-4 -3 -7 0 -7 7 0 7 3 10 7 7 3 -4 3 -10 0 -14z m-1030 -100 c-4 -3 -10 -3 -14 0 -3 4 0 7 7 7 7 0 10 -3 7 -7z m710 0 c-4 -3 -10 -3 -14 0 -3 4 0 7 7 7 7 0 10 -3 7 -7z m-870 -10 c-4 -3 -10 -3 -14 0 -3 4 0 7 7 7 7 0 10 -3 7 -7z m220 -10 c-4 -3 -10 -3 -14 0 -3 4 0 7 7 7 7 0 10 -3 7 -7z m600 1 c-3 -3 -12 -4 -19 -1 -8 3 -5 6 6 6 11 1 17 -2 13 -5z m160 -11 c-4 -3 -10 -3 -14 0 -3 4 0 7 7 7 7 0 10 -3 7 -7z m-680 -9 c-3 -3 -12 -4 -19 -1 -8 3 -5 6 6 6 11 1 17 -2 13 -5z m440 0 c-3 -3 -12 -4 -19 -1 -8 3 -5 6 6 6 11 1 17 -2 13 -5z m-640 -10 c-3 -3 -12 -4 -19 -1 -8 3 -5 6 6 6 11 1 17 -2 13 -5z m840 0 c-3 -3 -12 -4 -19 -1 -8 3 -5 6 6 6 11 1 17 -2 13 -5z m-650 -50 c-3 -3 -12 -4 -19 -1 -8 3 -5 6 6 6 11 1 17 -2 13 -5z m470 0 c-3 -3 -12 -4 -19 -1 -8 3 -5 6 6 6 11 1 17 -2 13 -5z m-304 -21 c-13 -2 -35 -2 -50 0 -16 2 -5 4 22 4 28 0 40 -2 28 -4z m100 0 c-7 -2 -19 -2 -25 0 -7 3 -2 5 12 5 14 0 19 -2 13 -5z m70 0 c-7 -2 -21 -2 -30 0 -10 3 -4 5 12 5 17 0 24 -2 18 -5z"/>
<path d="M8025 1890 c-4 -7 -3 -16 3 -22 14 -14 45 -2 40 15 -6 16 -34 21 -43 7z"/>
<path d="M8030 1835 c0 -8 7 -15 15 -15 8 0 15 7 15 15 0 8 -7 15 -15 15 -8 0 -15 -7 -15 -15z"/>
<path d="M7791 1683 c7 -10 15 -20 16 -22 2 -2 3 5 3 17 0 14 -6 22 -16 22 -14 0 -15 -3 -3 -17z"/>
<path d="M7871 1683 c7 -10 15 -20 16 -22 2 -2 3 5 3 17 0 14 -6 22 -16 22 -14 0 -15 -3 -3 -17z"/>
<path d="M7864 1535 c-9 -23 4 -65 21 -65 17 0 28 33 20 60 -7 23 -33 27 -41 5z"/>
<path d="M7545 1370 c-4 -7 -3 -16 3 -22 14 -14 45 -2 40 15 -6 16 -34 21 -43 7z"/>
</g>
<g id="layer103" fill="#9da1a6" stroke="none">
<path d="M0 2050 l0 -2050 6000 0 6000 0 0 2050 0 2050 -6000 0 -6000 0 0 -2050z m5430 770 c109 -26 229 -86 313 -155 114 -94 187 -212 229 -367 30 -112 32 -336 4 -448 -89 -364 -403 -589 -789 -567 -110 6 -187 24 -273 62 l-54 24 0 140 0 141 51 -31 c233 -144 576 -81 717 131 62 93 86 181 86 315 -1 231 -83 388 -245 466 -73 36 -142 49 -254 49 -234 0 -386 -113 -452 -337 -16 -52 -18 -138 -21 -840 l-3 -783 -140 0 -140 0 3 803 c4 792 4 803 26 882 39 143 94 239 191 335 118 118 228 173 396 200 85 13 255 3 355 -20z m2520 -4 c203 -28 369 -84 535 -181 179 -104 346 -273 436 -440 55 -102 95 -213 130 -365 18 -76 17 -397 0 -470 -43 -175 -80 -272 -168 -430 -26 -49 -99 -135 -117 -138 -22 -5 -46 15 -46 39 0 10 25 55 55 100 152 223 214 448 200 733 -6 135 -12 170 -52 300 -68 222 -214 414 -423 556 -71 48 -230 130 -253 130 -9 0 -18 4 -21 9 -3 5 -16 11 -28 14 -13 3 -49 12 -81 21 -31 9 -108 23 -170 32 -123 18 -227 11 -372 -26 -347 -89 -644 -319 -778 -602 -81 -171 -107 -295 -107 -513 0 -223 27 -347 112 -522 82 -168 205 -305 375 -416 210 -137 438 -207 675 -207 138 0 190 8 343 56 55 17 159 66 262 124 42 23 43 23 63 5 36 -33 22 -56 -70 -111 -47 -28 -119 -63 -160 -79 -41 -15 -84 -31 -95 -35 -67 -27 -229 -50 -355 -50 -190 0 -360 41 -555 135 -328 157 -556 423 -645 750 -62 229 -52 558 22 770 56 160 138 294 252 413 211 219 479 353 796 397 117 17 122 17 240 1z m-5880 -956 l0 -960 270 0 270 0 0 -140 0 -140 -690 0 -690 0 0 140 0 140 275 0 275 0 0 960 0 960 145 0 145 0 0 -960z m2040 437 c0 -435 -3 -533 -15 -582 -39 -151 -129 -267 -259 -330 -133 -65 -155 -68 -528 -73 l-338 -4 0 130 0 130 303 4 c287 4 305 5 362 28 79 30 144 95 176 175 23 59 24 69 27 418 l3 358 -279 -3 -278 -3 -60 -30 c-82 -42 -106 -85 -102 -182 3 -63 7 -76 34 -110 91 -111 327 -135 497 -49 l67 34 0 -138 0 -139 -37 -11 c-343 -97 -694 1 -803 224 -106 218 -27 485 176 593 135 72 203 80 687 82 l367 1 0 -523z m3488 -414 c3 -22 -29 -49 -43 -35 -4 4 -6 0 -3 -8 3 -8 15 -14 27 -13 13 2 20 -1 16 -7 -8 -14 -38 -13 -53 2 -13 13 -16 47 -6 73 10 25 58 16 62 -12z m78 3 c8 -33 2 -57 -18 -69 -33 -21 -60 29 -42 77 10 26 53 20 60 -8z m83 0 c4 -23 -24 -47 -45 -39 -10 4 -12 0 -8 -12 4 -10 14 -15 25 -12 11 3 19 1 19 -4 0 -13 -34 -11 -48 3 -13 13 -16 47 -6 73 9 23 58 16 63 -9z m77 2 c7 -23 -20 -53 -39 -41 -5 3 -7 0 -5 -8 3 -8 13 -13 22 -13 9 1 16 -2 16 -7 0 -13 -34 -11 -48 3 -13 13 -16 47 -6 72 9 24 51 20 60 -6z m60 15 l-28 -5 26 -27 c31 -32 26 -61 -9 -61 -25 0 -42 17 -30 28 4 4 10 1 12 -5 6 -17 33 -17 33 0 0 8 -11 24 -25 37 -34 32 -31 40 13 39 31 -2 33 -3 8 -6z m93 -27 c-5 -6 -9 -24 -9 -40 l-1 -31 -24 30 c-30 36 -32 55 -5 55 11 0 20 5 20 10 0 6 6 5 14 -2 9 -8 11 -17 5 -22z m86 24 c4 -6 3 -19 -1 -28 -4 -9 -7 -26 -8 -37 -1 -13 -9 -21 -23 -23 -13 -2 -23 0 -24 5 0 4 -2 22 -5 38 -2 17 -2 36 1 43 5 15 51 16 60 2z m61 3 l-28 -5 26 -27 c31 -32 26 -61 -9 -61 -25 0 -42 17 -30 28 4 4 10 1 12 -5 6 -17 33 -17 33 0 0 8 -11 24 -25 37 -34 32 -31 40 13 39 31 -2 33 -3 8 -6z m-546 -178 c19 -23 3 -58 -25 -53 -17 4 -22 1 -18 -9 4 -10 14 -12 31 -8 22 5 24 4 13 -9 -8 -9 -17 -16 -22 -16 -17 0 -39 33 -39 59 0 45 35 66 60 36z m78 2 c14 -17 4 -84 -13 -91 -7 -2 -21 2 -32 10 -17 13 -16 14 10 8 27 -6 38 8 16 22 -8 5 -7 9 1 14 8 5 10 15 6 26 -5 13 -9 15 -18 6 -17 -17 -33 -15 -18 3 15 18 34 19 48 2z m85 -8 c14 -22 2 -49 -23 -49 -30 0 -24 -18 8 -23 26 -4 26 -4 -4 -6 -26 -1 -32 3 -36 24 -5 21 -2 24 17 19 28 -7 40 19 18 38 -13 10 -17 10 -20 1 -3 -7 -9 -13 -15 -13 -6 0 -5 6 2 15 16 19 39 16 53 -6z m76 -17 c-5 -2 -9 -20 -9 -40 l0 -36 -25 34 c-30 41 -31 50 -5 50 12 0 20 7 20 17 0 15 2 14 14 -3 8 -10 10 -20 5 -22z m80 0 c-5 -2 -9 -20 -9 -40 l0 -36 -25 34 c-30 41 -31 50 -5 50 12 0 20 7 20 17 0 15 2 14 14 -3 8 -10 10 -20 5 -22z m81 19 c14 -28 12 -57 -6 -75 -24 -24 -54 -4 -54 37 0 53 39 77 60 38z m80 0 c14 -28 12 -57 -6 -75 -24 -24 -54 -4 -54 37 0 53 39 77 60 38z m81 -67 c9 -11 4 -14 -27 -13 -25 1 -31 3 -16 6 18 3 22 9 16 21 -4 9 -8 31 -10 47 -4 27 -3 26 11 -9 8 -21 20 -45 26 -52z m-551 -191 c0 -2 -17 -2 -37 -2 -31 2 -33 3 -11 6 27 4 28 5 13 33 -8 16 -15 37 -15 47 1 13 49 -70 50 -84z m80 0 c0 -2 -17 -2 -37 -2 -31 2 -33 3 -11 6 27 4 28 5 13 33 -8 16 -15 37 -15 47 1 13 49 -70 50 -84z m77 81 c8 -21 -10 -49 -31 -48 -28 3 -17 -24 12 -29 25 -4 25 -4 -5 -6 -27 -1 -33 3 -33 19 0 30 3 35 22 32 21 -4 29 10 18 28 -8 12 -13 13 -30 2 -11 -7 -20 -8 -20 -4 0 26 57 31 67 6z m78 6 c4 -6 3 -19 -1 -28 -4 -9 -7 -26 -8 -37 -1 -25 -41 -33 -49 -11 -4 9 -2 16 2 16 5 0 11 -6 14 -12 3 -10 8 -10 18 1 11 10 11 15 2 18 -10 3 -10 9 -1 23 16 25 2 38 -22 22 -19 -11 -28 -3 -13 11 10 11 51 8 58 -3z m81 -14 c8 -33 2 -57 -18 -69 -33 -21 -60 29 -42 77 10 26 53 20 60 -8z m80 -2 c8 -30 -10 -74 -29 -74 -31 0 -47 43 -31 84 10 27 53 20 60 -10z m80 2 c8 -33 2 -57 -18 -69 -33 -21 -60 29 -42 77 10 26 53 20 60 -8z m64 -26 c0 -51 -6 -60 -28 -38 -15 15 -16 32 -2 23 6 -4 10 8 10 29 0 20 5 36 10 36 6 0 10 -22 10 -50z m-553 -128 c17 -11 11 -82 -8 -92 -21 -12 -35 0 -42 39 -10 48 16 75 50 53z m81 -4 c17 -17 15 -64 -4 -82 -8 -9 -17 -16 -19 -16 -2 0 -11 7 -19 16 -29 28 -15 94 19 94 6 0 16 -5 23 -12z m83 -4 c17 -20 0 -49 -29 -48 -13 0 -18 -4 -15 -14 4 -9 14 -11 31 -7 22 5 24 4 13 -9 -17 -20 -26 -20 -45 0 -29 28 -15 94 20 94 6 0 17 -7 25 -16z m79 1 c16 -19 3 -55 -21 -55 -26 0 -24 -18 4 -23 20 -4 19 -4 -4 -6 -21 -1 -28 4 -31 24 -5 22 -2 24 18 19 19 -5 24 -2 24 14 0 26 -19 39 -31 21 -4 -7 -11 -10 -16 -6 -8 9 14 27 33 27 6 0 17 -7 24 -15z m78 3 c27 -27 1 -106 -31 -95 -35 11 -33 67 3 67 22 0 27 15 8 26 -6 4 -14 2 -16 -4 -2 -7 -8 -12 -13 -12 -4 0 -6 7 -3 15 7 18 35 20 52 3z m82 -7 c14 -28 12 -57 -6 -75 -24 -24 -54 -4 -54 37 0 53 39 77 60 38z m81 -5 c22 -48 -13 -103 -48 -75 -21 18 -12 53 15 57 24 4 29 17 11 28 -6 3 -15 0 -20 -7 -4 -7 -11 -10 -14 -7 -11 11 5 28 26 28 11 0 24 -11 30 -24z m80 8 c17 -20 0 -49 -29 -48 -13 0 -18 -4 -15 -14 3 -8 14 -11 24 -9 21 6 26 -9 7 -16 -26 -9 -48 13 -48 46 0 51 33 74 61 41z"/>
<path d="M7550 1880 c0 -15 5 -20 18 -18 9 2 17 10 17 18 0 8 -8 16 -17 18 -13 2 -18 -3 -18 -18z"/>
<path d="M7630 1860 c0 -29 4 -40 15 -40 11 0 15 11 15 40 0 29 -4 40 -15 40 -11 0 -15 -11 -15 -40z"/>
<path d="M7950 1861 c0 -6 5 -13 10 -16 6 -3 10 1 10 9 0 9 -4 16 -10 16 -5 0 -10 -4 -10 -9z"/>
<path d="M8024 1889 c-8 -14 11 -33 25 -25 16 10 13 36 -3 36 -8 0 -18 -5 -22 -11z"/>
<path d="M8030 1834 c0 -17 22 -14 28 4 2 7 -3 12 -12 12 -9 0 -16 -7 -16 -16z"/>
<path d="M7553 1714 c-8 -22 15 -44 26 -25 10 16 4 41 -10 41 -5 0 -12 -7 -16 -16z"/>
<path d="M7780 1696 c0 -2 7 -9 15 -16 12 -10 15 -10 15 4 0 9 -7 16 -15 16 -8 0 -15 -2 -15 -4z"/>
<path d="M7860 1696 c0 -2 7 -9 15 -16 12 -10 15 -10 15 4 0 9 -7 16 -15 16 -8 0 -15 -2 -15 -4z"/>
<path d="M7951 1712 c-13 -24 -3 -62 15 -62 9 0 14 12 14 34 0 41 -15 55 -29 28z"/>
<path d="M8030 1715 c-15 -19 -5 -65 15 -65 10 0 15 11 15 34 0 40 -12 52 -30 31z"/>
<path d="M7866 1534 c-8 -22 4 -66 18 -61 18 6 20 77 3 77 -8 0 -18 -7 -21 -16z"/>
<path d="M7947 1530 c-7 -27 3 -62 17 -57 18 6 20 77 3 77 -8 0 -17 -9 -20 -20z"/>
<path d="M8025 1530 c-8 -26 3 -62 18 -57 7 2 13 20 15 40 2 28 -1 37 -12 37 -8 0 -18 -9 -21 -20z"/>
<path d="M7550 1360 c0 -11 6 -20 13 -20 19 0 27 10 20 26 -8 21 -33 17 -33 -6z"/>
<path d="M7714 1365 c-3 -8 -3 -19 1 -25 10 -16 35 7 28 26 -7 18 -22 18 -29 -1z"/>
<path d="M7865 1330 c-8 -14 3 -30 21 -30 8 0 14 9 14 20 0 21 -24 28 -35 10z"/>
<path d="M7951 1362 c-13 -24 -3 -62 15 -62 9 0 14 12 14 34 0 41 -15 55 -29 28z"/>
<path d="M8025 1330 c-8 -14 3 -30 21 -30 8 0 14 9 14 20 0 21 -24 28 -35 10z"/>
</g>
<g id="layer104" fill="#ffffff" stroke="none">
<path d="M0 2050 l0 -2050 6000 0 6000 0 0 2050 0 2050 -6000 0 -6000 0 0 -2050z m10172 1903 c110 -112 122 -128 119 -162 0 -8 -229 -243 -508 -523 -407 -407 -513 -508 -533 -508 -17 0 -39 13 -60 35 -19 19 -38 34 -42 33 -13 -5 -188 -180 -188 -188 0 -4 7 -13 14 -20 25 -20 153 -194 185 -251 146 -258 211 -500 211 -781 -1 -244 -51 -465 -154 -676 -216 -439 -585 -724 -1096 -844 -76 -18 -495 -18 -570 0 -30 7 -75 18 -100 23 -77 18 -256 87 -330 128 -77 42 -82 45 -150 90 -85 58 -148 111 -244 209 -303 308 -468 771 -427 1195 7 67 17 145 23 172 13 62 56 213 67 240 62 143 81 183 125 255 177 293 422 501 751 640 70 30 215 71 320 91 92 17 399 18 485 0 109 -21 185 -40 252 -62 76 -25 213 -86 250 -111 14 -10 29 -18 32 -18 11 0 119 -73 188 -127 37 -29 71 -53 76 -53 5 0 51 41 102 90 l94 90 -37 38 c-22 23 -37 48 -37 62 0 19 114 139 512 537 339 339 520 513 533 513 13 0 65 -45 137 -117z m-4742 -1133 c109 -26 229 -86 313 -155 114 -94 187 -212 229 -367 30 -112 32 -336 4 -448 -89 -364 -403 -589 -789 -567 -110 6 -187 24 -273 62 l-54 24 0 140 0 141 51 -31 c233 -144 576 -81 717 131 62 93 86 181 86 315 -1 231 -83 388 -245 466 -73 36 -142 49 -254 49 -234 0 -386 -113 -452 -337 -16 -52 -18 -138 -21 -840 l-3 -783 -140 0 -140 0 3 803 c4 792 4 803 26 882 39 143 94 239 191 335 118 118 228 173 396 200 85 13 255 3 355 -20z m5063 -8 c105 -29 169 -65 228 -130 68 -75 93 -156 87 -291 -3 -86 -8 -106 -36 -164 -59 -118 -123 -155 -469 -266 -225 -73 -282 -103 -312 -164 -38 -78 -20 -131 56 -168 47 -24 55 -24 376 -27 l327 -3 0 -135 0 -136 -337 5 c-274 3 -349 7 -396 21 -140 39 -246 117 -294 214 -25 51 -28 67 -28 162 0 94 3 111 29 167 33 73 126 167 201 206 28 14 118 46 200 72 266 83 346 120 387 182 41 63 10 150 -67 184 -68 30 -167 38 -472 39 l-283 0 0 131 0 131 363 -4 c332 -4 368 -6 440 -26z m-8423 -952 l0 -960 270 0 270 0 0 -140 0 -140 -690 0 -690 0 0 140 0 140 275 0 275 0 0 960 0 960 145 0 145 0 0 -960z m2040 437 c0 -435 -3 -533 -15 -582 -39 -151 -129 -267 -259 -330 -133 -65 -155 -68 -528 -73 l-338 -4 0 130 0 130 303 4 c287 4 305 5 362 28 79 30 144 95 176 175 23 59 24 69 27 418 l3 358 -279 -3 -278 -3 -60 -30 c-82 -42 -106 -85 -102 -182 3 -63 7 -76 34 -110 91 -111 327 -135 497 -49 l67 34 0 -138 0 -139 -37 -11 c-343 -97 -694 1 -803 224 -106 218 -27 485 176 593 135 72 203 80 687 82 l367 1 0 -523z"/>
<path d="M9570 3495 c-252 -253 -459 -464 -459 -470 -1 -10 63 -80 112 -125 l28 -24 459 459 c253 253 460 465 460 470 0 6 -32 42 -70 80 l-70 70 -460 -460z"/>
<path d="M7620 3015 c-166 -27 -262 -58 -420 -133 -109 -52 -126 -63 -237 -146 -249 -184 -442 -471 -521 -771 -42 -162 -47 -200 -47 -370 0 -236 37 -417 125 -602 22 -47 40 -87 40 -89 0 -2 25 -44 56 -92 93 -144 182 -244 309 -347 187 -152 417 -258 658 -302 114 -21 369 -23 477 -4 311 55 566 186 781 401 115 115 140 146 215 265 87 139 152 298 191 471 23 99 26 466 5 554 -7 30 -18 75 -23 100 -6 25 -14 54 -19 65 -4 11 -20 54 -36 95 -25 69 -54 127 -114 235 -70 127 -246 314 -390 416 -201 142 -380 213 -654 259 -79 13 -302 10 -396 -5z m330 -199 c203 -28 369 -84 535 -181 179 -104 346 -273 436 -440 55 -102 95 -213 130 -365 18 -76 17 -397 0 -470 -43 -175 -80 -272 -168 -430 -26 -49 -99 -135 -117 -138 -22 -5 -46 15 -46 39 0 10 25 55 55 100 152 223 214 448 200 733 -6 135 -12 170 -52 300 -68 222 -214 414 -423 556 -71 48 -230 130 -253 130 -9 0 -18 4 -21 9 -3 5 -16 11 -28 14 -13 3 -49 12 -81 21 -31 9 -108 23 -170 32 -123 18 -227 11 -372 -26 -347 -89 -644 -319 -778 -602 -81 -171 -107 -295 -107 -513 0 -223 27 -347 112 -522 82 -168 205 -305 375 -416 210 -137 438 -207 675 -207 138 0 190 8 343 56 55 17 159 66 262 124 42 23 43 23 63 5 36 -33 22 -56 -70 -111 -47 -28 -119 -63 -160 -79 -41 -15 -84 -31 -95 -35 -67 -27 -229 -50 -355 -50 -190 0 -360 41 -555 135 -328 157 -556 423 -645 750 -62 229 -52 558 22 770 56 160 138 294 252 413 211 219 479 353 796 397 117 17 122 17 240 1z m-350 -935 c0 -22 -25 -45 -40 -36 -5 3 -10 2 -10 -4 0 -17 22 -24 31 -10 4 7 11 10 14 7 11 -10 -4 -28 -24 -28 -26 0 -41 20 -41 57 0 20 6 36 17 42 23 12 53 -4 53 -28z m76 3 c10 -41 -3 -74 -30 -74 -26 0 -36 17 -36 60 0 51 54 62 66 14z m84 -3 c0 -22 -25 -45 -40 -36 -5 3 -10 2 -10 -4 0 -17 22 -24 31 -10 4 7 11 10 14 7 12 -12 -5 -28 -30 -28 -12 0 -26 7 -29 16 -12 31 -6 73 11 83 23 12 53 -4 53 -28z m80 0 c0 -22 -25 -45 -40 -36 -5 3 -10 2 -10 -4 0 -17 22 -24 31 -10 4 7 11 10 14 7 12 -12 -5 -28 -30 -28 -12 0 -26 7 -29 16 -12 31 -6 73 11 83 23 12 53 -4 53 -28z m235 -19 c-2 -20 -4 -41 -4 -45 -1 -5 -13 -7 -28 -5 -25 3 -28 7 -30 43 -3 47 18 70 48 55 14 -8 17 -19 14 -48z m-178 39 l-29 -6 27 -23 c31 -27 29 -56 -4 -60 -25 -4 -50 13 -36 25 4 5 10 2 12 -4 6 -17 33 -17 33 0 0 8 -11 24 -25 37 -34 32 -31 40 13 39 34 -1 35 -2 9 -8z m95 -3 c7 -19 -3 -88 -12 -88 -8 0 -60 64 -60 74 0 3 11 6 25 6 14 0 25 5 25 10 0 14 17 12 22 -2z m144 5 l-28 -5 26 -27 c31 -32 26 -61 -9 -61 -25 0 -42 16 -30 28 3 3 10 0 15 -8 7 -12 12 -12 22 -2 9 9 6 18 -15 40 -15 15 -27 31 -27 35 0 4 17 6 38 6 31 -2 33 -3 8 -6z m-543 -184 c14 -22 2 -49 -23 -49 -11 0 -20 -5 -20 -11 0 -7 10 -9 27 -4 23 5 25 4 14 -9 -27 -33 -61 -6 -61 46 0 45 41 62 63 27z m75 8 c15 -18 3 -87 -15 -94 -8 -3 -22 2 -31 11 -16 16 -15 17 11 11 31 -8 35 2 10 21 -17 13 -17 13 0 14 9 0 17 6 17 13 0 21 -12 28 -27 15 -15 -12 -28 -5 -18 11 9 15 40 14 53 -2z m82 -2 c7 -8 23 -15 36 -15 15 0 24 6 24 15 0 8 5 15 10 15 6 0 10 -7 10 -15 0 -10 10 -15 30 -15 20 0 30 5 30 15 0 21 20 19 21 -2 2 -36 -3 -78 -11 -86 -4 -5 -17 8 -30 27 -26 44 -40 46 -40 7 0 -44 -15 -46 -41 -5 -18 30 -23 33 -31 20 -5 -9 -18 -16 -28 -16 -11 0 -20 -4 -20 -10 0 -5 12 -10 26 -10 14 0 23 -4 19 -10 -10 -16 -55 -12 -55 4 0 8 -3 22 -7 31 -5 14 -2 16 16 10 14 -4 23 -2 27 9 9 23 -5 39 -22 25 -16 -13 -30 -6 -19 10 9 16 41 13 55 -4z m238 3 c16 -16 15 -60 -2 -84 -20 -27 -50 -7 -54 35 -5 50 27 78 56 49z m80 0 c16 -16 15 -60 -2 -84 -20 -27 -50 -7 -54 35 -5 50 27 78 56 49z m52 -1 c0 -7 9 -29 20 -50 11 -20 20 -39 20 -42 0 -3 -16 -5 -35 -5 -19 0 -35 5 -35 10 0 6 9 10 20 10 24 0 24 -1 5 43 -18 43 -18 47 -5 47 6 0 10 -6 10 -13z m-362 -200 c-2 -12 -14 -27 -28 -34 -24 -12 -24 -13 -3 -13 12 0 25 -4 28 -10 4 -6 -7 -10 -24 -10 -20 0 -31 5 -31 14 0 8 -3 22 -6 31 -5 13 -2 15 20 9 22 -5 26 -3 26 15 0 23 -25 29 -33 9 -2 -7 -8 -9 -13 -5 -5 5 -1 15 10 22 25 19 58 2 54 -28z m76 -15 c-9 -48 -11 -52 -34 -52 -20 0 -36 17 -25 28 3 3 10 0 14 -7 5 -7 14 -10 20 -6 9 5 9 11 -1 23 -10 12 -10 16 0 19 17 6 15 33 -2 33 -8 0 -16 -6 -19 -12 -2 -7 -8 -9 -13 -5 -16 15 26 38 48 26 15 -8 17 -17 12 -47z m70 42 c31 -31 15 -94 -25 -94 -32 0 -42 82 -11 99 9 6 18 11 19 11 1 0 9 -7 17 -16z m80 0 c31 -31 15 -94 -25 -94 -32 0 -42 82 -11 99 9 6 18 11 19 11 1 0 9 -7 17 -16z m80 0 c31 -31 15 -94 -25 -94 -32 0 -42 82 -11 99 9 6 18 11 19 11 1 0 9 -7 17 -16z m-464 -91 c0 -2 -16 -3 -35 -3 -19 0 -35 5 -35 10 0 6 9 10 21 10 16 0 19 4 14 18 -21 48 -13 62 9 17 14 -27 26 -51 26 -52z m57 50 c12 -26 20 -49 18 -51 -2 -2 -18 -2 -37 1 -29 3 -30 5 -11 11 20 8 21 10 8 47 -20 54 -5 49 22 -8z m483 -3 c0 -51 -6 -60 -28 -38 -15 15 -16 32 -2 23 6 -4 10 8 10 29 0 20 5 36 10 36 6 0 10 -22 10 -50z m-544 -168 c2 -74 -58 -85 -63 -11 -3 50 3 61 34 57 26 -3 28 -7 29 -46z m73 34 c17 -20 10 -77 -11 -89 -24 -16 -48 8 -48 47 0 49 34 73 59 42z m87 -10 c7 -31 -1 -46 -27 -46 -10 0 -19 -5 -19 -11 0 -7 10 -9 28 -4 25 6 26 5 11 -10 -26 -26 -59 -4 -59 38 0 56 53 82 66 33z m74 9 c17 -21 8 -50 -18 -53 -30 -5 -28 -22 4 -22 14 0 23 -4 19 -10 -12 -20 -45 -10 -55 16 -14 35 -13 37 11 31 21 -6 36 14 24 33 -5 8 -11 8 -21 -1 -16 -13 -30 -6 -19 10 9 16 41 13 55 -4z m78 3 c7 -7 12 -27 12 -45 0 -39 -31 -63 -56 -42 -22 18 -13 53 14 57 22 3 28 13 15 25 -3 4 -12 2 -20 -5 -15 -12 -28 -5 -18 11 8 15 38 14 53 -1z m80 0 c25 -25 5 -98 -27 -98 -25 0 -40 55 -25 94 7 19 35 21 52 4z m80 0 c7 -7 12 -27 12 -45 0 -39 -31 -63 -56 -42 -22 18 -13 53 14 57 24 4 29 17 11 28 -6 3 -15 0 -20 -7 -4 -7 -11 -10 -14 -7 -11 10 4 28 24 28 9 0 22 -5 29 -12z m82 -3 c16 -19 6 -45 -20 -52 -11 -3 -20 -10 -20 -15 0 -6 11 -7 28 -3 25 6 26 5 11 -10 -36 -37 -75 22 -53 79 8 20 38 21 54 1z"/>
<path d="M7550 1880 c0 -11 7 -20 15 -20 8 0 15 9 15 20 0 11 -7 20 -15 20 -8 0 -15 -9 -15 -20z"/>
<path d="M7632 1863 c2 -21 8 -38 13 -38 6 0 11 17 13 38 3 29 0 37 -13 37 -13 0 -16 -8 -13 -37z"/>
<path d="M7710 1880 c0 -11 7 -20 15 -20 8 0 15 9 15 20 0 11 -7 20 -15 20 -8 0 -15 -9 -15 -20z"/>
<path d="M7790 1880 c0 -11 7 -20 15 -20 8 0 15 9 15 20 0 11 -7 20 -15 20 -8 0 -15 -9 -15 -20z"/>
<path d="M8026 1891 c-7 -11 18 -33 27 -24 4 3 7 12 7 20 0 15 -26 18 -34 4z"/>
<path d="M8030 1835 c0 -9 5 -15 11 -13 6 2 11 8 11 13 0 5 -5 11 -11 13 -6 2 -11 -4 -11 -13z"/>
<path d="M7956 1855 c4 -8 8 -15 10 -15 2 0 4 7 4 15 0 8 -4 15 -10 15 -5 0 -7 -7 -4 -15z"/>
<path d="M7554 1716 c-4 -10 -2 -22 4 -28 8 -8 13 -7 18 6 4 10 2 22 -4 28 -8 8 -13 7 -18 -6z"/>
<path d="M7790 1691 c0 -6 5 -13 10 -16 6 -3 10 1 10 9 0 9 -4 16 -10 16 -5 0 -10 -4 -10 -9z"/>
<path d="M7870 1691 c0 -6 5 -13 10 -16 6 -3 10 1 10 9 0 9 -4 16 -10 16 -5 0 -10 -4 -10 -9z"/>
<path d="M7956 1723 c-3 -3 -6 -21 -6 -40 0 -23 5 -33 15 -33 10 0 15 10 15 34 0 34 -11 52 -24 39z"/>
<path d="M8031 1712 c-13 -24 -3 -62 15 -62 9 0 14 12 14 34 0 41 -15 55 -29 28z"/>
<path d="M7870 1509 c0 -52 24 -48 28 4 2 28 -1 37 -12 37 -12 0 -16 -11 -16 -41z"/>
<path d="M7952 1513 c2 -21 8 -38 13 -38 6 0 11 17 13 38 3 29 0 37 -13 37 -13 0 -16 -8 -13 -37z"/>
<path d="M8027 1530 c-7 -27 3 -62 17 -57 18 6 20 77 3 77 -8 0 -17 -9 -20 -20z"/>
<path d="M7556 1373 c-12 -12 -6 -33 9 -33 8 0 15 6 15 14 0 17 -14 28 -24 19z"/>
<path d="M7556 1323 c-11 -11 -6 -23 9 -23 8 0 15 4 15 9 0 13 -16 22 -24 14z"/>
<path d="M7636 1373 c-3 -3 -6 -21 -6 -40 0 -23 5 -33 15 -33 10 0 15 10 15 34 0 34 -11 52 -24 39z"/>
<path d="M7714 1366 c-4 -10 -2 -22 4 -28 8 -8 13 -7 18 6 4 10 2 22 -4 28 -8 8 -13 7 -18 -6z"/>
<path d="M7870 1320 c0 -11 7 -20 15 -20 8 0 15 9 15 20 0 11 -7 20 -15 20 -8 0 -15 -9 -15 -20z"/>
<path d="M7956 1373 c-3 -3 -6 -21 -6 -40 0 -23 5 -33 15 -33 10 0 15 10 15 34 0 34 -11 52 -24 39z"/>
<path d="M8027 1326 c-7 -16 1 -26 20 -26 7 0 13 9 13 20 0 23 -25 27 -33 6z"/>
<path d="M8114 1366 c-4 -10 -2 -22 4 -28 8 -8 13 -7 18 6 4 10 2 22 -4 28 -8 8 -13 7 -18 -6z"/>
</g>


</svg>