<!DOCTYPE svg PUBLIC "-//W3C//DTD SVG 20010904//EN" "http://www.w3.org/TR/2001/REC-SVG-20010904/DTD/svg10.dtd">
<svg version="1.0" xmlns="http://www.w3.org/2000/svg" width="1200px" height="411px" viewBox="0 0 12000 4110" preserveAspectRatio="xMidYMid meet">
<g id="layer101" fill="#3f7b25" stroke="none">
<path d="M0 2055 l0 -2055 6000 0 6000 0 0 2055 0 2055 -6000 0 -6000 0 0 -2055z"/>
</g>
<g id="layer102" fill="#4e8636" stroke="none">
<path d="M0 2055 l0 -2055 6000 0 6000 0 0 2055 0 2055 -6000 0 -6000 0 0 -2055z m1307 -202 c-3 -10 -5 -2 -5 17 0 19 2 27 5 18 2 -10 2 -26 0 -35z m130 -5 c-2 -13 -4 -5 -4 17 -1 22 1 32 4 23 2 -10 2 -28 0 -40z m310 35 c-4 -3 -7 0 -7 7 0 7 3 10 7 7 3 -4 3 -10 0 -14z m-280 -15 c-3 -8 -6 -5 -6 6 -1 11 2 17 5 13 3 -3 4 -12 1 -19z m80 -10 c-3 -7 -5 -2 -5 12 0 14 2 19 5 13 2 -7 2 -19 0 -25z m280 6 c-3 -3 -12 -4 -19 -1 -8 3 -5 6 6 6 11 1 17 -2 13 -5z m-440 -21 c-4 -3 -7 0 -7 7 0 7 3 10 7 7 3 -4 3 -10 0 -14z m290 -5 c-3 -8 -6 -5 -6 6 -1 11 2 17 5 13 3 -3 4 -12 1 -19z m154 -11 c-10 -9 -11 -8 -5 6 3 10 9 15 12 12 3 -3 0 -11 -7 -18z m-81 3 c0 -5 -2 -10 -4 -10 -3 0 -8 5 -11 10 -3 6 -1 10 4 10 6 0 11 -4 11 -10z m-350 -94 c0 -3 -5 -8 -12 -12 -7 -4 -8 -3 -4 4 7 12 16 16 16 8z m38 -27 c-3 -8 -7 -3 -11 10 -4 17 -3 21 5 13 5 -5 8 -16 6 -23z m42 27 c0 -3 -5 -8 -12 -12 -7 -4 -8 -3 -4 4 7 12 16 16 16 8z m35 -6 c3 -5 4 -10 1 -10 -3 0 -8 5 -11 10 -3 6 -4 10 -1 10 3 0 8 -4 11 -10z m75 -52 l-5 -43 -3 38 c-3 33 -6 38 -23 34 -10 -3 -19 -1 -19 4 0 5 9 9 20 9 11 0 20 6 20 13 0 9 2 9 8 0 4 -7 5 -31 2 -55z m78 10 c-1 -44 -2 -46 -5 -15 -2 20 -9 37 -14 37 -8 0 10 28 19 30 1 0 1 -24 0 -52z m-361 -15 c-3 -10 -5 -2 -5 17 0 19 2 27 5 18 2 -10 2 -26 0 -35z m53 23 c0 -3 -5 -8 -12 -12 -7 -4 -8 -3 -4 4 7 12 16 16 16 8z m160 0 c0 -3 -5 -8 -12 -12 -7 -4 -8 -3 -4 4 7 12 16 16 16 8z m215 -54 c-3 -3 -11 0 -18 7 -9 10 -8 11 6 5 10 -3 15 -9 12 -12z m185 8 c0 -5 -15 -9 -32 -9 l-33 1 30 8 c17 4 31 8 33 9 1 0 2 -3 2 -9z m-573 -6 c-3 -3 -12 -4 -19 -1 -8 3 -5 6 6 6 11 1 17 -2 13 -5z m70 -1 c-4 -3 -10 -3 -14 0 -3 4 0 7 7 7 7 0 10 -3 7 -7z m86 0 c-7 -2 -19 -2 -25 0 -7 3 -2 5 12 5 14 0 19 -2 13 -5z m314 0 c-4 -3 -10 -3 -14 0 -3 4 0 7 7 7 7 0 10 -3 7 -7z m-490 -110 c-4 -3 -7 0 -7 7 0 7 3 10 7 7 3 -4 3 -10 0 -14z m300 -30 c-3 -10 -5 -4 -5 12 0 17 2 24 5 18 2 -7 2 -21 0 -30z m-36 -26 c-10 -9 -11 -8 -5 6 3 10 9 15 12 12 3 -3 0 -11 -7 -18z m89 9 c0 -3 -5 -8 -12 -12 -7 -4 -8 -3 -4 4 7 12 16 16 16 8z m-332 -13 c-10 -2 -26 -2 -35 0 -10 3 -2 5 17 5 19 0 27 -2 18 -5z m80 0 c-10 -2 -26 -2 -35 0 -10 3 -2 5 17 5 19 0 27 -2 18 -5z m59 0 c-4 -3 -10 -3 -14 0 -3 4 0 7 7 7 7 0 10 -3 7 -7z m-150 -90 c-4 -3 -10 -3 -14 0 -3 4 0 7 7 7 7 0 10 -3 7 -7z m393 3 c0 -3 -5 -8 -12 -12 -7 -4 -8 -3 -4 4 7 12 16 16 16 8z m185 -6 c3 -5 4 -10 1 -10 -3 0 -8 5 -11 10 -3 6 -4 10 -1 10 3 0 8 -4 11 -10z m-608 -27 c-4 -3 -7 0 -7 7 0 7 3 10 7 7 3 -4 3 -10 0 -14z m80 0 c-4 -3 -7 0 -7 7 0 7 3 10 7 7 3 -4 3 -10 0 -14z m50 -35 c-2 -13 -4 -5 -4 17 -1 22 1 32 4 23 2 -10 2 -28 0 -40z m430 15 c-3 -10 -5 -4 -5 12 0 17 2 24 5 18 2 -7 2 -21 0 -30z m-400 -5 c-3 -7 -5 -2 -5 12 0 14 2 19 5 13 2 -7 2 -19 0 -25z m-112 12 c-3 -5 -14 -10 -23 -9 -14 0 -13 2 3 9 27 11 27 11 20 0z m32 -27 c-4 -3 -7 0 -7 7 0 7 3 10 7 7 3 -4 3 -10 0 -14z m240 0 c-4 -3 -7 0 -7 7 0 7 3 10 7 7 3 -4 3 -10 0 -14z m-276 -16 c-10 -9 -11 -8 -5 6 3 10 9 15 12 12 3 -3 0 -11 -7 -18z"/>
</g>
<g id="layer103" fill="#6aa84f" stroke="none">
<path d="M0 2055 l0 -2055 6000 0 6000 0 0 2055 0 2055 -6000 0 -6000 0 0 -2055z m1358 -168 c2 -15 -1 -27 -6 -27 -5 0 -7 12 -4 26 4 21 1 25 -14 22 -21 -4 -29 -54 -12 -75 7 -9 7 -13 0 -13 -22 0 -30 68 -10 88 20 20 43 9 46 -21z m80 -11 c2 -21 0 -42 -5 -47 -4 -4 -6 12 -4 37 3 40 1 45 -15 42 -13 -2 -21 -15 -25 -38 -6 -35 -6 -35 -8 -4 -2 64 52 74 57 10z m80 11 c2 -15 -1 -27 -6 -27 -5 0 -7 12 -4 26 4 21 1 25 -14 22 -21 -4 -29 -54 -12 -75 7 -9 7 -13 0 -13 -22 0 -30 68 -10 88 20 20 43 9 46 -21z m80 16 c11 -21 5 -43 -10 -43 -7 0 -7 4 0 13 14 17 -2 42 -22 34 -17 -7 -19 -53 -3 -74 6 -8 6 -13 -1 -13 -22 0 -30 68 -10 88 17 17 36 15 46 -5z m57 8 l-30 -7 28 -18 c26 -18 36 -49 18 -60 -5 -4 -7 2 -4 12 2 10 -6 27 -21 41 -34 32 -33 41 7 40 l32 -1 -30 -7z m96 -56 l-6 -40 -23 32 c-27 38 -27 43 -2 43 12 0 20 7 20 18 1 14 2 15 9 2 5 -8 6 -33 2 -55z m89 50 c7 -8 8 -20 4 -27 -5 -7 -7 -20 -6 -30 2 -9 -1 -19 -7 -22 -5 -3 -7 3 -4 14 4 14 0 20 -12 20 -12 0 -16 -6 -12 -20 3 -11 2 -20 -3 -20 -12 0 -20 29 -10 35 6 4 5 14 -3 26 -10 16 -9 21 3 29 21 14 36 12 50 -5z m55 6 l-30 -7 28 -18 c26 -18 36 -49 18 -60 -5 -4 -7 2 -4 12 2 10 -6 27 -21 41 -34 32 -33 41 7 40 l32 -1 -30 -7z m-535 -75 c0 -3 -5 -8 -12 -12 -7 -4 -8 -3 -4 4 7 12 16 16 16 8z m160 0 c0 -3 -5 -8 -12 -12 -7 -4 -8 -3 -4 4 7 12 16 16 16 8z m80 0 c0 -3 -5 -8 -12 -12 -7 -4 -8 -3 -4 4 7 12 16 16 16 8z m45 -14 c-3 -3 -11 0 -18 7 -9 10 -8 11 6 5 10 -3 15 -9 12 -12z m240 0 c-3 -3 -11 0 -18 7 -9 10 -8 11 6 5 10 -3 15 -9 12 -12z m-478 1 c-4 -3 -10 -3 -14 0 -3 4 0 7 7 7 7 0 10 -3 7 -7z m-85 -92 c-8 -5 -12 -22 -10 -42 2 -28 7 -34 26 -33 16 0 20 -2 12 -10 -16 -16 -44 6 -48 38 -4 35 4 56 20 56 10 0 10 -2 0 -9z m36 -27 c-2 -10 -10 -19 -18 -20 -11 -1 -11 0 -2 3 9 3 12 14 9 30 -3 16 -1 21 5 15 6 -6 8 -18 6 -28z m42 32 c0 -3 -5 -8 -12 -12 -7 -4 -8 -3 -4 4 7 12 16 16 16 8z m38 -44 c-1 -36 -11 -52 -34 -52 -7 0 -15 7 -18 16 -5 14 -4 15 9 4 13 -11 18 -11 28 0 9 10 9 14 -1 17 -10 4 -10 8 -1 19 6 7 9 21 5 29 -3 9 -2 13 4 10 5 -3 9 -22 8 -43z m42 44 c0 -3 -5 -8 -12 -12 -7 -4 -8 -3 -4 4 7 12 16 16 16 8z m38 -32 c-2 -13 -13 -19 -33 -20 l-30 -2 29 5 c24 4 27 8 23 30 -3 16 -1 21 5 15 6 -6 8 -18 6 -28z m74 -25 l-4 -41 -24 28 c-29 36 -30 54 -4 54 11 0 20 6 20 13 0 9 2 9 8 0 4 -7 6 -31 4 -54z m80 2 c-2 -23 -7 -39 -11 -36 -4 2 -6 18 -3 35 3 23 0 30 -12 30 -19 0 -21 -11 -3 -30 10 -12 9 -12 -5 -1 -24 18 -23 41 2 41 11 0 20 6 20 13 0 9 2 9 8 0 4 -7 6 -30 4 -52z m50 47 c-7 -7 -12 -23 -13 -37 0 -15 -3 -20 -6 -13 -7 19 6 62 19 62 9 0 9 -3 0 -12z m36 -13 c-3 -3 -9 2 -12 12 -6 14 -5 15 5 6 7 -7 10 -15 7 -18z m44 13 c-18 -18 -15 -68 4 -75 9 -3 20 0 25 8 6 10 9 11 9 1 0 -19 -28 -26 -45 -12 -23 19 -17 90 8 90 7 0 7 -4 -1 -12z m47 -37 c0 -14 -1 -14 -6 -1 -3 8 -10 24 -15 35 -9 20 -9 20 6 1 9 -11 16 -27 15 -35z m56 -13 c3 -7 -1 -4 -9 6 -9 11 -16 29 -15 40 1 17 2 16 9 -6 4 -14 11 -32 15 -40z m-400 -31 c15 -4 14 -5 -7 -6 -21 -1 -28 4 -28 17 0 11 3 13 8 6 4 -7 16 -14 27 -17z m250 4 c-8 -13 -32 -14 -39 -2 -4 5 3 7 14 4 12 -3 20 0 20 8 0 7 3 10 6 6 3 -3 3 -10 -1 -16z m170 -1 c4 -6 -9 -10 -32 -9 -38 1 -38 1 -8 9 17 4 31 8 32 9 1 0 5 -3 8 -9z m-441 -94 c-10 -8 -21 -12 -24 -10 -5 6 21 24 34 24 6 0 1 -6 -10 -14z m116 -5 c7 -14 7 -22 0 -26 -6 -4 -8 -15 -5 -25 3 -10 0 -22 -6 -26 -8 -4 -9 -3 -5 5 4 6 2 18 -4 26 -9 11 -9 15 -1 15 6 0 11 9 11 20 0 22 -20 26 -38 8 -8 -8 -12 -9 -12 -1 0 12 16 21 37 22 7 1 17 -8 23 -18z m48 8 c-11 -6 -19 -23 -19 -42 -2 -31 -2 -31 -6 -4 -5 29 11 57 31 57 6 0 3 -5 -6 -11z m109 -14 c2 -17 1 -18 -3 -2 -4 13 -12 17 -25 14 -11 -3 -16 -1 -13 4 10 17 39 5 41 -16z m51 14 c-21 -12 -24 -59 -6 -77 8 -8 8 -12 1 -12 -23 0 -32 67 -11 88 7 7 17 12 23 12 5 0 2 -5 -7 -11z m-458 -64 c21 -13 9 -25 -22 -24 -31 2 -31 2 -5 6 26 4 26 6 12 26 -8 12 -15 31 -14 42 0 13 4 9 10 -12 5 -18 14 -35 19 -38z m80 0 c21 -13 9 -25 -22 -24 -31 2 -31 2 -5 6 26 4 26 6 12 26 -8 12 -15 31 -14 42 0 13 4 9 10 -12 5 -18 14 -35 19 -38z m90 39 c0 -17 -6 -28 -20 -31 -27 -7 -25 -21 3 -26 19 -4 18 -4 -5 -6 -16 0 -28 3 -28 8 0 5 -3 17 -6 25 -5 12 -1 16 17 14 18 -2 25 3 27 20 5 30 12 28 12 -4z m153 -55 c-4 -4 -6 13 -3 39 l5 47 3 -39 c2 -21 0 -42 -5 -47z m164 64 c-4 -3 -7 0 -7 7 0 7 3 10 7 7 3 -4 3 -10 0 -14z m68 -71 c-3 -3 -13 2 -23 12 -16 16 -16 17 1 10 14 -5 17 0 19 32 l1 39 4 -44 c3 -23 2 -46 -2 -49z m-183 11 c7 -9 7 -13 0 -13 -13 0 -22 25 -21 53 2 19 2 19 6 -3 3 -14 10 -31 15 -37z m128 34 c0 -7 -7 -22 -15 -33 -13 -17 -13 -16 -3 14 13 34 18 40 18 19z m-99 -40 c-10 -9 -11 -8 -5 6 3 10 9 15 12 12 3 -3 0 -11 -7 -18z m-196 3 c3 -5 4 -10 1 -10 -3 0 -8 5 -11 10 -3 6 -4 10 -1 10 3 0 8 -4 11 -10z m-200 -140 c0 -41 -2 -45 -25 -45 -21 0 -25 5 -27 35 -3 49 3 62 29 58 20 -3 23 -9 23 -48z m80 0 c0 -40 -3 -45 -23 -46 -18 -1 -19 -1 -2 3 16 3 20 12 20 44 0 33 -3 40 -17 37 -12 -2 -20 -16 -24 -38 -5 -29 -7 -31 -8 -8 -2 41 9 59 33 56 18 -3 21 -10 21 -48z m83 24 c2 -11 -5 -27 -15 -34 -15 -12 -16 -12 -5 0 19 21 15 52 -5 48 -13 -2 -18 -13 -18 -38 0 -30 3 -35 22 -34 12 0 20 -3 17 -8 -3 -4 -14 -8 -24 -8 -23 0 -35 37 -26 76 8 32 49 31 54 -2z m77 16 c3 -6 -1 -7 -10 -4 -8 4 -22 1 -30 -6 -15 -12 -22 0 -8 13 10 10 41 8 48 -3z m80 -40 c0 -41 -2 -45 -25 -45 -20 0 -25 5 -25 25 0 18 6 26 23 28 12 2 22 10 22 19 0 11 -7 14 -25 11 -13 -3 -22 -1 -19 4 3 5 16 8 27 6 19 -3 22 -10 22 -48z m82 30 c4 -12 3 -13 -5 -1 -15 21 -42 5 -43 -26 0 -15 -3 -22 -6 -15 -3 7 -2 24 1 38 5 19 12 24 28 22 12 -2 23 -10 25 -18z m85 -5 c16 -36 -4 -78 -35 -73 -35 5 -31 51 5 58 20 4 25 9 19 19 -5 8 -16 11 -25 8 -9 -4 -16 -2 -16 3 0 21 41 9 52 -15z m78 6 c7 -15 6 -23 -6 -35 -8 -9 -18 -16 -22 -16 -3 0 -1 5 6 12 19 19 15 50 -5 46 -13 -2 -18 -13 -18 -38 0 -30 3 -35 23 -34 16 0 20 -2 12 -10 -16 -16 -44 6 -48 38 -6 49 37 76 58 37z m-320 -31 c-6 -11 -17 -20 -25 -20 -24 0 -17 -18 8 -23 19 -4 18 -4 -5 -6 -16 0 -28 3 -28 8 0 5 -3 17 -7 26 -5 14 -2 16 14 11 12 -4 25 -1 33 9 18 21 23 19 10 -5z m155 -39 c-8 -13 -32 -14 -39 -2 -4 5 3 7 14 4 12 -3 20 0 20 8 0 7 3 10 6 6 3 -3 3 -10 -1 -16z"/>
<path d="M1721 1863 c7 -10 15 -20 16 -22 2 -2 3 5 3 17 0 14 -6 22 -16 22 -14 0 -15 -3 -3 -17z"/>
<path d="M1795 1900 c-4 -7 -3 -16 3 -22 14 -14 45 -2 40 15 -6 16 -34 21 -43 7z"/>
<path d="M1550 1701 c0 -5 7 -14 15 -21 13 -10 15 -9 15 9 0 12 -6 21 -15 21 -8 0 -15 -4 -15 -9z"/>
<path d="M1312 1363 c5 -26 38 -29 38 -4 0 15 -6 21 -21 21 -14 0 -19 -5 -17 -17z"/>
<path d="M1317 1324 c-13 -13 -7 -24 14 -24 11 0 19 5 17 12 -5 14 -22 21 -31 12z"/>
<path d="M1630 1320 c0 -13 7 -20 20 -20 13 0 20 7 20 20 0 13 -7 20 -20 20 -13 0 -20 -7 -20 -20z"/>
<path d="M1792 1323 c5 -26 38 -29 38 -4 0 15 -6 21 -21 21 -14 0 -19 -5 -17 -17z"/>
</g>
<g id="layer104" fill="#92c53b" stroke="none">
<path d="M0 2055 l0 -2055 6000 0 6000 0 0 2055 0 2055 -6000 0 -6000 0 0 -2055z m5750 825 c130 -14 227 -45 330 -107 107 -64 107 -51 1 -157 l-94 -94 -38 23 c-94 60 -256 88 -385 66 -191 -32 -339 -175 -384 -370 -18 -77 -16 -233 5 -310 62 -239 227 -372 457 -370 127 1 198 31 237 99 33 58 30 169 -6 241 -51 99 -105 120 -330 126 l-163 5 0 124 0 124 78 0 c108 0 277 -17 347 -35 92 -24 199 -79 255 -131 95 -89 150 -254 136 -410 -19 -226 -152 -349 -421 -390 -159 -24 -298 -14 -426 32 -97 35 -153 69 -226 138 -178 166 -265 404 -250 685 11 199 70 349 188 475 134 144 286 216 498 236 42 4 81 8 86 8 6 1 53 -3 105 -8z m4378 -21 c40 -10 94 -28 120 -39 53 -24 172 -99 172 -109 0 -3 -42 -48 -93 -99 -78 -77 -96 -91 -105 -79 -23 27 -131 68 -211 79 -262 38 -472 -95 -536 -342 -23 -86 -24 -263 -2 -347 45 -175 161 -296 322 -338 123 -32 259 -16 376 43 l76 38 89 -94 88 -95 -29 -23 c-52 -42 -182 -104 -262 -126 -105 -28 -297 -30 -398 -4 -265 69 -469 269 -551 541 -23 79 -26 107 -26 230 0 111 4 157 21 220 100 373 408 593 796 568 44 -3 113 -14 153 -24z m-5877 -29 c161 -35 261 -106 316 -225 26 -55 28 -70 28 -180 0 -112 -2 -124 -29 -178 -62 -127 -122 -163 -454 -271 -288 -94 -326 -117 -354 -209 -17 -56 9 -103 77 -137 50 -25 51 -25 378 -28 l328 -3 -3 -132 -3 -132 -330 0 c-281 1 -340 3 -395 18 -149 40 -260 119 -310 222 -21 44 -25 64 -25 160 0 105 2 114 33 177 38 79 121 160 203 200 50 24 130 52 341 117 153 48 240 104 257 168 21 77 -20 139 -112 170 -44 14 -105 17 -389 21 l-338 3 0 130 0 129 348 0 c304 0 358 -3 433 -20z m3507 -507 c-4 -576 -4 -576 -65 -703 -35 -72 -141 -178 -214 -213 -128 -62 -183 -69 -546 -74 l-333 -5 0 135 0 136 313 3 c295 3 315 5 367 26 65 26 130 86 158 145 37 79 42 138 42 483 l0 336 -267 -4 c-230 -4 -276 -7 -322 -23 -111 -39 -162 -135 -131 -247 44 -156 314 -214 528 -113 l72 34 0 -139 0 -139 -52 -15 c-95 -27 -200 -39 -303 -33 -244 15 -422 112 -496 271 -27 59 -33 83 -37 166 -10 205 62 341 225 428 123 65 169 70 641 71 l423 1 -3 -527z m582 31 c0 -580 3 -610 74 -680 64 -65 109 -74 363 -74 l213 0 0 -137 0 -136 -247 6 c-260 7 -312 14 -427 65 -69 31 -158 121 -190 192 -57 127 -59 149 -63 728 l-4 532 140 0 141 0 0 -496z m2640 -129 l0 -625 209 0 c180 0 218 3 273 20 120 37 184 118 207 261 7 38 11 250 11 517 l0 452 141 0 141 0 -5 -522 c-5 -564 -9 -608 -62 -726 -29 -63 -110 -146 -182 -185 -108 -58 -306 -87 -594 -87 l-139 0 0 -345 0 -345 -140 0 -140 0 0 1105 0 1105 140 0 140 0 0 -625z m-9621 -319 c21 -25 -14 -67 -41 -50 -6 4 -9 1 -6 -7 3 -8 15 -14 27 -13 11 0 21 -3 21 -8 0 -5 -12 -8 -27 -6 -24 2 -29 8 -31 36 -2 19 -1 40 2 48 7 18 40 18 55 0z m76 -36 c0 -41 -2 -45 -25 -45 -21 0 -26 5 -28 33 -5 47 4 64 30 60 20 -3 23 -9 23 -48z m83 21 c4 -26 -15 -44 -36 -36 -8 3 -12 0 -9 -7 2 -7 14 -13 26 -12 11 0 21 -3 21 -8 0 -5 -12 -8 -27 -6 -24 2 -29 8 -31 36 -5 47 4 64 30 60 15 -2 24 -11 26 -27z m83 13 c17 -21 -1 -50 -31 -46 -14 1 -20 -2 -17 -10 2 -7 14 -13 26 -12 11 0 21 -3 21 -8 0 -5 -12 -8 -27 -6 -24 2 -29 8 -31 36 -2 19 -1 40 2 48 7 19 40 18 57 -2z m61 9 l-23 -4 25 -30 c14 -17 23 -36 19 -45 -7 -19 -55 -15 -61 6 -4 12 -2 13 9 3 7 -7 19 -13 26 -13 21 0 15 25 -12 50 -33 31 -32 40 8 39 23 -1 26 -3 9 -6z m97 -31 c-5 -2 -9 -18 -9 -35 l-1 -32 -24 30 c-30 36 -32 55 -5 55 11 0 20 5 20 12 0 6 6 3 14 -8 8 -10 10 -20 5 -22z m81 23 c6 -8 8 -20 4 -27 -5 -7 -7 -23 -5 -36 2 -20 -1 -23 -25 -20 -25 3 -29 8 -31 38 -1 19 0 41 2 48 6 17 40 15 55 -3z m67 8 l-28 -4 25 -30 c14 -17 23 -36 19 -45 -7 -19 -55 -15 -61 6 -4 12 -2 13 9 3 7 -7 19 -13 26 -13 21 0 15 25 -12 50 -34 32 -31 40 13 39 30 -2 32 -3 9 -6z m-553 -179 c18 -18 18 -17 10 -38 -3 -9 -17 -16 -30 -16 -25 0 -32 -14 -14 -25 6 -4 18 -1 27 7 14 11 15 11 11 -2 -6 -20 -38 -25 -49 -8 -13 19 -11 72 3 86 16 16 23 15 42 -4z m80 0 c9 -8 13 -20 10 -26 -4 -6 -7 -23 -8 -37 -1 -21 -6 -26 -25 -26 -13 0 -27 7 -29 15 -4 13 -3 13 11 2 20 -17 43 -6 27 13 -8 9 -8 15 0 20 5 3 10 13 10 22 0 11 -7 14 -25 11 -20 -4 -23 -3 -14 8 15 18 24 18 43 -2z m72 8 c19 -13 23 -41 8 -57 -9 -8 -20 -13 -25 -10 -5 4 -9 -1 -9 -9 0 -8 10 -17 23 -19 20 -4 19 -4 -4 -6 -16 0 -29 5 -33 15 -12 31 -7 41 19 36 21 -3 25 0 25 18 0 18 -4 21 -25 18 -26 -5 -35 6 -12 15 17 8 21 8 33 -1z m241 0 c39 -25 15 -120 -24 -96 -21 13 -29 69 -12 90 13 16 19 17 36 6z m87 -8 c20 -19 20 -54 2 -80 -12 -15 -18 -17 -33 -8 -21 13 -29 69 -12 90 15 18 24 18 43 -2z m-208 -14 c19 0 34 5 34 10 0 6 6 5 14 -2 8 -7 10 -15 6 -18 -5 -3 -10 -21 -12 -40 l-3 -35 -25 37 c-32 48 -48 48 -52 1 l-3 -38 -28 40 -27 40 25 3 c14 2 25 9 26 15 0 9 2 8 6 0 2 -7 20 -13 39 -13z m281 -30 l22 -50 -37 1 c-23 1 -29 3 -14 6 26 5 27 9 7 57 -23 55 -3 42 22 -14z m-577 -137 c0 -10 9 -33 20 -50 l20 -33 -38 1 c-23 1 -28 3 -14 6 26 5 26 2 7 46 -18 43 -18 47 -5 47 6 0 10 -8 10 -17z m86 -15 c6 -18 14 -41 19 -50 6 -15 2 -18 -26 -17 -24 1 -27 3 -11 6 26 5 26 2 7 46 -17 41 -18 47 -7 47 4 0 12 -15 18 -32z m103 15 c11 -21 -3 -53 -24 -53 -23 0 -17 -18 8 -23 15 -4 12 -5 -8 -4 -23 2 -31 7 -33 25 -3 20 0 23 17 17 15 -4 23 -1 27 10 10 24 -11 41 -31 25 -8 -7 -15 -8 -15 -3 0 27 44 32 59 6z m81 2 c6 -8 8 -20 4 -27 -5 -7 -7 -23 -6 -34 4 -28 -26 -40 -47 -19 -15 15 -14 16 12 10 31 -8 37 8 10 24 -17 10 -17 10 0 11 19 0 23 25 7 35 -6 4 -17 1 -25 -5 -8 -7 -15 -8 -15 -3 0 26 40 32 60 8z m80 -6 c13 -23 5 -70 -13 -81 -21 -13 -47 11 -47 45 0 54 39 77 60 36z m80 0 c13 -23 5 -70 -13 -81 -21 -13 -47 11 -47 45 0 54 39 77 60 36z m80 2 c14 -28 12 -57 -6 -75 -24 -24 -54 -4 -54 37 0 53 39 77 60 38z m70 -31 c0 -52 -8 -61 -31 -33 -10 11 -10 14 -1 9 9 -5 12 4 12 33 0 23 5 41 10 41 6 0 10 -22 10 -50z m-550 -145 c6 -8 8 -20 4 -27 -5 -7 -8 -22 -9 -33 0 -15 -7 -20 -25 -20 -21 0 -25 5 -27 35 -1 19 0 41 2 48 6 17 40 15 55 -3z m75 -35 c0 -41 -2 -45 -25 -45 -21 0 -26 5 -28 33 -5 47 4 64 30 60 20 -3 23 -9 23 -48z m83 21 c4 -26 -15 -44 -36 -36 -8 3 -12 0 -9 -7 2 -7 14 -13 26 -12 13 0 18 -3 12 -9 -19 -19 -46 -3 -49 32 -5 46 4 63 30 59 15 -2 24 -11 26 -27z m82 14 c16 -19 6 -45 -20 -52 -27 -7 -25 -21 3 -26 19 -4 18 -4 -5 -6 -16 0 -28 3 -28 8 0 5 -3 17 -6 25 -5 12 -1 16 17 14 18 -2 25 3 27 20 4 24 -16 30 -36 10 -7 -7 -12 -8 -12 -2 0 27 40 33 60 9z m82 -10 c16 -36 -4 -78 -35 -73 -32 4 -31 52 1 56 29 4 22 28 -7 25 -13 -2 -20 1 -16 7 12 19 45 10 57 -15z m80 0 c15 -33 -3 -75 -32 -75 -23 0 -36 36 -26 75 4 16 13 25 26 25 12 0 25 -10 32 -25z m82 -8 c7 -19 7 -34 0 -45 -15 -24 -52 -28 -61 -6 -8 22 10 50 32 46 11 -2 15 2 12 10 -2 7 -14 12 -26 11 -14 -2 -20 1 -16 8 13 19 49 5 59 -24z m81 13 c8 -27 -13 -53 -37 -46 -12 3 -18 0 -15 -7 2 -7 14 -12 26 -11 11 0 21 -3 21 -8 0 -4 -11 -8 -25 -8 -28 0 -42 33 -31 75 8 32 51 35 61 5z"/>
</g>
<g id="layer105" fill="#9bc656" stroke="none">
<path d="M0 2055 l0 -2055 6000 0 6000 0 0 2055 0 2055 -6000 0 -6000 0 0 -2055z m5750 825 c130 -14 227 -45 330 -107 107 -64 107 -51 1 -157 l-94 -94 -38 23 c-94 60 -256 88 -385 66 -191 -32 -339 -175 -384 -370 -18 -77 -16 -233 5 -310 62 -239 227 -372 457 -370 127 1 198 31 237 99 33 58 30 169 -6 241 -51 99 -105 120 -330 126 l-163 5 0 124 0 124 78 0 c108 0 277 -17 347 -35 92 -24 199 -79 255 -131 95 -89 150 -254 136 -410 -19 -226 -152 -349 -421 -390 -159 -24 -298 -14 -426 32 -97 35 -153 69 -226 138 -178 166 -265 404 -250 685 11 199 70 349 188 475 134 144 286 216 498 236 42 4 81 8 86 8 6 1 53 -3 105 -8z m4378 -21 c40 -10 94 -28 120 -39 53 -24 172 -99 172 -109 0 -3 -42 -48 -93 -99 -78 -77 -96 -91 -105 -79 -23 27 -131 68 -211 79 -262 38 -472 -95 -536 -342 -23 -86 -24 -263 -2 -347 45 -175 161 -296 322 -338 123 -32 259 -16 376 43 l76 38 89 -94 88 -95 -29 -23 c-52 -42 -182 -104 -262 -126 -105 -28 -297 -30 -398 -4 -265 69 -469 269 -551 541 -23 79 -26 107 -26 230 0 111 4 157 21 220 100 373 408 593 796 568 44 -3 113 -14 153 -24z m-5877 -29 c161 -35 261 -106 316 -225 26 -55 28 -70 28 -180 0 -112 -2 -124 -29 -178 -62 -127 -122 -163 -454 -271 -288 -94 -326 -117 -354 -209 -17 -56 9 -103 77 -137 50 -25 51 -25 378 -28 l328 -3 -3 -132 -3 -132 -330 0 c-281 1 -340 3 -395 18 -149 40 -260 119 -310 222 -21 44 -25 64 -25 160 0 105 2 114 33 177 38 79 121 160 203 200 50 24 130 52 341 117 153 48 240 104 257 168 21 77 -20 139 -112 170 -44 14 -105 17 -389 21 l-338 3 0 130 0 129 348 0 c304 0 358 -3 433 -20z m3507 -507 c-4 -576 -4 -576 -65 -703 -35 -72 -141 -178 -214 -213 -128 -62 -183 -69 -546 -74 l-333 -5 0 135 0 136 313 3 c295 3 315 5 367 26 65 26 130 86 158 145 37 79 42 138 42 483 l0 336 -267 -4 c-230 -4 -276 -7 -322 -23 -111 -39 -162 -135 -131 -247 44 -156 314 -214 528 -113 l72 34 0 -139 0 -139 -52 -15 c-95 -27 -200 -39 -303 -33 -244 15 -422 112 -496 271 -27 59 -33 83 -37 166 -10 205 62 341 225 428 123 65 169 70 641 71 l423 1 -3 -527z m582 31 c0 -580 3 -610 74 -680 64 -65 109 -74 363 -74 l213 0 0 -137 0 -136 -247 6 c-260 7 -312 14 -427 65 -69 31 -158 121 -190 192 -57 127 -59 149 -63 728 l-4 532 140 0 141 0 0 -496z m2640 -129 l0 -625 209 0 c180 0 218 3 273 20 120 37 184 118 207 261 7 38 11 250 11 517 l0 452 141 0 141 0 -5 -522 c-5 -564 -9 -608 -62 -726 -29 -63 -110 -146 -182 -185 -108 -58 -306 -87 -594 -87 l-139 0 0 -345 0 -345 -140 0 -140 0 0 1105 0 1105 140 0 140 0 0 -625z m-9283 609 c40 -5 50 -10 46 -22 -5 -12 -1 -14 19 -10 20 4 24 1 21 -12 -3 -10 5 -21 19 -27 19 -10 13 -12 -44 -12 -38 -1 -68 -5 -68 -10 0 -14 -137 -2 -186 16 -33 12 -41 19 -37 34 3 10 14 19 24 19 11 0 19 5 19 10 0 13 -6 13 -31 -1 -12 -6 -28 -7 -37 -3 -40 18 147 30 255 18z m-322 -24 c-3 -5 1 -10 9 -10 17 0 56 -30 56 -42 0 -5 -11 -8 -24 -8 -14 0 -31 -8 -38 -18 -17 -24 -58 -35 -58 -16 0 18 -10 17 -34 -1 -20 -15 -20 -15 0 -16 10 0 -6 -8 -36 -18 -30 -10 -56 -15 -58 -10 -2 5 -19 9 -37 9 -29 0 -32 3 -28 21 4 12 15 24 25 27 11 3 17 10 14 18 -4 9 2 14 15 14 11 0 17 -4 14 -10 -9 -14 5 -12 38 4 23 13 27 13 27 0 0 -8 5 -14 11 -14 6 0 9 8 7 18 -4 13 1 18 15 19 11 1 25 9 29 18 5 8 14 15 19 15 6 0 7 -6 3 -12 -4 -7 2 -5 12 5 20 19 28 22 19 7z m470 -10 c3 -5 4 -10 1 -10 -3 0 -8 5 -11 10 -3 6 -4 10 -1 10 3 0 8 -4 11 -10z m-538 -7 c-4 -3 -10 -3 -14 0 -3 4 0 7 7 7 7 0 10 -3 7 -7z m583 3 c0 -3 -5 -8 -12 -12 -7 -4 -8 -3 -4 4 7 12 16 16 16 8z m70 -60 c-1 -21 -21 -56 -34 -56 -4 0 -5 4 -2 9 3 4 -6 6 -19 3 -14 -2 -25 0 -25 7 0 5 -6 8 -14 5 -8 -3 -17 0 -21 6 -3 6 -3 10 2 9 22 -4 43 2 38 11 -3 6 3 10 13 10 11 0 22 7 26 15 8 21 36 7 36 -19z m40 30 c0 -3 -5 -8 -12 -12 -7 -4 -8 -3 -4 4 7 12 16 16 16 8z m36 -44 c-4 -3 -14 2 -24 12 -16 18 -16 18 6 6 13 -6 21 -14 18 -18z m-229 12 c-3 -3 -12 -4 -19 -1 -8 3 -5 6 6 6 11 1 17 -2 13 -5z m263 2 c0 -3 -5 -8 -12 -12 -7 -4 -8 -3 -4 4 7 12 16 16 16 8z m111 -52 c38 -20 69 -37 69 -39 0 -2 -10 -1 -22 2 -18 4 -20 3 -12 -6 6 -7 18 -13 25 -14 17 -3 67 -37 55 -37 -5 0 -18 7 -28 17 -17 15 -18 15 -18 -1 0 -9 -7 -19 -15 -22 -8 -4 -12 -11 -8 -18 3 -6 -3 -3 -14 7 -12 10 -30 18 -40 16 -10 -1 -39 8 -64 19 -34 16 -48 29 -51 47 -4 17 -1 25 8 25 8 0 14 5 14 10 0 7 6 7 18 1 14 -7 19 -6 19 4 0 8 -4 12 -9 9 -4 -3 -8 0 -8 5 0 16 4 15 81 -25z m-1104 9 c-4 -3 -10 -3 -14 0 -3 4 0 7 7 7 7 0 10 -3 7 -7z m12 -32 c12 -21 5 -31 -20 -31 -10 0 -21 -9 -24 -20 -6 -19 -15 -23 -32 -17 -5 1 -7 5 -6 9 4 10 -30 -4 -45 -19 -7 -7 -10 -13 -5 -13 5 0 14 5 21 12 9 9 12 8 12 -4 0 -9 -10 -20 -22 -24 -35 -12 -49 -13 -43 -4 3 5 -4 8 -15 7 -11 -1 -20 -7 -20 -14 0 -7 -5 -13 -11 -13 -6 0 -8 -8 -4 -19 3 -11 0 -23 -6 -27 -8 -4 -9 -3 -5 4 15 25 -14 10 -50 -25 -21 -21 -30 -28 -20 -15 20 23 16 26 -21 16 -22 -6 -33 -34 -13 -34 6 0 10 -4 10 -10 0 -5 -7 -10 -15 -10 -8 0 -15 -5 -15 -11 0 -5 6 -7 13 -4 6 4 -6 -10 -28 -29 -22 -20 -43 -36 -47 -36 -5 0 -8 -5 -8 -11 0 -5 5 -7 12 -3 7 4 8 3 4 -4 -4 -6 -12 -9 -19 -6 -7 2 -22 -5 -33 -17 -14 -16 -15 -23 -6 -26 6 -3 10 -9 7 -13 -3 -5 -12 -7 -20 -4 -7 3 -18 -4 -25 -15 -6 -12 -18 -21 -28 -21 -15 -1 -15 -2 1 -11 18 -10 18 -12 -2 -31 -12 -10 -19 -23 -16 -28 3 -4 -5 -6 -17 -3 l-23 6 20 -19 c11 -10 16 -16 11 -11 -6 4 -17 7 -27 7 -12 0 -15 7 -12 28 4 21 2 24 -6 12 -6 -8 -11 -10 -11 -5 0 14 19 42 21 30 1 -14 17 27 18 45 1 13 0 13 -9 0 -6 -9 -10 -10 -10 -3 0 19 17 24 30 8 14 -17 30 -11 30 11 0 8 -4 12 -10 9 -6 -3 -7 1 -4 9 3 9 10 13 15 10 13 -7 11 10 -2 23 -7 7 -2 17 19 31 16 12 33 18 37 14 5 -4 5 -2 2 4 -4 6 5 16 18 22 21 10 25 9 25 -3 0 -17 35 -21 45 -5 3 6 0 10 -8 10 -10 0 -16 13 -19 39 -3 34 -1 38 11 28 12 -10 14 -9 8 6 -3 9 -2 17 2 17 5 0 11 -6 14 -12 6 -17 18 -5 20 20 0 11 4 19 8 16 4 -2 21 12 38 31 35 40 39 41 57 18 12 -16 13 -15 4 10 -10 28 -7 31 35 28 18 -1 19 -1 3 9 -23 14 -23 29 0 23 10 -2 24 3 31 11 10 12 18 13 33 5 23 -12 28 -9 31 19 0 11 4 20 7 20 3 -1 12 1 20 5 57 22 77 21 89 -2z m891 9 c0 -5 -7 -7 -15 -4 -8 4 -15 8 -15 10 0 2 7 4 15 4 8 0 15 -4 15 -10z m64 -8 c2 -4 -4 -8 -15 -8 -10 0 -19 4 -19 8 0 4 6 8 14 8 8 0 17 -4 20 -8z m-1084 -18 c0 -8 -19 -13 -24 -6 -3 5 1 9 9 9 8 0 15 -2 15 -3z m165 -4 c3 -5 4 -10 1 -10 -3 0 -8 5 -11 10 -3 6 -4 10 -1 10 3 0 8 -4 11 -10z m1279 -126 c-1 -14 -8 -31 -14 -39 -6 -8 -9 -19 -5 -25 11 -17 -1 -11 -21 12 -12 13 -13 18 -4 13 13 -8 13 -7 1 8 -10 12 -17 14 -26 7 -9 -8 -14 -6 -19 5 -3 9 -10 14 -15 11 -5 -3 -11 4 -14 16 -5 19 -8 20 -23 7 -16 -13 -16 -12 -3 9 8 12 19 22 26 22 7 0 13 5 13 10 0 6 6 9 13 8 6 -2 11 3 9 10 -1 8 17 -1 41 -18 34 -24 44 -37 41 -56z m-209 56 c3 -6 -1 -7 -9 -4 -18 7 -21 14 -7 14 6 0 13 -4 16 -10z m-1417 -40 c-7 -11 -17 -20 -22 -20 -5 0 -1 9 9 20 10 11 20 20 22 20 2 0 -2 -9 -9 -20z m1679 -57 c14 -17 14 -17 9 0 -5 14 1 12 24 -9 16 -16 25 -31 19 -34 -5 -4 1 -18 15 -33 13 -15 26 -22 28 -16 2 6 21 -10 43 -37 24 -29 35 -49 27 -52 -7 -2 -12 -10 -12 -17 0 -7 -6 -15 -13 -18 -15 -6 -69 38 -59 48 4 4 -4 4 -18 1 -19 -6 -21 -5 -10 3 13 9 12 12 -5 25 -17 13 -18 18 -7 36 12 19 11 21 -5 20 -33 -4 -42 0 -58 24 -10 15 -14 33 -9 50 7 31 12 32 31 9z m88 -63 c3 -5 4 -10 1 -10 -3 0 -8 5 -11 10 -3 6 -4 10 -1 10 3 0 8 -4 11 -10z m-1885 -13 c0 -5 -6 -7 -14 -4 -7 3 -20 0 -27 -6 -11 -10 -11 -9 -1 4 13 17 42 21 42 6z m1978 -142 c-3 -3 -9 2 -12 12 -6 14 -5 15 5 6 7 -7 10 -15 7 -18z m-68 -10 c14 -18 13 -19 -1 -8 -9 7 -19 10 -23 6 -4 -4 -4 1 0 10 3 10 7 17 8 15 1 -2 8 -12 16 -23z m83 -9 c15 2 30 -20 69 -102 27 -57 47 -110 45 -117 -3 -7 -6 -5 -6 6 -1 9 -5 17 -11 17 -5 0 -7 -6 -4 -13 2 -7 -2 -29 -10 -48 l-14 -34 -11 28 c-6 15 -16 27 -23 27 -20 1 -96 168 -83 182 7 8 5 9 -7 5 -10 -4 -18 -2 -18 3 0 6 5 10 10 10 6 0 8 11 4 25 -6 23 -4 25 17 17 13 -5 32 -8 42 -6z m-2038 -6 c3 -5 4 -10 1 -10 -3 0 -8 5 -11 10 -3 6 -4 10 -1 10 3 0 8 -4 11 -10z m-149 -122 c-23 -32 -21 -34 24 -30 25 3 40 0 40 -7 0 -6 -6 -10 -12 -8 -7 1 -12 -4 -10 -10 1 -7 -3 -13 -9 -13 -6 0 -9 -6 -6 -14 4 -10 0 -12 -13 -9 -11 3 -22 15 -26 27 -11 32 -12 76 -2 70 4 -3 11 2 14 11 4 9 9 14 11 11 3 -3 -2 -15 -11 -28z m-49 -78 c-3 -11 -1 -20 4 -20 5 0 9 -6 9 -14 0 -8 8 -22 17 -31 18 -19 24 -65 8 -65 -5 0 -4 -4 2 -8 9 -6 10 -18 3 -42 -20 -77 -32 -225 -28 -329 2 -61 1 -111 -4 -111 -4 0 -8 -13 -8 -30 0 -16 -4 -30 -10 -30 -5 0 -10 -9 -10 -19 0 -10 -7 -22 -15 -25 -9 -3 -15 -1 -14 7 1 6 1 21 0 32 -1 17 -3 18 -11 5 -8 -12 -10 -12 -10 5 0 11 -3 30 -6 43 -5 16 -2 22 10 22 10 0 16 8 15 23 0 21 -1 21 -10 2 -8 -17 -8 -16 -3 5 3 14 7 100 9 192 2 93 7 172 10 178 3 5 1 10 -4 10 -23 0 0 117 26 133 7 4 13 13 13 20 0 7 -4 6 -10 -3 -13 -20 -13 0 1 39 12 34 24 43 16 11z m81 -55 c-3 -3 -9 2 -12 12 -6 14 -5 15 5 6 7 -7 10 -15 7 -18z m2212 -29 c0 -3 -4 -8 -10 -11 -5 -3 -10 -1 -10 4 0 6 5 11 10 11 6 0 10 -2 10 -4z m27 -28 c-3 -8 -6 -5 -6 6 -1 11 2 17 5 13 3 -3 4 -12 1 -19z m-1378 -12 c21 -25 -14 -67 -41 -50 -6 4 -9 1 -6 -7 3 -8 15 -14 27 -13 11 0 21 -3 21 -8 0 -5 -12 -8 -27 -6 -24 2 -29 8 -31 36 -2 19 -1 40 2 48 7 18 40 18 55 0z m76 -36 c0 -41 -2 -45 -25 -45 -21 0 -26 5 -28 33 -5 47 4 64 30 60 20 -3 23 -9 23 -48z m83 21 c4 -26 -15 -44 -36 -36 -8 3 -12 0 -9 -7 2 -7 14 -13 26 -12 11 0 21 -3 21 -8 0 -5 -12 -8 -27 -6 -24 2 -29 8 -31 36 -5 47 4 64 30 60 15 -2 24 -11 26 -27z m83 13 c17 -21 -1 -50 -31 -46 -14 1 -20 -2 -17 -10 2 -7 14 -13 26 -12 11 0 21 -3 21 -8 0 -5 -12 -8 -27 -6 -24 2 -29 8 -31 36 -2 19 -1 40 2 48 7 19 40 18 57 -2z m61 9 l-23 -4 25 -30 c14 -17 23 -36 19 -45 -7 -19 -55 -15 -61 6 -4 12 -2 13 9 3 7 -7 19 -13 26 -13 21 0 15 25 -12 50 -33 31 -32 40 8 39 23 -1 26 -3 9 -6z m97 -31 c-5 -2 -9 -18 -9 -35 l-1 -32 -24 30 c-30 36 -32 55 -5 55 11 0 20 5 20 12 0 6 6 3 14 -8 8 -10 10 -20 5 -22z m81 23 c6 -8 8 -20 4 -27 -5 -7 -7 -23 -5 -36 2 -20 -1 -23 -25 -20 -25 3 -29 8 -31 38 -1 19 0 41 2 48 6 17 40 15 55 -3z m67 8 l-28 -4 25 -30 c14 -17 23 -36 19 -45 -7 -19 -55 -15 -61 6 -4 12 -2 13 9 3 7 -7 19 -13 26 -13 21 0 15 25 -12 50 -34 32 -31 40 13 39 30 -2 32 -3 9 -6z m808 -23 c3 -5 4 -10 1 -10 -3 0 -8 5 -11 10 -3 6 -4 10 -1 10 3 0 8 -4 11 -10z m94 -74 c-5 -6 -3 -16 6 -26 22 -25 34 -317 14 -325 -8 -3 -16 -18 -17 -32 -1 -15 -9 -31 -17 -36 -21 -11 -19 -24 5 -30 11 -3 20 -11 20 -19 0 -10 -3 -9 -10 2 -6 10 -10 11 -10 3 0 -7 -8 -13 -17 -13 -15 0 -16 -2 -3 -10 13 -8 12 -10 -2 -10 -10 0 -18 -3 -18 -6 0 -4 8 -13 18 -20 16 -12 16 -13 -3 -20 -38 -14 -47 -49 -15 -59 29 -9 25 -23 -5 -17 -28 5 -34 -12 -8 -22 15 -6 15 -8 3 -17 -11 -8 -12 -12 -3 -15 20 -9 -8 -32 -32 -26 -20 4 -20 4 0 -12 20 -16 20 -16 -2 -22 -13 -3 -23 -14 -23 -23 0 -14 2 -14 10 -1 5 8 10 11 10 5 0 -14 -20 -42 -20 -30 -1 6 -6 -1 -11 -15 -7 -16 -7 -26 0 -28 12 -4 -13 -54 -72 -139 -52 -76 -71 -89 -103 -72 -31 16 -31 58 -1 96 34 41 80 113 100 156 10 20 24 37 32 37 7 0 16 9 20 19 3 11 12 22 20 25 15 6 21 36 7 36 -4 0 -8 10 -9 23 -2 21 -1 21 12 4 12 -17 15 -14 30 35 22 73 32 173 17 164 -7 -4 -12 -3 -12 2 0 5 9 12 20 15 17 4 20 13 19 56 -1 28 -6 51 -11 51 -11 0 -9 179 2 205 5 12 9 14 9 6 1 -8 4 -11 8 -8 3 4 -2 17 -13 29 -10 12 -13 18 -5 13 15 -8 13 20 -4 103 -7 29 -5 32 16 32 17 0 20 -3 10 -9 -18 -12 -5 -51 17 -51 14 0 17 8 15 43 l-2 42 9 -40 c4 -23 4 -44 -1 -49z m-88 31 c-10 -9 -11 -8 -5 6 3 10 9 15 12 12 3 -3 0 -11 -7 -18z m10 -44 c-12 -20 -14 -14 -5 12 4 9 9 14 11 11 3 -2 0 -13 -6 -23z m6 -40 c-4 -3 -7 0 -7 7 0 7 3 10 7 7 3 -4 3 -10 0 -14z m-1383 -29 c18 -18 18 -17 10 -38 -3 -9 -17 -16 -30 -16 -25 0 -32 -14 -14 -25 6 -4 18 -1 27 7 14 11 15 11 11 -2 -6 -20 -38 -25 -49 -8 -13 19 -11 72 3 86 16 16 23 15 42 -4z m80 0 c9 -8 13 -20 10 -26 -4 -6 -7 -23 -8 -37 -1 -21 -6 -26 -25 -26 -13 0 -27 7 -29 15 -4 13 -3 13 11 2 20 -17 43 -6 27 13 -8 9 -8 15 0 20 5 3 10 13 10 22 0 11 -7 14 -25 11 -20 -4 -23 -3 -14 8 15 18 24 18 43 -2z m72 8 c19 -13 23 -41 8 -57 -9 -8 -20 -13 -25 -10 -5 4 -9 -1 -9 -9 0 -8 10 -17 23 -19 20 -4 19 -4 -4 -6 -16 0 -29 5 -33 15 -12 31 -7 41 19 36 21 -3 25 0 25 18 0 18 -4 21 -25 18 -26 -5 -35 6 -12 15 17 8 21 8 33 -1z m241 0 c39 -25 15 -120 -24 -96 -21 13 -29 69 -12 90 13 16 19 17 36 6z m87 -8 c20 -19 20 -54 2 -80 -12 -15 -18 -17 -33 -8 -21 13 -29 69 -12 90 15 18 24 18 43 -2z m-1477 -11 c-4 -3 -7 0 -7 7 0 7 3 10 7 7 3 -4 3 -10 0 -14z m1269 -3 c19 0 34 5 34 10 0 6 6 5 14 -2 8 -7 10 -15 6 -18 -5 -3 -10 -21 -12 -40 l-3 -35 -25 37 c-32 48 -48 48 -52 1 l-3 -38 -28 40 -27 40 25 3 c14 2 25 9 26 15 0 9 2 8 6 0 2 -7 20 -13 39 -13z m281 -30 l22 -50 -37 1 c-23 1 -29 3 -14 6 26 5 27 9 7 57 -23 55 -3 42 22 -14z m-1547 10 c0 -5 -4 -10 -10 -10 -5 0 -10 5 -10 10 0 6 5 10 10 10 6 0 10 -4 10 -10z m970 -147 c0 -10 9 -33 20 -50 l20 -33 -38 1 c-23 1 -28 3 -14 6 26 5 26 2 7 46 -18 43 -18 47 -5 47 6 0 10 -8 10 -17z m86 -15 c6 -18 14 -41 19 -50 6 -15 2 -18 -26 -17 -24 1 -27 3 -11 6 26 5 26 2 7 46 -17 41 -18 47 -7 47 4 0 12 -15 18 -32z m103 15 c11 -21 -3 -53 -24 -53 -23 0 -17 -18 8 -23 15 -4 12 -5 -8 -4 -23 2 -31 7 -33 25 -3 20 0 23 17 17 15 -4 23 -1 27 10 10 24 -11 41 -31 25 -8 -7 -15 -8 -15 -3 0 27 44 32 59 6z m81 2 c6 -8 8 -20 4 -27 -5 -7 -7 -23 -6 -34 4 -28 -26 -40 -47 -19 -15 15 -14 16 12 10 31 -8 37 8 10 24 -17 10 -17 10 0 11 19 0 23 25 7 35 -6 4 -17 1 -25 -5 -8 -7 -15 -8 -15 -3 0 26 40 32 60 8z m80 -6 c13 -23 5 -70 -13 -81 -21 -13 -47 11 -47 45 0 54 39 77 60 36z m80 0 c13 -23 5 -70 -13 -81 -21 -13 -47 11 -47 45 0 54 39 77 60 36z m80 2 c14 -28 12 -57 -6 -75 -24 -24 -54 -4 -54 37 0 53 39 77 60 38z m70 -31 c0 -52 -8 -61 -31 -33 -10 11 -10 14 -1 9 9 -5 12 4 12 33 0 23 5 41 10 41 6 0 10 -22 10 -50z m832 -85 c-6 -34 -12 -32 -12 6 0 16 4 28 9 25 4 -3 6 -17 3 -31z m-1382 -60 c6 -8 8 -20 4 -27 -5 -7 -8 -22 -9 -33 0 -15 -7 -20 -25 -20 -21 0 -25 5 -27 35 -1 19 0 41 2 48 6 17 40 15 55 -3z m75 -35 c0 -41 -2 -45 -25 -45 -21 0 -26 5 -28 33 -5 47 4 64 30 60 20 -3 23 -9 23 -48z m83 21 c4 -26 -15 -44 -36 -36 -8 3 -12 0 -9 -7 2 -7 14 -13 26 -12 13 0 18 -3 12 -9 -19 -19 -46 -3 -49 32 -5 46 4 63 30 59 15 -2 24 -11 26 -27z m82 14 c16 -19 6 -45 -20 -52 -27 -7 -25 -21 3 -26 19 -4 18 -4 -5 -6 -16 0 -28 3 -28 8 0 5 -3 17 -6 25 -5 12 -1 16 17 14 18 -2 25 3 27 20 4 24 -16 30 -36 10 -7 -7 -12 -8 -12 -2 0 27 40 33 60 9z m82 -10 c16 -36 -4 -78 -35 -73 -32 4 -31 52 1 56 29 4 22 28 -7 25 -13 -2 -20 1 -16 7 12 19 45 10 57 -15z m80 0 c15 -33 -3 -75 -32 -75 -23 0 -36 36 -26 75 4 16 13 25 26 25 12 0 25 -10 32 -25z m82 -8 c7 -19 7 -34 0 -45 -15 -24 -52 -28 -61 -6 -8 22 10 50 32 46 11 -2 15 2 12 10 -2 7 -14 12 -26 11 -14 -2 -20 1 -16 8 13 19 49 5 59 -24z m81 13 c8 -27 -13 -53 -37 -46 -12 3 -18 0 -15 -7 2 -7 14 -12 26 -11 11 0 21 -3 21 -8 0 -4 -11 -8 -25 -8 -28 0 -42 33 -31 75 8 32 51 35 61 5z m-1488 -17 c-4 -3 -7 0 -7 7 0 7 3 10 7 7 3 -4 3 -10 0 -14z m2281 -44 c-13 -37 -17 -34 -11 8 3 18 9 30 14 28 4 -3 3 -19 -3 -36z m-2249 -29 c0 -9 -4 -8 -9 5 -5 11 -9 15 -9 8 -1 -6 8 -28 20 -47 22 -38 30 -133 12 -144 -6 -4 -12 -16 -14 -26 -2 -11 -11 -21 -19 -23 -10 -3 -11 -2 -3 4 8 6 8 12 -1 25 -7 10 -15 15 -18 12 -8 -8 -41 94 -34 105 3 5 7 29 7 55 2 38 6 46 21 46 10 0 22 8 25 17 6 15 7 15 14 -3 4 -10 8 -26 8 -34z m2241 -40 c0 -5 -2 -10 -4 -10 -3 0 -8 5 -11 10 -3 6 -1 10 4 10 6 0 11 -4 11 -10z m-45 -110 c3 -5 4 -10 1 -10 -3 0 -8 5 -11 10 -3 6 -4 10 -1 10 3 0 8 -4 11 -10z m-2125 -46 c0 -2 -9 0 -20 6 -11 6 -20 13 -20 16 0 2 9 0 20 -6 11 -6 20 -13 20 -16z m0 -34 c-10 -6 -11 -10 -2 -10 6 0 11 -3 10 -7 -2 -5 0 -8 4 -8 16 0 36 -40 28 -55 -5 -9 -5 -22 0 -30 6 -10 9 -7 12 10 3 21 7 17 35 -28 18 -30 27 -52 20 -52 -8 0 -8 -3 -2 -8 6 -4 10 -13 9 -19 -1 -7 -2 -18 -3 -24 0 -6 -16 -2 -35 10 -18 12 -40 21 -49 21 -9 0 -19 5 -23 12 -4 7 -3 8 4 4 7 -4 12 -1 12 8 0 8 -5 18 -10 21 -6 4 -8 15 -5 26 4 11 2 19 -5 19 -8 0 -11 -11 -8 -32 4 -28 4 -29 -8 -13 -9 12 -10 23 -4 36 12 21 3 49 -15 49 -18 0 -40 54 -29 72 3 4 22 8 42 8 28 0 33 -3 22 -10z m-30 -86 c0 -8 -19 -13 -24 -6 -3 5 1 9 9 9 8 0 15 -2 15 -3z m80 -128 c0 -3 -5 -8 -12 -12 -7 -4 -8 -3 -4 4 7 12 16 16 16 8z m48 -56 c12 -23 11 -23 -12 3 -15 15 -26 33 -26 38 0 13 21 -10 38 -41z m137 -26 c33 -30 51 -52 41 -48 -13 5 -17 4 -12 -4 4 -7 13 -12 21 -12 11 0 12 -6 4 -30 -6 -16 -15 -30 -20 -30 -4 0 -6 -8 -3 -17 2 -10 -1 -7 -8 7 -16 31 -38 55 -38 41 0 -20 -18 -11 -62 30 -23 23 -35 36 -25 29 21 -15 22 -7 2 23 -13 21 -13 24 4 39 14 12 23 13 37 5 17 -9 18 -9 5 6 -25 31 -7 18 54 -39z m100 -102 c-3 -3 -11 0 -18 7 -9 10 -8 11 6 5 10 -3 15 -9 12 -12z m34 -29 c1 23 23 17 27 -6 1 -9 -2 -15 -7 -11 -5 3 -9 1 -9 -5 0 -5 9 -13 20 -16 24 -7 27 -45 4 -45 -9 0 -12 -5 -8 -12 5 -10 4 -10 -6 -1 -7 6 -18 9 -25 7 -7 -3 -19 4 -27 15 -8 12 -18 18 -23 13 -5 -4 -5 -1 -1 6 4 7 13 9 19 6 9 -5 9 -4 1 5 -6 7 -19 13 -28 15 -26 4 -16 20 18 31 25 8 32 7 38 -5 5 -12 7 -12 7 3z m1386 -24 c13 -19 -4 -54 -34 -72 -33 -20 -48 -19 -43 0 2 7 -4 13 -13 13 -9 0 -14 -4 -11 -9 4 -5 -5 -4 -18 2 -23 11 -24 13 -8 30 15 17 15 17 -4 12 -10 -3 6 7 36 23 54 30 78 30 95 1z m-1320 -9 c3 -6 -1 -7 -9 -4 -18 7 -21 14 -7 14 6 0 13 -4 16 -10z m217 -89 c20 -7 39 -18 42 -26 3 -8 12 -15 21 -15 8 0 15 -9 15 -20 0 -13 7 -20 20 -20 11 0 20 7 20 15 0 8 5 15 11 15 5 0 7 -4 4 -10 -3 -5 1 -10 9 -10 9 0 16 6 16 13 0 9 3 8 9 -2 7 -10 10 -10 13 -1 2 7 11 -2 20 -21 19 -38 16 -49 -16 -49 -12 0 -26 -4 -31 -9 -12 -11 -55 4 -55 19 0 6 -4 8 -10 5 -5 -3 -10 -1 -10 6 0 10 -3 10 -12 1 -7 -7 -19 -12 -28 -12 -12 1 -12 3 3 11 19 11 14 29 -9 29 -8 0 -13 -4 -9 -10 3 -5 -7 -3 -22 5 -17 9 -31 11 -37 5 -5 -5 -25 -2 -50 8 -58 23 -93 42 -78 42 7 0 10 5 6 11 -3 6 -17 9 -30 6 -17 -3 -28 3 -41 22 -15 24 -15 25 0 12 10 -7 17 -9 17 -3 0 5 9 8 20 5 14 -4 20 0 20 12 0 13 6 16 21 12 17 -5 18 -3 7 10 -7 9 12 3 47 -14 33 -17 76 -36 97 -42z m948 45 c0 -2 -7 -7 -16 -10 -8 -3 -12 -2 -9 4 6 10 25 14 25 6z m-45 -16 c-3 -5 3 -10 13 -10 24 0 36 -36 15 -44 -8 -3 -11 -11 -7 -18 4 -7 4 -10 -1 -6 -4 4 -14 3 -22 -3 -10 -9 -13 -8 -13 0 0 7 -4 9 -10 6 -5 -3 -10 -14 -10 -24 0 -13 -24 -25 -97 -49 -53 -18 -99 -29 -102 -25 -3 5 -25 9 -48 11 -37 2 -43 0 -43 -18 0 -12 -7 -20 -17 -20 -15 0 -16 2 -3 10 12 8 9 10 -12 10 -16 0 -28 -4 -28 -10 0 -6 -37 -10 -90 -10 -60 0 -90 4 -90 11 0 7 -10 9 -24 7 -15 -3 -27 0 -30 8 -3 8 -1 14 4 14 6 0 10 7 10 15 0 8 9 15 20 15 11 0 20 6 20 13 0 8 22 12 78 11 137 -1 152 -3 152 -19 0 -22 17 -18 23 6 3 12 10 18 15 15 6 -3 12 1 15 9 3 7 22 17 41 21 20 3 73 19 118 36 46 16 89 30 96 30 6 1 12 5 12 10 0 4 5 8 11 8 5 0 7 -4 4 -10z m105 -24 c0 -2 -7 -7 -16 -10 -8 -3 -12 -2 -9 4 6 10 25 14 25 6z m-900 -40 c0 -3 -5 -8 -12 -12 -7 -4 -8 -3 -4 4 7 12 16 16 16 8z m195 -46 c18 -8 17 -9 -7 -9 -16 -1 -28 4 -28 9 0 12 8 12 35 0z m-118 -67 c-4 -3 -10 -3 -14 0 -3 4 0 7 7 7 7 0 10 -3 7 -7z m60 1 c-3 -3 -12 -4 -19 -1 -8 3 -5 6 6 6 11 1 17 -2 13 -5z m380 -11 c-4 -3 -10 -3 -14 0 -3 4 0 7 7 7 7 0 10 -3 7 -7z m-370 -10 c-4 -3 -10 -3 -14 0 -3 4 0 7 7 7 7 0 10 -3 7 -7z"/>
<path d="M2070 2640 c0 -7 3 -10 7 -7 3 4 3 10 0 14 -4 3 -7 0 -7 -7z"/>
<path d="M2330 2570 c0 -7 3 -10 7 -7 3 4 3 10 0 14 -4 3 -7 0 -7 -7z"/>
<path d="M2383 2533 c4 -3 10 -3 14 0 3 4 0 7 -7 7 -7 0 -10 -3 -7 -7z"/>
<path d="M2590 2316 c0 -2 7 -7 16 -10 8 -3 12 -2 9 4 -6 10 -25 14 -25 6z"/>
<path d="M2661 2214 c0 -11 3 -14 6 -6 3 7 2 16 -1 19 -3 4 -6 -2 -5 -13z"/>
<path d="M2660 2090 c0 -7 3 -10 7 -7 3 4 3 10 0 14 -4 3 -7 0 -7 -7z"/>
<path d="M371 1774 c0 -11 3 -14 6 -6 3 7 2 16 -1 19 -3 4 -6 -2 -5 -13z"/>
<path d="M2698 1093 c7 -3 16 -2 19 1 4 3 -2 6 -13 5 -11 0 -14 -3 -6 -6z"/>
<path d="M2570 860 c0 -7 3 -10 7 -7 3 4 3 10 0 14 -4 3 -7 0 -7 -7z"/>
<path d="M2544 818 c-4 -7 -3 -8 4 -4 12 7 16 16 8 16 -3 0 -8 -5 -12 -12z"/>
<path d="M430 1120 c0 -7 3 -10 7 -7 3 4 3 10 0 14 -4 3 -7 0 -7 -7z"/>
<path d="M555 990 c3 -5 8 -10 11 -10 3 0 2 5 -1 10 -3 6 -8 10 -11 10 -3 0 -2 -4 1 -10z"/>
<path d="M885 550 c3 -5 10 -10 16 -10 5 0 9 5 9 10 0 6 -7 10 -16 10 -8 0 -12 -4 -9 -10z"/>
<path d="M1325 370 c3 -5 8 -10 11 -10 2 0 4 5 4 10 0 6 -5 10 -11 10 -5 0 -7 -4 -4 -10z"/>
<path d="M1703 403 c9 -2 25 -2 35 0 9 3 1 5 -18 5 -19 0 -27 -2 -17 -5z"/>
</g>
<g id="layer106" fill="#a0a0a2" stroke="none">
<path d="M0 2055 l0 -2055 6000 0 6000 0 0 2055 0 2055 -6000 0 -6000 0 0 -2055z m5750 825 c130 -14 227 -45 330 -107 107 -64 107 -51 1 -157 l-94 -94 -38 23 c-94 60 -256 88 -385 66 -191 -32 -339 -175 -384 -370 -18 -77 -16 -233 5 -310 62 -239 227 -372 457 -370 127 1 198 31 237 99 33 58 30 169 -6 241 -51 99 -105 120 -330 126 l-163 5 0 124 0 124 78 0 c108 0 277 -17 347 -35 92 -24 199 -79 255 -131 95 -89 150 -254 136 -410 -19 -226 -152 -349 -421 -390 -159 -24 -298 -14 -426 32 -97 35 -153 69 -226 138 -178 166 -265 404 -250 685 11 199 70 349 188 475 134 144 286 216 498 236 42 4 81 8 86 8 6 1 53 -3 105 -8z m4378 -21 c40 -10 94 -28 120 -39 53 -24 172 -99 172 -109 0 -3 -42 -48 -93 -99 -78 -77 -96 -91 -105 -79 -23 27 -131 68 -211 79 -262 38 -472 -95 -536 -342 -23 -86 -24 -263 -2 -347 45 -175 161 -296 322 -338 123 -32 259 -16 376 43 l76 38 89 -94 88 -95 -29 -23 c-52 -42 -182 -104 -262 -126 -105 -28 -297 -30 -398 -4 -265 69 -469 269 -551 541 -23 79 -26 107 -26 230 0 111 4 157 21 220 100 373 408 593 796 568 44 -3 113 -14 153 -24z m-5877 -29 c161 -35 261 -106 316 -225 26 -55 28 -70 28 -180 0 -112 -2 -124 -29 -178 -62 -127 -122 -163 -454 -271 -288 -94 -326 -117 -354 -209 -17 -56 9 -103 77 -137 50 -25 51 -25 378 -28 l328 -3 -3 -132 -3 -132 -330 0 c-281 1 -340 3 -395 18 -149 40 -260 119 -310 222 -21 44 -25 64 -25 160 0 105 2 114 33 177 38 79 121 160 203 200 50 24 130 52 341 117 153 48 240 104 257 168 21 77 -20 139 -112 170 -44 14 -105 17 -389 21 l-338 3 0 130 0 129 348 0 c304 0 358 -3 433 -20z m3507 -507 c-4 -576 -4 -576 -65 -703 -35 -72 -141 -178 -214 -213 -128 -62 -183 -69 -546 -74 l-333 -5 0 135 0 136 313 3 c295 3 315 5 367 26 65 26 130 86 158 145 37 79 42 138 42 483 l0 336 -267 -4 c-230 -4 -276 -7 -322 -23 -111 -39 -162 -135 -131 -247 44 -156 314 -214 528 -113 l72 34 0 -139 0 -139 -52 -15 c-95 -27 -200 -39 -303 -33 -244 15 -422 112 -496 271 -27 59 -33 83 -37 166 -10 205 62 341 225 428 123 65 169 70 641 71 l423 1 -3 -527z m582 31 c0 -580 3 -610 74 -680 64 -65 109 -74 363 -74 l213 0 0 -137 0 -136 -247 6 c-260 7 -312 14 -427 65 -69 31 -158 121 -190 192 -57 127 -59 149 -63 728 l-4 532 140 0 141 0 0 -496z m2640 -129 l0 -625 209 0 c180 0 218 3 273 20 120 37 184 118 207 261 7 38 11 250 11 517 l0 452 141 0 141 0 -5 -522 c-5 -564 -9 -608 -62 -726 -29 -63 -110 -146 -182 -185 -108 -58 -306 -87 -594 -87 l-139 0 0 -345 0 -345 -140 0 -140 0 0 1105 0 1105 140 0 140 0 0 -625z m-9230 600 c355 -58 665 -239 864 -505 78 -105 152 -265 185 -400 28 -118 34 -177 35 -330 1 -256 -36 -397 -167 -644 -29 -53 -102 -154 -121 -166 -15 -9 -24 -9 -42 1 -31 16 -31 58 -1 96 94 114 172 285 213 468 25 109 25 375 1 490 -37 170 -96 307 -190 434 -159 218 -430 381 -751 452 -79 17 -295 18 -371 0 -457 -103 -784 -370 -908 -741 -61 -182 -85 -420 -56 -562 5 -29 15 -75 20 -103 21 -105 29 -130 80 -240 52 -112 109 -194 203 -288 77 -78 237 -197 264 -197 6 0 12 -3 14 -8 4 -9 150 -76 198 -91 19 -6 58 -18 85 -27 83 -26 251 -44 355 -38 168 10 317 55 486 145 110 58 112 59 134 41 36 -29 21 -60 -52 -108 -110 -71 -267 -133 -407 -159 -87 -17 -349 -20 -414 -5 -146 33 -190 45 -261 72 -69 27 -151 66 -228 110 -64 37 -182 130 -245 194 -93 94 -141 159 -196 264 -66 129 -92 204 -126 378 -14 68 -14 389 -1 450 32 144 46 194 73 262 17 41 41 91 52 110 12 19 24 42 27 50 9 25 107 150 162 208 51 53 163 143 241 193 126 80 311 152 471 183 44 8 88 17 99 19 47 10 187 6 275 -8z m-391 -919 c21 -25 -14 -67 -41 -50 -6 4 -9 1 -6 -7 3 -8 15 -14 27 -13 11 0 21 -3 21 -8 0 -5 -12 -8 -27 -6 -24 2 -29 8 -31 36 -2 19 -1 40 2 48 7 18 40 18 55 0z m76 -36 c0 -41 -2 -45 -25 -45 -21 0 -26 5 -28 33 -5 47 4 64 30 60 20 -3 23 -9 23 -48z m83 21 c4 -26 -15 -44 -36 -36 -8 3 -12 0 -9 -7 2 -7 14 -13 26 -12 11 0 21 -3 21 -8 0 -5 -12 -8 -27 -6 -24 2 -29 8 -31 36 -5 47 4 64 30 60 15 -2 24 -11 26 -27z m83 13 c17 -21 -1 -50 -31 -46 -14 1 -20 -2 -17 -10 2 -7 14 -13 26 -12 11 0 21 -3 21 -8 0 -5 -12 -8 -27 -6 -24 2 -29 8 -31 36 -2 19 -1 40 2 48 7 19 40 18 57 -2z m61 9 l-23 -4 25 -30 c14 -17 23 -36 19 -45 -7 -19 -55 -15 -61 6 -4 12 -2 13 9 3 7 -7 19 -13 26 -13 21 0 15 25 -12 50 -33 31 -32 40 8 39 23 -1 26 -3 9 -6z m97 -31 c-5 -2 -9 -18 -9 -35 l-1 -32 -24 30 c-30 36 -32 55 -5 55 11 0 20 5 20 12 0 6 6 3 14 -8 8 -10 10 -20 5 -22z m81 23 c6 -8 8 -20 4 -27 -5 -7 -7 -23 -5 -36 2 -20 -1 -23 -25 -20 -25 3 -29 8 -31 38 -1 19 0 41 2 48 6 17 40 15 55 -3z m67 8 l-28 -4 25 -30 c14 -17 23 -36 19 -45 -7 -19 -55 -15 -61 6 -4 12 -2 13 9 3 7 -7 19 -13 26 -13 21 0 15 25 -12 50 -34 32 -31 40 13 39 30 -2 32 -3 9 -6z m-553 -179 c18 -18 18 -17 10 -38 -3 -9 -17 -16 -30 -16 -25 0 -32 -14 -14 -25 6 -4 18 -1 27 7 14 11 15 11 11 -2 -6 -20 -38 -25 -49 -8 -13 19 -11 72 3 86 16 16 23 15 42 -4z m80 0 c9 -8 13 -20 10 -26 -4 -6 -7 -23 -8 -37 -1 -21 -6 -26 -25 -26 -13 0 -27 7 -29 15 -4 13 -3 13 11 2 20 -17 43 -6 27 13 -8 9 -8 15 0 20 5 3 10 13 10 22 0 11 -7 14 -25 11 -20 -4 -23 -3 -14 8 15 18 24 18 43 -2z m72 8 c19 -13 23 -41 8 -57 -9 -8 -20 -13 -25 -10 -5 4 -9 -1 -9 -9 0 -8 10 -17 23 -19 20 -4 19 -4 -4 -6 -16 0 -29 5 -33 15 -12 31 -7 41 19 36 21 -3 25 0 25 18 0 18 -4 21 -25 18 -26 -5 -35 6 -12 15 17 8 21 8 33 -1z m241 0 c39 -25 15 -120 -24 -96 -21 13 -29 69 -12 90 13 16 19 17 36 6z m87 -8 c20 -19 20 -54 2 -80 -12 -15 -18 -17 -33 -8 -21 13 -29 69 -12 90 15 18 24 18 43 -2z m-208 -14 c19 0 34 5 34 10 0 6 6 5 14 -2 8 -7 10 -15 6 -18 -5 -3 -10 -21 -12 -40 l-3 -35 -25 37 c-32 48 -48 48 -52 1 l-3 -38 -28 40 -27 40 25 3 c14 2 25 9 26 15 0 9 2 8 6 0 2 -7 20 -13 39 -13z m281 -30 l22 -50 -37 1 c-23 1 -29 3 -14 6 26 5 27 9 7 57 -23 55 -3 42 22 -14z m-577 -137 c0 -10 9 -33 20 -50 l20 -33 -38 1 c-23 1 -28 3 -14 6 26 5 26 2 7 46 -18 43 -18 47 -5 47 6 0 10 -8 10 -17z m86 -15 c6 -18 14 -41 19 -50 6 -15 2 -18 -26 -17 -24 1 -27 3 -11 6 26 5 26 2 7 46 -17 41 -18 47 -7 47 4 0 12 -15 18 -32z m103 15 c11 -21 -3 -53 -24 -53 -23 0 -17 -18 8 -23 15 -4 12 -5 -8 -4 -23 2 -31 7 -33 25 -3 20 0 23 17 17 15 -4 23 -1 27 10 10 24 -11 41 -31 25 -8 -7 -15 -8 -15 -3 0 27 44 32 59 6z m81 2 c6 -8 8 -20 4 -27 -5 -7 -7 -23 -6 -34 4 -28 -26 -40 -47 -19 -15 15 -14 16 12 10 31 -8 37 8 10 24 -17 10 -17 10 0 11 19 0 23 25 7 35 -6 4 -17 1 -25 -5 -8 -7 -15 -8 -15 -3 0 26 40 32 60 8z m80 -6 c13 -23 5 -70 -13 -81 -21 -13 -47 11 -47 45 0 54 39 77 60 36z m80 0 c13 -23 5 -70 -13 -81 -21 -13 -47 11 -47 45 0 54 39 77 60 36z m80 2 c14 -28 12 -57 -6 -75 -24 -24 -54 -4 -54 37 0 53 39 77 60 38z m70 -31 c0 -52 -8 -61 -31 -33 -10 11 -10 14 -1 9 9 -5 12 4 12 33 0 23 5 41 10 41 6 0 10 -22 10 -50z m-550 -145 c6 -8 8 -20 4 -27 -5 -7 -8 -22 -9 -33 0 -15 -7 -20 -25 -20 -21 0 -25 5 -27 35 -1 19 0 41 2 48 6 17 40 15 55 -3z m75 -35 c0 -41 -2 -45 -25 -45 -21 0 -26 5 -28 33 -5 47 4 64 30 60 20 -3 23 -9 23 -48z m83 21 c4 -26 -15 -44 -36 -36 -8 3 -12 0 -9 -7 2 -7 14 -13 26 -12 13 0 18 -3 12 -9 -19 -19 -46 -3 -49 32 -5 46 4 63 30 59 15 -2 24 -11 26 -27z m82 14 c16 -19 6 -45 -20 -52 -27 -7 -25 -21 3 -26 19 -4 18 -4 -5 -6 -16 0 -28 3 -28 8 0 5 -3 17 -6 25 -5 12 -1 16 17 14 18 -2 25 3 27 20 4 24 -16 30 -36 10 -7 -7 -12 -8 -12 -2 0 27 40 33 60 9z m82 -10 c16 -36 -4 -78 -35 -73 -32 4 -31 52 1 56 29 4 22 28 -7 25 -13 -2 -20 1 -16 7 12 19 45 10 57 -15z m80 0 c15 -33 -3 -75 -32 -75 -23 0 -36 36 -26 75 4 16 13 25 26 25 12 0 25 -10 32 -25z m82 -8 c7 -19 7 -34 0 -45 -15 -24 -52 -28 -61 -6 -8 22 10 50 32 46 11 -2 15 2 12 10 -2 7 -14 12 -26 11 -14 -2 -20 1 -16 8 13 19 49 5 59 -24z m81 13 c8 -27 -13 -53 -37 -46 -12 3 -18 0 -15 -7 2 -7 14 -12 26 -11 11 0 21 -3 21 -8 0 -4 -11 -8 -25 -8 -28 0 -42 33 -31 75 8 32 51 35 61 5z"/>
<path d="M1315 1900 c-8 -13 14 -42 26 -34 5 3 9 14 9 25 0 20 -24 26 -35 9z"/>
<path d="M1394 1897 c-10 -27 0 -62 19 -65 16 -3 18 2 15 34 -3 39 -24 57 -34 31z"/>
<path d="M1475 1900 c-10 -16 16 -43 28 -31 11 11 2 41 -12 41 -5 0 -13 -5 -16 -10z"/>
<path d="M1555 1900 c-8 -13 14 -42 26 -34 5 3 9 14 9 25 0 20 -24 26 -35 9z"/>
<path d="M1710 1876 c0 -2 7 -9 15 -16 12 -10 15 -10 15 4 0 9 -7 16 -15 16 -8 0 -15 -2 -15 -4z"/>
<path d="M1795 1900 c-8 -14 3 -30 21 -30 8 0 14 9 14 20 0 21 -24 28 -35 10z"/>
<path d="M1714 1715 c-9 -22 5 -67 19 -62 7 2 13 20 15 40 2 28 0 37 -13 37 -8 0 -18 -7 -21 -15z"/>
<path d="M1794 1715 c-9 -22 5 -67 19 -62 7 2 13 20 15 40 2 28 0 37 -13 37 -8 0 -18 -7 -21 -15z"/>
<path d="M1634 1547 c-10 -27 0 -62 19 -65 16 -3 18 2 15 34 -3 39 -24 57 -34 31z"/>
<path d="M1714 1534 c-7 -28 6 -61 22 -56 14 3 11 75 -3 79 -7 3 -15 -8 -19 -23z"/>
<path d="M1795 1541 c-9 -28 3 -61 21 -61 11 0 14 9 12 37 -3 41 -23 55 -33 24z"/>
<path d="M1315 1370 c-8 -14 3 -30 21 -30 8 0 14 9 14 20 0 21 -24 28 -35 10z"/>
<path d="M1320 1316 c0 -9 7 -16 16 -16 17 0 14 22 -4 28 -7 2 -12 -3 -12 -12z"/>
<path d="M1715 1360 c-9 -27 3 -60 21 -60 10 0 14 12 14 40 0 43 -23 57 -35 20z"/>
<path d="M1795 1330 c-8 -14 3 -30 21 -30 8 0 14 9 14 20 0 21 -24 28 -35 10z"/>
<path d="M1875 1370 c-8 -14 3 -30 21 -30 8 0 14 9 14 20 0 21 -24 28 -35 10z"/>
</g>
<g id="layer107" fill="#fefefe" stroke="none">
<path d="M0 2055 l0 -2055 6000 0 6000 0 0 2055 0 2055 -6000 0 -6000 0 0 -2055z m3958 1912 c67 -68 122 -130 122 -138 0 -8 -233 -249 -518 -536 -574 -580 -543 -555 -608 -488 -18 19 -37 35 -41 35 -5 0 -50 -43 -102 -94 l-94 -94 70 -83 c81 -97 107 -137 184 -279 32 -59 89 -201 89 -220 0 -10 4 -21 9 -24 5 -3 11 -18 14 -33 2 -16 15 -73 27 -128 30 -132 34 -453 7 -580 -25 -115 -38 -167 -47 -190 -5 -11 -18 -47 -30 -80 -127 -355 -406 -667 -755 -847 -95 -49 -320 -128 -364 -128 -12 0 -30 -4 -40 -9 -9 -5 -83 -15 -163 -21 -638 -52 -1230 279 -1512 845 -75 149 -110 251 -148 420 -18 83 -18 511 0 580 7 28 20 77 29 110 18 71 87 253 118 310 88 162 162 262 285 386 219 220 481 364 790 431 127 28 473 31 590 5 281 -62 483 -156 687 -318 l76 -60 94 93 c51 51 93 96 93 100 0 5 -16 24 -36 43 -25 25 -34 42 -32 59 2 17 160 183 516 540 428 430 518 516 541 516 21 0 52 -25 149 -123z m1792 -1087 c130 -14 227 -45 330 -107 107 -64 107 -51 1 -157 l-94 -94 -38 23 c-94 60 -256 88 -385 66 -191 -32 -339 -175 -384 -370 -18 -77 -16 -233 5 -310 62 -239 227 -372 457 -370 127 1 198 31 237 99 33 58 30 169 -6 241 -51 99 -105 120 -330 126 l-163 5 0 124 0 124 78 0 c108 0 277 -17 347 -35 92 -24 199 -79 255 -131 95 -89 150 -254 136 -410 -19 -226 -152 -349 -421 -390 -159 -24 -298 -14 -426 32 -97 35 -153 69 -226 138 -178 166 -265 404 -250 685 11 199 70 349 188 475 134 144 286 216 498 236 42 4 81 8 86 8 6 1 53 -3 105 -8z m4378 -21 c40 -10 94 -28 120 -39 53 -24 172 -99 172 -109 0 -3 -42 -48 -93 -99 -78 -77 -96 -91 -105 -79 -23 27 -131 68 -211 79 -262 38 -472 -95 -536 -342 -23 -86 -24 -263 -2 -347 45 -175 161 -296 322 -338 123 -32 259 -16 376 43 l76 38 89 -94 88 -95 -29 -23 c-52 -42 -182 -104 -262 -126 -105 -28 -297 -30 -398 -4 -265 69 -469 269 -551 541 -23 79 -26 107 -26 230 0 111 4 157 21 220 100 373 408 593 796 568 44 -3 113 -14 153 -24z m-5877 -29 c161 -35 261 -106 316 -225 26 -55 28 -70 28 -180 0 -112 -2 -124 -29 -178 -62 -127 -122 -163 -454 -271 -288 -94 -326 -117 -354 -209 -17 -56 9 -103 77 -137 50 -25 51 -25 378 -28 l328 -3 -3 -132 -3 -132 -330 0 c-281 1 -340 3 -395 18 -149 40 -260 119 -310 222 -21 44 -25 64 -25 160 0 105 2 114 33 177 38 79 121 160 203 200 50 24 130 52 341 117 153 48 240 104 257 168 21 77 -20 139 -112 170 -44 14 -105 17 -389 21 l-338 3 0 130 0 129 348 0 c304 0 358 -3 433 -20z m3507 -507 c-4 -576 -4 -576 -65 -703 -35 -72 -141 -178 -214 -213 -128 -62 -183 -69 -546 -74 l-333 -5 0 135 0 136 313 3 c295 3 315 5 367 26 65 26 130 86 158 145 37 79 42 138 42 483 l0 336 -267 -4 c-230 -4 -276 -7 -322 -23 -111 -39 -162 -135 -131 -247 44 -156 314 -214 528 -113 l72 34 0 -139 0 -139 -52 -15 c-95 -27 -200 -39 -303 -33 -244 15 -422 112 -496 271 -27 59 -33 83 -37 166 -10 205 62 341 225 428 123 65 169 70 641 71 l423 1 -3 -527z m582 31 c0 -580 3 -610 74 -680 64 -65 109 -74 363 -74 l213 0 0 -137 0 -136 -247 6 c-260 7 -312 14 -427 65 -69 31 -158 121 -190 192 -57 127 -59 149 -63 728 l-4 532 140 0 141 0 0 -496z m2640 -129 l0 -625 209 0 c180 0 218 3 273 20 120 37 184 118 207 261 7 38 11 250 11 517 l0 452 141 0 141 0 -5 -522 c-5 -564 -9 -608 -62 -726 -29 -63 -110 -146 -182 -185 -108 -58 -306 -87 -594 -87 l-139 0 0 -345 0 -345 -140 0 -140 0 0 1105 0 1105 140 0 140 0 0 -625z m-5185 -1240 c48 -104 110 -239 137 -298 35 -76 47 -112 40 -119 -6 -6 -17 -8 -24 -6 -7 3 -49 85 -93 182 -44 97 -83 176 -86 176 -3 0 -42 -80 -86 -177 -64 -141 -85 -179 -102 -181 -13 -2 -21 2 -21 11 0 8 41 105 91 215 l91 201 -41 89 c-23 49 -41 94 -41 100 0 16 23 21 36 8 7 -6 51 -96 99 -201z m-2427 -1 c29 -14 53 -31 53 -37 1 -7 4 2 8 18 4 21 13 31 29 33 l22 3 -2 -218 c-3 -210 -4 -218 -23 -218 -19 0 -20 8 -25 155 -6 175 -10 189 -76 220 -85 42 -186 12 -220 -65 -5 -11 -11 -85 -14 -165 -5 -137 -6 -145 -25 -145 -19 0 -20 7 -20 155 0 145 2 157 23 192 58 93 169 122 270 72z m525 15 c21 -6 56 -26 78 -46 l39 -35 0 42 c0 37 2 41 23 38 21 -3 22 -8 25 -98 5 -139 -4 -192 -41 -247 -45 -67 -104 -98 -187 -98 -94 1 -161 40 -201 117 -93 181 69 382 264 327z m337 -162 l5 -159 37 -33 c68 -63 189 -54 240 18 21 29 23 47 28 182 5 142 6 150 25 150 19 0 20 -7 20 -157 l0 -156 -30 -43 c-54 -76 -154 -107 -239 -75 -24 9 -52 26 -62 37 l-19 21 -5 -28 c-4 -21 -11 -29 -25 -29 -19 0 -20 8 -23 218 l-2 218 22 -3 c23 -3 23 -6 28 -161z m718 141 c-2 -19 -11 -24 -46 -29 -28 -3 -52 -15 -70 -32 -26 -27 -27 -31 -30 -162 l-4 -134 64 -3 c55 -3 63 -5 63 -23 0 -18 -8 -20 -62 -23 l-63 -3 0 -74 c0 -67 -2 -75 -19 -75 -25 0 -31 19 -31 90 l0 59 -37 3 c-30 2 -38 7 -38 23 0 16 8 21 36 23 l36 3 5 138 c4 120 7 142 26 173 27 44 73 67 130 68 39 0 43 -2 40 -22z m172 -198 c0 -209 -1 -220 -19 -220 -10 0 -22 7 -25 16 -3 9 -6 100 -6 204 0 104 3 195 6 204 3 9 15 16 25 16 18 0 19 -11 19 -220z m388 198 c-2 -19 -11 -24 -46 -29 -28 -3 -52 -15 -70 -32 -26 -27 -27 -31 -30 -162 l-4 -134 64 -3 c55 -3 63 -5 63 -23 0 -18 -8 -20 -62 -23 l-63 -3 0 -74 c0 -67 -2 -75 -19 -75 -25 0 -31 19 -31 90 l0 59 -37 3 c-30 2 -38 7 -38 23 0 16 8 21 36 23 l37 3 4 137 c3 121 6 141 26 173 27 45 73 68 130 69 39 0 43 -2 40 -22z m-379 -532 c9 -11 10 -20 1 -36 -21 -39 -83 -7 -67 34 8 20 50 21 66 2z"/>
<path d="M3335 3504 c-253 -255 -461 -468 -463 -472 -3 -10 132 -142 145 -142 8 0 821 814 912 914 l25 27 -69 69 c-38 39 -74 70 -80 69 -5 0 -217 -209 -470 -465z"/>
<path d="M1380 3029 c-25 -6 -76 -17 -115 -25 -431 -94 -806 -397 -999 -809 -47 -100 -90 -239 -117 -380 -18 -91 -18 -379 -1 -465 28 -136 64 -261 97 -335 7 -16 22 -51 34 -77 32 -71 171 -274 240 -350 114 -124 294 -256 456 -332 325 -153 725 -177 1059 -64 223 76 400 183 559 337 152 146 249 290 347 516 60 137 100 354 100 542 0 218 -37 389 -128 592 -155 345 -412 597 -772 755 -75 32 -176 61 -305 87 -69 14 -400 20 -455 8z m370 -204 c355 -58 665 -239 864 -505 78 -105 152 -265 185 -400 28 -118 34 -177 35 -330 1 -256 -36 -397 -167 -644 -29 -53 -102 -154 -121 -166 -15 -9 -24 -9 -42 1 -31 16 -31 58 -1 96 94 114 172 285 213 468 25 109 25 375 1 490 -37 170 -96 307 -190 434 -159 218 -430 381 -751 452 -79 17 -295 18 -371 0 -457 -103 -784 -370 -908 -741 -61 -182 -85 -420 -56 -562 5 -29 15 -75 20 -103 21 -105 29 -130 80 -240 52 -112 109 -194 203 -288 77 -78 237 -197 264 -197 6 0 12 -3 14 -8 4 -9 150 -76 198 -91 19 -6 58 -18 85 -27 83 -26 251 -44 355 -38 168 10 317 55 486 145 110 58 112 59 134 41 36 -29 21 -60 -52 -108 -110 -71 -267 -133 -407 -159 -87 -17 -349 -20 -414 -5 -146 33 -190 45 -261 72 -69 27 -151 66 -228 110 -64 37 -182 130 -245 194 -93 94 -141 159 -196 264 -66 129 -92 204 -126 378 -14 68 -14 389 -1 450 32 144 46 194 73 262 17 41 41 91 52 110 12 19 24 42 27 50 9 25 107 150 162 208 51 53 163 143 241 193 126 80 311 152 471 183 44 8 88 17 99 19 47 10 187 6 275 -8z m-389 -921 c17 -21 -1 -49 -30 -48 -12 0 -20 -4 -18 -10 2 -6 14 -11 26 -10 11 0 21 -3 21 -8 0 -5 -12 -8 -27 -6 -24 2 -29 8 -31 36 -2 19 -1 40 2 48 7 19 40 18 57 -2z m81 -9 c16 -36 -4 -78 -35 -73 -17 2 -23 11 -25 36 -2 19 -1 40 2 48 9 23 45 16 58 -11z m77 6 c14 -25 -9 -57 -33 -48 -12 5 -16 3 -13 -5 2 -7 14 -13 26 -12 11 0 21 -3 21 -8 0 -5 -12 -8 -27 -6 -24 2 -29 8 -31 36 -2 19 -1 40 2 48 8 20 44 17 55 -5z m82 3 c17 -20 0 -49 -29 -48 -13 0 -18 -4 -15 -14 3 -8 14 -11 24 -9 11 3 19 1 19 -5 0 -5 -12 -8 -27 -6 -24 2 -29 8 -31 36 -2 19 -1 40 2 48 7 19 40 18 57 -2z m66 9 l-28 -4 25 -30 c14 -17 23 -36 19 -45 -7 -19 -55 -15 -61 6 -4 12 -2 13 9 3 7 -7 19 -13 26 -13 21 0 15 25 -12 50 -34 32 -31 40 13 39 30 -2 32 -3 9 -6z m92 -31 c-5 -2 -9 -18 -9 -35 l-1 -32 -29 34 c-31 36 -31 51 1 51 10 0 19 5 19 12 0 6 6 3 14 -8 8 -10 10 -20 5 -22z m83 26 c3 -7 3 -30 0 -51 -4 -34 -7 -38 -30 -35 -22 3 -27 8 -29 38 -3 49 3 60 31 60 13 0 26 -6 28 -12z m64 5 l-28 -5 27 -28 c34 -35 28 -63 -12 -58 -14 2 -28 10 -31 18 -4 12 -2 13 9 3 7 -7 19 -13 26 -13 21 0 15 25 -12 50 -34 32 -31 40 13 39 31 -2 33 -3 8 -6z m-546 -182 c14 -27 3 -49 -26 -53 -18 -2 -21 -7 -15 -17 8 -13 12 -13 27 0 15 12 17 12 12 -1 -6 -20 -38 -25 -49 -8 -5 7 -9 27 -9 44 0 50 39 73 60 35z m74 3 c18 -17 20 -27 9 -38 -4 -4 -8 -17 -8 -29 0 -17 -6 -22 -24 -22 -13 0 -27 7 -29 15 -5 13 -3 13 12 1 12 -10 20 -11 27 -4 8 8 7 13 0 17 -7 5 -7 13 1 26 16 25 3 38 -22 22 -16 -10 -20 -10 -20 2 0 13 13 23 32 25 4 1 14 -6 22 -15z m80 1 c21 -21 66 -20 67 3 1 16 2 16 6 0 3 -13 15 -18 39 -18 25 0 34 4 35 18 0 13 2 14 6 2 3 -8 11 -18 17 -22 8 -5 7 -8 -1 -8 -8 0 -13 -14 -13 -37 l0 -38 -34 40 c-36 42 -41 40 -48 -15 -3 -24 -4 -24 -29 12 -25 37 -26 37 -42 17 -10 -11 -22 -17 -27 -14 -6 3 -10 2 -10 -3 0 -5 10 -13 23 -17 19 -6 20 -8 4 -12 -29 -7 -47 4 -47 30 0 20 4 23 25 19 20 -3 25 0 25 17 0 23 -19 28 -38 9 -9 -9 -12 -8 -12 4 0 15 12 25 32 27 4 1 13 -6 22 -14z m247 -9 c14 -29 4 -75 -16 -83 -23 -8 -45 16 -45 51 0 55 41 76 61 32z m73 8 c29 -28 13 -94 -23 -94 -30 0 -44 73 -19 98 16 16 23 15 42 -4z m85 -67 c19 -19 12 -27 -24 -27 -19 0 -35 5 -35 10 0 6 8 10 19 10 17 0 18 3 6 37 -7 21 -11 42 -8 47 3 5 12 -8 19 -29 7 -21 17 -42 23 -48z m-589 -114 c0 -10 9 -32 19 -50 11 -17 17 -34 14 -37 -10 -10 -63 -7 -63 4 0 6 9 10 20 10 23 0 24 6 5 40 -17 30 -19 50 -5 50 6 0 10 -8 10 -17z m80 0 c0 -10 9 -32 19 -50 11 -17 17 -34 14 -37 -10 -10 -63 -7 -63 4 0 6 9 10 20 10 24 0 24 0 5 36 -17 34 -19 54 -5 54 6 0 10 -8 10 -17z m110 -4 c13 -23 -2 -49 -26 -49 -8 0 -14 -4 -14 -10 0 -5 9 -10 20 -10 11 0 20 -4 20 -10 0 -16 -47 -11 -54 6 -12 31 -7 46 14 39 14 -4 22 -1 26 10 10 24 -11 41 -31 25 -8 -7 -15 -8 -15 -3 0 29 45 31 60 2z m77 9 c15 -19 4 -86 -15 -93 -8 -3 -23 1 -31 10 -15 15 -14 16 12 10 31 -8 35 2 10 21 -17 13 -17 13 0 14 9 0 17 6 17 14 0 21 -21 31 -31 15 -4 -7 -11 -10 -14 -7 -11 11 5 28 24 28 10 0 23 -6 28 -12z m84 -12 c22 -48 -13 -103 -47 -75 -14 12 -19 56 -8 83 9 24 43 19 55 -8z m80 0 c22 -48 -13 -103 -47 -75 -8 6 -14 26 -14 43 0 55 41 76 61 32z m80 0 c14 -29 4 -75 -16 -83 -34 -12 -57 43 -39 91 9 24 43 19 55 -8z m69 -31 c0 -53 -1 -55 -20 -43 -21 14 -27 28 -10 28 6 0 10 16 10 35 0 19 5 35 10 35 6 0 10 -25 10 -55z m-546 -141 c3 -9 3 -21 -1 -27 -4 -7 -7 -21 -8 -32 0 -15 -7 -20 -25 -20 -21 0 -25 5 -27 35 -1 19 0 41 2 48 6 18 52 15 59 -4z m78 -9 c16 -36 -4 -78 -35 -73 -17 2 -23 11 -25 36 -2 19 -1 40 2 48 9 23 45 16 58 -11z m77 6 c14 -25 -9 -57 -33 -48 -12 5 -16 3 -13 -5 2 -7 14 -13 26 -12 11 0 21 -3 21 -8 0 -5 -12 -8 -27 -6 -24 2 -29 8 -31 36 -2 19 -1 40 2 48 8 20 44 17 55 -5z m86 -1 c7 -23 -10 -50 -31 -50 -23 0 -16 -18 9 -23 20 -4 19 -4 -4 -6 -16 0 -29 5 -33 15 -10 27 -7 34 19 34 18 0 25 5 25 20 0 22 -20 26 -38 8 -7 -7 -12 -8 -12 -2 0 31 56 34 65 4z m73 8 c7 -7 12 -24 12 -38 0 -14 -5 -31 -12 -38 -17 -17 -48 -15 -55 4 -8 22 10 49 31 48 10 -1 15 3 13 10 -2 6 -14 10 -26 9 -13 -2 -20 1 -16 7 8 14 38 13 53 -2z m88 -13 c3 -14 3 -37 0 -51 -5 -20 -12 -25 -34 -22 -23 2 -28 8 -30 36 -5 47 3 62 32 62 19 0 27 -7 32 -25z m75 1 c18 -38 4 -76 -27 -76 -14 0 -27 7 -31 16 -8 22 10 49 31 48 10 -1 15 3 13 10 -2 6 -14 10 -26 9 -13 -2 -20 1 -16 7 12 19 45 10 56 -14z m84 4 c8 -26 -13 -53 -36 -47 -12 3 -16 0 -12 -10 3 -8 14 -13 24 -10 11 3 19 1 19 -5 0 -5 -12 -8 -27 -6 -24 2 -29 8 -31 36 -5 47 3 62 32 62 16 0 27 -7 31 -20z"/>
<path d="M1316 1895 c-3 -9 1 -18 10 -22 19 -7 28 2 21 22 -8 19 -23 19 -31 0z"/>
<path d="M1394 1897 c-9 -25 0 -62 16 -62 10 0 15 10 15 34 0 36 -21 54 -31 28z"/>
<path d="M1475 1901 c-8 -15 3 -31 21 -31 9 0 14 7 12 17 -4 20 -24 28 -33 14z"/>
<path d="M1557 1896 c-7 -16 1 -26 20 -26 7 0 13 9 13 20 0 23 -25 27 -33 6z"/>
<path d="M1720 1871 c0 -6 5 -13 10 -16 6 -3 10 1 10 9 0 9 -4 16 -10 16 -5 0 -10 -4 -10 -9z"/>
<path d="M1800 1890 c0 -11 7 -20 15 -20 8 0 15 9 15 20 0 11 -7 20 -15 20 -8 0 -15 -9 -15 -20z"/>
<path d="M1800 1846 c0 -9 7 -16 16 -16 17 0 14 22 -4 28 -7 2 -12 -3 -12 -12z"/>
<path d="M1315 1720 c-8 -14 3 -30 21 -30 8 0 14 9 14 20 0 21 -24 28 -35 10z"/>
<path d="M1560 1690 c6 -11 13 -20 15 -20 3 0 5 9 5 20 0 11 -7 20 -15 20 -13 0 -14 -4 -5 -20z"/>
<path d="M1640 1690 c6 -11 13 -20 15 -20 3 0 5 9 5 20 0 11 -7 20 -15 20 -13 0 -14 -4 -5 -20z"/>
<path d="M1714 1705 c-7 -26 11 -59 27 -49 5 3 9 21 9 40 0 41 -26 48 -36 9z"/>
<path d="M1796 1714 c-8 -22 4 -66 18 -61 18 6 20 77 3 77 -8 0 -18 -7 -21 -16z"/>
<path d="M1634 1536 c-8 -33 1 -56 21 -56 13 0 15 9 13 37 -4 43 -25 55 -34 19z"/>
<path d="M1715 1541 c-9 -28 3 -61 21 -61 11 0 14 9 12 37 -3 41 -23 55 -33 24z"/>
<path d="M1796 1536 c-8 -31 2 -56 21 -56 10 0 13 10 11 37 -4 43 -23 55 -32 19z"/>
<path d="M1314 1369 c-3 -6 -2 -15 4 -21 13 -13 32 -2 32 18 0 16 -26 19 -36 3z"/>
<path d="M1320 1315 c0 -9 5 -15 11 -13 6 2 11 8 11 13 0 5 -5 11 -11 13 -6 2 -11 -4 -11 -13z"/>
<path d="M1394 1367 c-9 -25 0 -62 16 -62 10 0 15 10 15 34 0 36 -21 54 -31 28z"/>
<path d="M1475 1371 c-8 -15 3 -31 21 -31 9 0 14 7 12 17 -4 20 -24 28 -33 14z"/>
<path d="M1635 1330 c-8 -14 3 -30 21 -30 8 0 14 9 14 20 0 21 -24 28 -35 10z"/>
<path d="M1715 1361 c-9 -28 3 -61 21 -61 11 0 14 9 12 37 -3 41 -23 55 -33 24z"/>
<path d="M1797 1334 c-9 -10 4 -34 19 -34 8 0 14 9 14 20 0 19 -19 27 -33 14z"/>
<path d="M1877 1366 c-7 -16 1 -26 20 -26 7 0 13 9 13 20 0 23 -25 27 -33 6z"/>
<path d="M3755 946 c-58 -26 -105 -101 -105 -168 1 -49 33 -112 76 -144 33 -25 46 -29 104 -29 57 0 72 4 103 28 86 65 99 186 30 268 -47 56 -139 76 -208 45z"/>
</g>


</svg>