<!DOCTYPE svg PUBLIC "-//W3C//DTD SVG 20010904//EN" "http://www.w3.org/TR/2001/REC-SVG-20010904/DTD/svg10.dtd">
<svg version="1.0" xmlns="http://www.w3.org/2000/svg" width="1200px" height="411px" viewBox="0 0 12000 4110" preserveAspectRatio="xMidYMid meet">
<g id="layer101" fill="#3f7b25" stroke="none">
<path d="M0 2055 l0 -2055 6000 0 6000 0 0 2055 0 2055 -6000 0 -6000 0 0 -2055z"/>
</g>
<g id="layer102" fill="#4f8737" stroke="none">
<path d="M0 2055 l0 -2055 6000 0 6000 0 0 2055 0 2055 -6000 0 -6000 0 0 -2055z m1601 -172 c13 -16 12 -17 -3 -4 -10 7 -18 15 -18 17 0 8 8 3 21 -13z m244 -3 c3 -5 4 -10 1 -10 -3 0 -8 5 -11 10 -3 6 -4 10 -1 10 3 0 8 -4 11 -10z m-578 -32 c-3 -7 -5 -2 -5 12 0 14 2 19 5 13 2 -7 2 -19 0 -25z m80 -5 c-3 -10 -5 -4 -5 12 0 17 2 24 5 18 2 -7 2 -21 0 -30z m80 15 c-3 -8 -6 -5 -6 6 -1 11 2 17 5 13 3 -3 4 -12 1 -19z m290 15 c-4 -3 -10 -3 -14 0 -3 4 0 7 7 7 7 0 10 -3 7 -7z m-210 -20 c-4 -3 -7 0 -7 7 0 7 3 10 7 7 3 -4 3 -10 0 -14z m290 -30 c-4 -3 -7 0 -7 7 0 7 3 10 7 7 3 -4 3 -10 0 -14z m-202 -3 c3 -5 4 -10 1 -10 -3 0 -8 5 -11 10 -3 6 -4 10 -1 10 3 0 8 -4 11 -10z m110 0 c3 -5 4 -10 1 -10 -3 0 -8 5 -11 10 -3 6 -4 10 -1 10 3 0 8 -4 11 -10z m-78 -167 c-2 -16 -4 -5 -4 22 0 28 2 40 4 28 2 -13 2 -35 0 -50z m220 50 c-4 -3 -7 0 -7 7 0 7 3 10 7 7 3 -4 3 -10 0 -14z m-300 -25 c-3 -7 -5 -2 -5 12 0 14 2 19 5 13 2 -7 2 -19 0 -25z m-280 -10 c-3 -7 -5 -2 -5 12 0 14 2 19 5 13 2 -7 2 -19 0 -25z m133 18 c0 -3 -5 -8 -12 -12 -7 -4 -8 -3 -4 4 7 12 16 16 16 8z m-3 -43 c-4 -3 -7 0 -7 7 0 7 3 10 7 7 3 -4 3 -10 0 -14z m150 -5 c-3 -8 -6 -5 -6 6 -1 11 2 17 5 13 3 -3 4 -12 1 -19z m-227 8 c0 -3 -5 -8 -12 -12 -7 -4 -8 -3 -4 4 7 12 16 16 16 8z m150 -12 c0 -2 -9 -4 -20 -4 -11 0 -20 4 -20 9 0 5 9 7 20 4 11 -3 20 -7 20 -9z m403 -1 c-7 -2 -21 -2 -30 0 -10 3 -4 5 12 5 17 0 24 -2 18 -5z m-586 -105 c-3 -8 -6 -5 -6 6 -1 11 2 17 5 13 3 -3 4 -12 1 -19z m300 -35 c-3 -10 -5 -4 -5 12 0 17 2 24 5 18 2 -7 2 -21 0 -30z m-112 7 c-3 -5 -16 -10 -28 -9 -20 1 -20 2 3 9 14 4 26 8 28 9 2 1 0 -3 -3 -9z m83 -25 c-3 -3 -9 2 -12 12 -6 14 -5 15 5 6 7 -7 10 -15 7 -18z m-121 -12 c-4 -3 -7 0 -7 7 0 7 3 10 7 7 3 -4 3 -10 0 -14z m280 -110 c-4 -3 -7 0 -7 7 0 7 3 10 7 7 3 -4 3 -10 0 -14z m-450 -10 c-4 -3 -7 0 -7 7 0 7 3 10 7 7 3 -4 3 -10 0 -14z m80 -30 c-3 -10 -5 -4 -5 12 0 17 2 24 5 18 2 -7 2 -21 0 -30z m86 22 c4 -8 2 -17 -3 -20 -6 -4 -10 3 -10 14 0 25 6 27 13 6z m400 2 c3 -8 1 -20 -4 -28 -6 -10 -9 -7 -9 14 0 29 5 35 13 14z m-246 -34 c-4 -3 -7 0 -7 7 0 7 3 10 7 7 3 -4 3 -10 0 -14z m-270 -10 c-4 -3 -7 0 -7 7 0 7 3 10 7 7 3 -4 3 -10 0 -14z"/>
</g>
<g id="layer103" fill="#6aa84f" stroke="none">
<path d="M0 2055 l0 -2055 6000 0 6000 0 0 2055 0 2055 -6000 0 -6000 0 0 -2055z m1319 -164 c13 -24 -9 -57 -33 -48 -10 4 -16 1 -16 -7 0 -19 25 -27 39 -13 8 8 11 8 11 0 0 -16 -22 -22 -42 -11 -12 5 -18 20 -18 41 0 52 39 77 59 38z m69 7 c13 -13 17 -74 5 -81 -5 -3 -8 14 -8 36 0 31 -4 42 -15 42 -11 0 -15 -11 -15 -42 0 -22 -3 -39 -7 -36 -21 12 -2 93 22 93 3 0 11 -5 18 -12z m57 -2 c-11 -8 -16 -19 -12 -30 10 -25 35 -19 40 9 4 23 4 23 3 -2 -1 -21 -6 -28 -21 -28 -11 0 -23 -4 -27 -10 -4 -5 -8 4 -8 21 0 30 15 54 34 54 5 0 1 -6 -9 -14z m115 -7 c14 -25 -5 -53 -32 -46 -21 6 -23 -4 -6 -21 8 -8 8 -12 1 -12 -23 0 -32 67 -11 88 18 18 36 15 48 -9z m63 14 c-28 -5 -29 -15 -3 -38 24 -21 26 -51 5 -59 -12 -4 -13 -2 -3 14 11 16 8 24 -15 48 -35 36 -34 42 6 41 23 -1 26 -3 10 -6z m177 -8 c9 -11 9 -19 2 -28 -6 -7 -9 -22 -6 -34 4 -13 0 -22 -12 -27 -14 -5 -15 -4 -4 9 10 12 10 19 2 27 -8 8 -14 5 -22 -13 -10 -24 -10 -24 -7 4 3 15 0 27 -4 27 -13 0 -11 24 3 38 16 16 33 15 48 -3z m63 8 c-29 -6 -29 -11 3 -44 23 -24 24 -28 9 -43 -21 -20 -29 -20 -46 2 -13 15 -12 16 3 4 19 -15 38 -9 38 12 0 7 -11 23 -25 36 -33 31 -32 40 8 39 23 -1 26 -3 10 -6z m-151 -50 c-3 -46 -6 -48 -23 -26 -9 11 -10 14 -1 9 8 -5 12 0 12 13 0 12 -7 21 -16 21 -9 0 -12 -5 -8 -12 4 -7 3 -8 -4 -4 -19 11 -14 26 8 26 11 0 20 5 20 12 0 6 3 8 7 4 4 -4 6 -23 5 -43z m-232 -32 c0 -5 -7 -12 -16 -15 -14 -5 -15 -4 -4 9 14 17 20 19 20 6z m80 -1 c0 -5 -5 -10 -11 -10 -5 0 -7 5 -4 10 3 6 8 10 11 10 2 0 4 -4 4 -10z m35 0 c3 -5 4 -10 1 -10 -3 0 -8 5 -11 10 -3 6 -4 10 -1 10 3 0 8 -4 11 -10z m-277 -107 c11 -21 5 -43 -10 -43 -7 0 -7 4 0 13 14 17 -2 42 -22 34 -11 -4 -15 -16 -13 -39 2 -27 7 -33 25 -32 16 0 20 -2 12 -10 -16 -16 -44 6 -48 38 -6 47 37 76 56 39z m77 -33 c0 -36 -4 -45 -19 -48 -10 -2 -22 0 -28 6 -6 6 0 8 16 5 19 -4 26 -1 26 11 0 9 -6 16 -12 17 -10 0 -10 2 0 6 6 2 12 14 12 25 0 16 -5 19 -25 16 -13 -3 -22 -1 -19 4 3 5 16 8 27 6 19 -3 22 -10 22 -48z m83 19 c2 -18 -3 -29 -15 -33 -14 -6 -16 -5 -5 5 6 7 12 22 12 32 0 16 -5 18 -26 13 -17 -5 -23 -3 -19 4 13 21 50 7 53 -21z m73 -34 l-6 -40 -23 32 c-27 38 -28 53 -2 53 11 0 20 6 20 13 1 8 4 7 9 -3 5 -8 6 -33 2 -55z m79 0 c-8 -42 -13 -39 -10 8 1 19 -3 27 -14 27 -19 0 -20 -11 -4 -30 7 -8 4 -8 -6 2 -20 17 -14 38 10 38 8 0 14 6 14 13 1 8 4 7 9 -3 5 -8 5 -33 1 -55z m60 61 c0 -3 -5 -8 -12 -12 -7 -4 -8 -3 -4 4 7 12 16 16 16 8z m28 -21 c-3 -3 -9 2 -12 12 -6 14 -5 15 5 6 7 -7 10 -15 7 -18z m82 6 c14 -27 13 -44 -6 -67 -14 -18 -15 -18 -4 4 16 32 5 74 -18 70 -22 -4 -28 -53 -10 -76 12 -15 11 -16 -4 -3 -32 24 -18 91 19 91 7 0 17 -9 23 -19z m80 -66 c11 -13 7 -15 -26 -14 -30 2 -33 3 -12 6 27 4 28 5 13 33 -8 16 -15 37 -15 47 1 10 7 1 14 -20 8 -20 19 -44 26 -52z m-213 23 c-3 -7 -5 -2 -5 12 0 14 2 19 5 13 2 -7 2 -19 0 -25z m60 5 c-4 -3 -7 0 -7 7 0 7 3 10 7 7 3 -4 3 -10 0 -14z m-287 -12 c0 -12 8 -21 23 -24 20 -4 19 -4 -4 -6 -21 -1 -28 4 -31 24 -3 14 -1 25 3 25 5 0 9 -9 9 -19z m275 -20 c-8 -13 -32 -14 -39 -2 -4 5 3 7 14 4 12 -3 20 0 20 8 0 7 3 10 6 6 3 -3 3 -10 -1 -16z m-251 -87 c10 -4 16 -18 16 -35 0 -22 -5 -29 -20 -29 -27 0 -25 -28 3 -33 20 -4 19 -4 -4 -6 -21 -1 -28 4 -31 24 -4 21 -1 25 18 25 17 0 24 6 24 19 0 27 -17 36 -38 19 -15 -12 -16 -11 -3 5 15 19 14 19 35 11z m97 -18 c1 -6 0 -15 -1 -21 -2 -5 -2 -20 -2 -33 2 -30 -25 -40 -46 -16 -16 17 -16 17 0 5 22 -16 41 -5 33 19 -3 10 -1 21 5 25 8 5 6 13 -6 26 -16 18 -16 19 -1 13 9 -3 18 -11 18 -18z m84 -45 c-9 -37 -22 -48 -43 -35 -10 7 -18 25 -19 45 l-1 34 6 -35 c5 -22 14 -36 25 -38 14 -3 17 4 17 35 0 22 -3 43 -7 49 -5 5 0 1 10 -10 13 -14 16 -28 12 -45z m75 50 c0 -3 3 -17 6 -31 4 -18 1 -16 -10 9 -14 28 -18 31 -31 21 -16 -13 -19 -38 -9 -64 7 -19 30 -21 37 -3 4 9 6 9 6 -1 2 -22 -31 -27 -45 -7 -18 25 -18 60 1 79 14 14 45 12 45 -3z m80 -4 c0 -8 -4 -7 -12 1 -24 24 -48 -21 -32 -62 7 -19 30 -21 37 -3 4 9 6 9 6 -1 2 -22 -31 -27 -45 -7 -18 25 -18 60 1 79 16 16 45 12 45 -7z m-485 -69 c6 -15 2 -18 -26 -17 -31 2 -31 2 -7 6 27 4 28 5 13 33 -8 16 -15 37 -15 47 1 10 7 2 14 -17 7 -19 17 -43 21 -52z m70 20 c3 -7 -1 -4 -9 6 -9 11 -16 29 -15 40 1 17 2 16 9 -6 4 -14 11 -32 15 -40z m135 58 c0 -3 -5 -8 -12 -12 -7 -4 -8 -3 -4 4 7 12 16 16 16 8z m350 -47 c0 -46 -2 -50 -16 -38 -10 8 -12 15 -5 17 6 2 11 19 11 38 0 19 2 34 5 34 3 0 5 -23 5 -51z m-63 -1 c-3 -8 -6 -5 -6 6 -1 11 2 17 5 13 3 -3 4 -12 1 -19z m-407 -38 c0 -5 -15 -9 -32 -9 l-33 1 30 8 c17 4 31 8 33 9 1 0 2 -3 2 -9z m-112 -91 c-26 -15 -23 -41 5 -37 16 2 21 9 19 23 -2 16 -1 17 7 5 6 -9 6 -18 0 -26 -5 -6 -7 -18 -3 -27 3 -8 1 -18 -4 -21 -5 -3 -9 2 -8 12 0 9 -6 17 -14 17 -9 0 -14 -7 -12 -20 2 -11 0 -16 -4 -12 -5 4 -10 25 -11 45 -2 34 9 52 32 52 6 -1 2 -5 -7 -11z m96 5 c17 -6 23 -78 9 -87 -5 -3 -8 14 -8 36 0 54 -27 59 -36 7 -6 -35 -6 -35 -8 -4 0 16 4 35 11 42 14 14 12 14 32 6z m61 -8 c-11 -8 -16 -19 -12 -30 10 -25 35 -19 40 9 4 23 4 23 3 -2 -1 -22 -6 -28 -24 -27 -18 0 -21 -3 -16 -20 4 -17 3 -18 -5 -6 -22 31 -7 90 23 90 5 0 1 -6 -9 -14z m94 11 c-2 -1 -13 -9 -24 -17 -19 -14 -19 -14 -6 3 7 9 18 17 24 17 6 0 8 -1 6 -3z m81 -1 c0 -2 -7 -7 -16 -10 -8 -3 -12 -2 -9 4 6 10 25 14 25 6z m68 -10 c-7 -8 -15 -12 -17 -11 -5 6 10 25 20 25 5 0 4 -6 -3 -14z m92 10 c0 -2 -7 -7 -16 -10 -8 -3 -12 -2 -9 4 6 10 25 14 25 6z m68 -7 c-19 -10 -21 -55 -5 -76 6 -8 6 -13 -1 -13 -22 0 -30 68 -10 88 7 7 17 12 23 12 5 0 2 -5 -7 -11z m-288 -45 c-7 -7 -19 -14 -26 -14 -23 0 -16 -18 9 -23 20 -4 19 -4 -4 -6 -21 -1 -28 4 -31 23 -4 21 -1 24 21 23 22 -2 26 2 24 23 -2 22 -1 23 8 7 8 -13 7 -22 -1 -33z m89 0 c1 -5 -5 -19 -13 -29 -13 -18 -14 -18 -9 9 5 23 3 27 -13 24 -12 -2 -19 -12 -18 -26 0 -14 -3 -19 -9 -13 -15 15 -3 46 21 49 12 2 22 11 23 20 0 14 2 13 9 -3 5 -11 9 -25 9 -31z m68 29 c-4 -3 -7 0 -7 7 0 7 3 10 7 7 3 -4 3 -10 0 -14z m89 -47 c-3 -14 -11 -26 -17 -26 -8 0 -7 5 1 15 16 20 -1 41 -25 31 -12 -4 -14 -12 -10 -28 6 -18 5 -20 -5 -12 -7 7 -9 21 -5 34 5 17 13 21 31 17 21 -4 24 -1 19 17 -5 20 -5 20 6 -1 6 -12 9 -33 5 -47z m78 27 c-6 -9 -17 -19 -25 -22 -9 -3 -9 1 3 13 10 9 15 24 11 34 -5 14 -4 15 8 4 10 -9 11 -17 3 -29z m-217 -15 c-3 -8 -6 -5 -6 6 -1 11 2 17 5 13 3 -3 4 -12 1 -19z m57 -12 c-3 -14 -10 -26 -14 -26 -5 0 -3 13 3 30 13 35 21 33 11 -4z m-244 -16 c0 -5 -5 -10 -11 -10 -5 0 -7 5 -4 10 3 6 8 10 11 10 2 0 4 -4 4 -10z m205 0 c3 -5 1 -10 -4 -10 -6 0 -11 5 -11 10 0 6 2 10 4 10 3 0 8 -4 11 -10z m192 -7 c-4 -3 -7 0 -7 7 0 7 3 10 7 7 3 -4 3 -10 0 -14z"/>
<path d="M1274 1885 c-7 -18 3 -35 21 -35 15 0 24 19 18 38 -6 17 -32 15 -39 -3z"/>
<path d="M1514 1885 c-7 -18 3 -35 21 -35 18 0 26 15 19 34 -8 20 -33 21 -40 1z"/>
<path d="M1755 1890 c-4 -7 -3 -16 3 -22 14 -14 45 -2 40 15 -6 16 -34 21 -43 7z"/>
<path d="M1510 1693 c0 -5 7 -17 15 -27 14 -19 15 -19 15 7 0 17 -5 27 -15 27 -8 0 -15 -3 -15 -7z"/>
</g>
<g id="layer104" fill="#92c53b" stroke="none">
<path d="M0 2055 l0 -2055 6000 0 6000 0 0 2055 0 2055 -6000 0 -6000 0 0 -2055z m5845 790 c80 -22 211 -86 255 -124 l35 -31 -93 -90 -93 -89 -52 29 c-148 82 -349 88 -502 15 -122 -58 -214 -173 -250 -310 -20 -78 -20 -249 1 -329 22 -86 80 -191 136 -247 126 -126 355 -165 494 -84 67 39 84 73 84 171 0 197 -102 264 -402 264 l-118 0 0 121 0 122 178 -6 c153 -4 189 -8 267 -32 114 -34 176 -67 242 -132 132 -128 173 -384 91 -560 -77 -165 -287 -252 -573 -240 -236 10 -386 80 -528 247 -65 76 -124 193 -154 308 -22 84 -26 118 -27 252 0 132 3 167 22 233 80 280 278 460 572 523 88 18 333 12 415 -11z m4270 -5 c77 -24 204 -88 247 -123 l28 -23 -93 -91 -92 -92 -76 38 c-192 97 -434 67 -570 -69 -94 -95 -139 -223 -139 -400 0 -175 37 -284 128 -383 93 -99 187 -137 340 -137 111 0 179 16 261 62 l54 30 93 -93 93 -93 -47 -34 c-69 -50 -151 -89 -239 -114 -114 -33 -326 -33 -433 1 -264 82 -459 285 -530 551 -26 98 -31 283 -11 385 48 239 186 430 381 529 135 69 218 86 395 82 110 -3 155 -8 210 -26z m-5873 -28 c147 -40 234 -106 284 -215 27 -57 29 -71 29 -182 0 -116 -1 -123 -33 -187 -39 -79 -93 -131 -176 -168 -34 -15 -160 -60 -281 -99 -121 -40 -240 -85 -265 -101 -56 -36 -82 -78 -83 -136 0 -36 5 -50 29 -75 51 -53 93 -59 441 -59 l313 0 0 -135 0 -135 -317 0 c-357 0 -409 7 -530 64 -141 68 -211 163 -220 305 -12 176 64 312 227 404 49 27 98 45 300 107 233 72 315 129 315 217 0 54 -27 91 -91 123 -49 25 -50 25 -399 30 l-350 5 -3 133 -3 134 368 -4 c336 -4 375 -6 445 -26z m3478 -471 c0 -557 -4 -601 -64 -727 -61 -128 -172 -216 -336 -265 -70 -21 -99 -23 -417 -26 l-343 -5 0 136 0 136 299 0 c274 0 304 2 366 21 86 26 151 88 186 175 23 58 24 67 27 422 l3 362 -264 0 c-288 0 -338 -7 -397 -56 -46 -39 -63 -81 -63 -149 0 -66 16 -105 60 -146 103 -96 332 -105 490 -19 l54 28 -3 -141 -3 -142 -70 -19 c-100 -28 -364 -29 -449 -3 -165 51 -265 127 -323 245 -38 76 -38 76 -38 201 1 107 4 135 24 184 58 146 216 249 431 281 14 2 206 4 428 5 l402 1 0 -499z m582 -23 c4 -581 5 -594 70 -659 60 -60 79 -64 343 -69 l240 -5 3 -133 3 -134 -258 4 c-235 4 -264 7 -328 27 -221 72 -305 180 -344 438 -7 44 -11 262 -11 562 l0 491 140 0 139 0 3 -522z m2638 -104 l0 -626 238 4 237 3 63 34 c74 40 104 75 135 157 21 58 22 71 25 557 l3 497 139 0 140 0 0 -457 c0 -684 -14 -768 -145 -898 -126 -126 -280 -165 -652 -165 l-183 0 -2 -347 -3 -348 -137 -3 -138 -3 0 1111 0 1110 140 0 140 0 0 -626z m-9620 -325 c14 -25 -5 -53 -32 -46 -21 6 -23 -4 -6 -21 8 -8 15 -9 25 -1 9 8 13 8 13 0 0 -18 -29 -25 -45 -11 -8 7 -15 27 -15 44 0 53 39 75 60 35z m80 0 c14 -25 4 -75 -17 -83 -23 -9 -43 13 -43 48 0 53 39 75 60 35z m79 2 c13 -24 -9 -57 -33 -48 -19 7 -21 -4 -4 -21 8 -8 15 -9 25 -1 9 8 13 8 13 0 0 -18 -29 -25 -45 -11 -8 7 -15 27 -15 44 0 51 39 76 59 37z m82 3 c17 -21 -1 -49 -30 -48 -24 1 -27 -6 -9 -24 8 -8 15 -9 25 -1 9 8 13 8 13 0 0 -18 -29 -25 -45 -11 -8 7 -15 27 -15 44 0 51 34 73 61 40z m84 6 c-3 -5 -15 -10 -25 -10 -17 0 -16 -3 6 -25 27 -27 28 -42 2 -59 -12 -7 -21 -6 -32 4 -9 7 -14 15 -11 18 2 3 11 -1 20 -8 12 -10 16 -9 21 4 4 11 -3 27 -20 45 -34 36 -33 41 10 41 21 0 33 -4 29 -10z m79 -22 c8 -5 7 -8 -1 -8 -8 0 -13 -14 -13 -36 0 -20 -4 -33 -10 -29 -5 3 -7 19 -3 35 4 25 2 30 -13 30 -14 0 -15 -3 -6 -12 7 -7 12 -17 12 -22 -1 -12 -30 24 -30 36 0 4 9 8 20 8 12 0 20 7 21 18 0 13 2 14 6 2 3 -8 11 -18 17 -22z m74 19 c15 -17 3 -87 -15 -94 -21 -8 -37 13 -39 50 -3 50 29 75 54 44z m87 3 c-3 -5 -15 -10 -25 -10 -17 0 -16 -3 6 -25 27 -27 28 -42 2 -59 -12 -7 -21 -6 -32 4 -9 7 -14 15 -11 18 2 3 11 -1 20 -8 12 -10 16 -9 21 4 4 11 -3 27 -20 45 -34 36 -33 41 10 41 21 0 33 -4 29 -10z m-561 -193 c9 -14 7 -21 -7 -32 -11 -7 -26 -11 -34 -8 -11 4 -14 2 -11 -8 3 -8 15 -14 27 -13 11 0 21 -3 21 -8 0 -15 -48 -8 -54 8 -8 21 -8 69 1 78 12 12 45 2 57 -17z m80 7 c3 -9 3 -21 -1 -27 -4 -7 -7 -21 -8 -32 0 -23 -32 -33 -49 -15 -8 9 -4 10 17 5 26 -7 38 7 17 20 -6 4 -5 13 2 25 16 25 3 38 -22 22 -11 -7 -20 -8 -20 -4 0 26 54 31 64 6z m75 2 c15 -18 -2 -56 -24 -56 -24 0 -17 -18 8 -23 19 -4 18 -4 -5 -6 -16 0 -28 3 -28 8 0 5 -3 17 -6 25 -5 12 -1 16 17 14 18 -2 25 3 27 20 4 24 -16 30 -36 10 -7 -7 -12 -8 -12 -2 0 27 40 33 59 10z m83 -24 c-6 -2 -12 -18 -12 -35 l-1 -32 -24 30 c-30 36 -32 55 -5 55 11 0 20 5 20 11 0 6 8 3 17 -7 13 -13 14 -19 5 -22z m77 4 c-5 -6 -9 -24 -9 -40 l-1 -31 -24 30 c-30 36 -32 55 -5 55 11 0 20 5 20 10 0 6 6 5 14 -2 9 -8 11 -17 5 -22z m87 9 c10 -42 -3 -75 -31 -75 -28 0 -41 33 -31 75 5 18 13 25 31 25 18 0 26 -7 31 -25z m72 13 c17 -17 15 -63 -3 -78 -35 -29 -65 9 -51 66 7 26 34 32 54 12z m73 -50 l19 -38 -38 1 c-28 2 -31 3 -10 6 25 4 26 5 12 31 -8 15 -14 36 -13 47 0 14 2 16 6 5 3 -8 14 -32 24 -52z m-557 -186 l17 -32 -36 0 c-19 0 -35 5 -35 10 0 6 9 10 21 10 16 0 19 4 14 18 -4 9 -9 31 -11 47 -4 28 -3 28 5 5 4 -14 16 -40 25 -58z m160 62 c18 -18 18 -17 10 -38 -3 -9 -15 -16 -25 -16 -10 0 -19 -4 -19 -10 0 -5 9 -10 20 -10 11 0 20 -4 20 -10 0 -5 -11 -10 -24 -10 -16 0 -26 7 -30 23 -9 35 -8 38 19 31 21 -5 25 -3 25 16 0 18 -4 21 -25 18 -20 -4 -23 -3 -14 8 15 18 24 18 43 -2z m86 1 c7 -9 9 -22 5 -32 -5 -10 -7 -26 -6 -36 3 -24 -27 -33 -47 -13 -9 9 -11 16 -5 16 6 0 13 -6 16 -12 4 -10 7 -10 18 0 12 11 12 14 0 21 -9 6 -10 11 -2 15 6 4 11 14 11 23 0 11 -6 14 -27 8 -23 -5 -25 -4 -14 9 17 20 35 20 51 1z m81 -9 c14 -29 4 -75 -16 -83 -23 -8 -45 16 -45 51 0 55 41 76 61 32z m80 0 c14 -29 4 -75 -16 -83 -36 -13 -58 44 -35 88 15 26 38 24 51 -5z m80 0 c14 -29 4 -75 -16 -83 -23 -8 -45 16 -45 51 0 55 41 76 61 32z m69 -31 c0 -53 -1 -55 -20 -43 -11 7 -20 16 -20 21 0 4 5 5 10 2 6 -4 10 8 10 28 0 30 6 47 17 47 2 0 3 -25 3 -55z m-483 -5 l22 -50 -35 0 c-19 0 -34 5 -34 10 0 6 9 10 20 10 24 0 24 -1 5 44 -23 55 -3 42 22 -14z m-70 -132 c15 -19 4 -86 -15 -93 -21 -8 -36 10 -39 48 -3 44 3 57 25 57 11 0 24 -6 29 -12z m83 -9 c13 -23 5 -70 -13 -81 -21 -13 -47 11 -47 45 0 54 39 77 60 36z m79 2 c13 -24 -9 -57 -33 -48 -19 7 -21 -4 -4 -21 8 -8 15 -9 25 -1 9 8 13 8 13 1 0 -15 -22 -21 -42 -10 -12 5 -18 20 -18 41 0 52 39 77 59 38z m81 4 c16 -19 3 -55 -21 -55 -26 0 -24 -18 4 -23 19 -4 18 -4 -5 -6 -16 0 -28 3 -28 8 0 5 -3 17 -6 26 -5 13 -2 15 20 9 22 -5 26 -3 26 14 0 26 -19 39 -31 21 -4 -7 -11 -10 -16 -6 -8 9 14 27 33 27 6 0 17 -7 24 -15z m81 -9 c22 -48 -13 -103 -48 -75 -21 18 -12 53 15 57 23 4 29 16 12 27 -6 4 -17 1 -25 -5 -8 -7 -15 -8 -15 -3 0 31 47 30 61 -1z m80 0 c14 -29 5 -72 -16 -79 -21 -9 -45 20 -45 52 0 51 42 69 61 27z m80 0 c22 -48 -13 -103 -48 -75 -21 18 -12 53 15 57 26 4 24 28 -1 26 -9 -1 -14 2 -11 7 10 17 34 9 45 -15z m82 2 c14 -21 -7 -48 -35 -48 -17 0 -18 -2 -8 -15 10 -12 16 -13 26 -4 9 7 14 8 14 1 0 -15 -22 -21 -42 -10 -12 5 -18 20 -18 41 0 53 39 75 63 35z"/>
</g>
<g id="layer105" fill="#9bc656" stroke="none">
<path d="M0 2055 l0 -2055 6000 0 6000 0 0 2055 0 2055 -6000 0 -6000 0 0 -2055z m5845 790 c80 -22 211 -86 255 -124 l35 -31 -93 -90 -93 -89 -52 29 c-148 82 -349 88 -502 15 -122 -58 -214 -173 -250 -310 -20 -78 -20 -249 1 -329 22 -86 80 -191 136 -247 126 -126 355 -165 494 -84 67 39 84 73 84 171 0 197 -102 264 -402 264 l-118 0 0 121 0 122 178 -6 c153 -4 189 -8 267 -32 114 -34 176 -67 242 -132 132 -128 173 -384 91 -560 -77 -165 -287 -252 -573 -240 -236 10 -386 80 -528 247 -65 76 -124 193 -154 308 -22 84 -26 118 -27 252 0 132 3 167 22 233 80 280 278 460 572 523 88 18 333 12 415 -11z m4270 -5 c77 -24 204 -88 247 -123 l28 -23 -93 -91 -92 -92 -76 38 c-192 97 -434 67 -570 -69 -94 -95 -139 -223 -139 -400 0 -175 37 -284 128 -383 93 -99 187 -137 340 -137 111 0 179 16 261 62 l54 30 93 -93 93 -93 -47 -34 c-69 -50 -151 -89 -239 -114 -114 -33 -326 -33 -433 1 -264 82 -459 285 -530 551 -26 98 -31 283 -11 385 48 239 186 430 381 529 135 69 218 86 395 82 110 -3 155 -8 210 -26z m-5873 -28 c147 -40 234 -106 284 -215 27 -57 29 -71 29 -182 0 -116 -1 -123 -33 -187 -39 -79 -93 -131 -176 -168 -34 -15 -160 -60 -281 -99 -121 -40 -240 -85 -265 -101 -56 -36 -82 -78 -83 -136 0 -36 5 -50 29 -75 51 -53 93 -59 441 -59 l313 0 0 -135 0 -135 -317 0 c-357 0 -409 7 -530 64 -141 68 -211 163 -220 305 -12 176 64 312 227 404 49 27 98 45 300 107 233 72 315 129 315 217 0 54 -27 91 -91 123 -49 25 -50 25 -399 30 l-350 5 -3 133 -3 134 368 -4 c336 -4 375 -6 445 -26z m3478 -471 c0 -557 -4 -601 -64 -727 -61 -128 -172 -216 -336 -265 -70 -21 -99 -23 -417 -26 l-343 -5 0 136 0 136 299 0 c274 0 304 2 366 21 86 26 151 88 186 175 23 58 24 67 27 422 l3 362 -264 0 c-288 0 -338 -7 -397 -56 -46 -39 -63 -81 -63 -149 0 -66 16 -105 60 -146 103 -96 332 -105 490 -19 l54 28 -3 -141 -3 -142 -70 -19 c-100 -28 -364 -29 -449 -3 -165 51 -265 127 -323 245 -38 76 -38 76 -38 201 1 107 4 135 24 184 58 146 216 249 431 281 14 2 206 4 428 5 l402 1 0 -499z m582 -23 c4 -581 5 -594 70 -659 60 -60 79 -64 343 -69 l240 -5 3 -133 3 -134 -258 4 c-235 4 -264 7 -328 27 -221 72 -305 180 -344 438 -7 44 -11 262 -11 562 l0 491 140 0 139 0 3 -522z m2638 -104 l0 -626 238 4 237 3 63 34 c74 40 104 75 135 157 21 58 22 71 25 557 l3 497 139 0 140 0 0 -457 c0 -684 -14 -768 -145 -898 -126 -126 -280 -165 -652 -165 l-183 0 -2 -347 -3 -348 -137 -3 -138 -3 0 1111 0 1110 140 0 140 0 0 -626z m-9262 601 c17 -3 32 -10 32 -15 0 -5 9 -11 19 -15 27 -8 35 -45 9 -45 -10 0 -16 -4 -13 -10 3 -6 -4 -10 -17 -10 -18 0 -20 2 -8 10 12 8 9 10 -12 10 -15 0 -30 -5 -33 -11 -8 -13 -147 -1 -156 14 -4 5 -14 7 -23 4 -17 -7 -46 17 -46 39 0 8 6 14 13 15 6 1 1 5 -13 10 -24 8 -23 9 5 5 17 -1 44 0 60 4 31 7 125 4 183 -5z m-358 -26 c-11 -8 -8 -9 16 -5 23 4 36 0 48 -13 20 -22 20 -31 0 -31 -8 0 -12 -5 -8 -11 4 -8 -3 -9 -25 -4 -17 4 -31 3 -31 -2 0 -5 -13 -8 -29 -5 -16 2 -32 -1 -35 -7 -5 -7 0 -9 11 -5 15 5 16 4 3 -5 -8 -6 -23 -11 -33 -11 -11 0 -15 -5 -11 -11 4 -7 -2 -6 -17 2 -22 11 -23 11 -10 -4 11 -14 11 -17 0 -17 -53 -2 -96 -14 -110 -32 -11 -14 -18 -17 -23 -9 -5 8 -13 8 -29 -1 -12 -7 -26 -11 -31 -10 -5 2 -6 -3 -3 -11 3 -8 -14 -24 -47 -42 -28 -16 -72 -44 -98 -63 -27 -19 -48 -31 -48 -27 0 3 -6 3 -12 -2 -7 -4 -24 -9 -38 -11 -14 -2 -32 -10 -40 -19 -13 -14 -13 -15 6 -11 16 4 21 1 19 -11 -1 -9 -10 -15 -20 -13 -12 3 -16 -1 -12 -12 4 -9 1 -13 -6 -10 -7 2 -26 -9 -42 -26 -27 -29 -24 -44 5 -17 7 6 -9 -15 -36 -49 -27 -33 -54 -59 -61 -57 -6 3 -16 -5 -23 -16 -6 -12 -18 -21 -28 -21 -14 0 -14 -2 -3 -9 11 -7 10 -13 -5 -34 -24 -32 -51 -40 -63 -19 -6 11 -4 20 7 29 13 10 14 14 4 21 -7 5 -10 16 -6 25 8 23 25 22 17 0 -5 -15 -3 -14 10 2 10 13 12 22 5 26 -14 9 40 89 56 83 17 -6 49 43 39 59 -4 8 -1 7 10 -2 9 -7 17 -10 17 -5 0 4 5 3 12 -4 19 -19 25 -14 20 18 -3 19 0 30 7 30 7 0 11 10 9 22 -2 11 3 23 11 26 9 3 11 0 6 -9 -5 -8 8 3 29 24 20 20 35 41 32 45 -3 4 4 14 16 21 16 10 18 10 12 0 -5 -9 -2 -11 9 -6 9 3 18 1 21 -6 4 -10 10 16 8 34 -1 4 7 5 18 2 15 -4 18 -1 15 15 -6 32 93 84 162 86 29 1 53 -2 53 -7 0 -5 6 -14 13 -22 11 -11 15 -10 25 5 6 10 24 20 39 23 27 4 26 4 -4 6 -28 1 -33 5 -33 27 0 17 4 23 12 18 8 -5 9 -2 4 11 -5 14 -4 15 7 7 15 -13 60 -5 51 9 -3 5 2 6 10 3 9 -3 16 -10 16 -15 0 -5 9 -9 20 -9 11 0 20 6 20 13 0 7 9 18 20 25 12 7 18 17 15 22 -5 7 8 11 60 18 6 1 3 -3 -5 -9z m467 -6 c-4 -3 -7 0 -7 7 0 7 3 10 7 7 3 -4 3 -10 0 -14z m53 3 c0 -3 -5 -8 -12 -12 -7 -4 -8 -3 -4 4 7 12 16 16 16 8z m-595 -16 c3 -5 4 -10 1 -10 -3 0 -8 5 -11 10 -3 6 -4 10 -1 10 3 0 8 -4 11 -10z m625 0 c0 -5 -2 -10 -4 -10 -3 0 -8 5 -11 10 -3 6 -1 10 4 10 6 0 11 -4 11 -10z m50 -53 c0 -16 4 -37 10 -47 8 -15 6 -17 -10 -13 -11 3 -20 10 -20 15 0 5 6 6 13 2 7 -4 7 -2 -2 7 -10 11 -15 11 -18 1 -3 -6 -10 -9 -16 -5 -7 5 -19 8 -27 9 -43 3 -50 5 -50 14 0 7 6 7 20 0 16 -8 18 -8 14 4 -3 9 3 17 15 21 12 3 21 10 21 16 0 5 11 8 25 7 20 -2 25 -8 25 -31z m79 -4 c2 -2 0 -3 -6 -3 -6 0 -21 9 -34 21 l-24 20 30 -17 c17 -10 32 -19 34 -21z m-532 10 c-4 -3 -10 -3 -14 0 -3 4 0 7 7 7 7 0 10 -3 7 -7z m596 -32 c-3 -10 1 -22 8 -27 9 -5 11 -2 6 9 -10 27 5 26 63 -4 30 -15 49 -28 43 -29 -7 0 -13 -5 -13 -11 0 -6 6 -9 14 -6 8 3 17 -1 20 -10 10 -25 -4 -53 -25 -53 -12 0 -17 -4 -13 -11 4 -8 0 -8 -15 0 -11 7 -21 14 -21 17 0 3 5 2 10 -1 6 -3 10 -1 10 5 0 6 -8 10 -17 7 -24 -5 -73 20 -96 49 -10 14 -22 22 -27 19 -5 -3 -12 0 -16 6 -4 7 -3 9 4 6 5 -4 23 6 39 23 33 35 32 35 26 11z m-98 -41 c3 -5 1 -10 -4 -10 -6 0 -11 5 -11 10 0 6 2 10 4 10 3 0 8 -4 11 -10z m62 -27 c-4 -3 -10 -3 -14 0 -3 4 0 7 7 7 7 0 10 -3 7 -7z m250 -59 c3 -9 13 -12 27 -8 15 3 28 -2 41 -16 11 -12 19 -25 17 -28 -2 -4 2 -8 9 -11 7 -2 9 1 5 8 -11 17 -1 13 18 -8 17 -19 17 -19 -1 -17 -10 2 -28 -8 -39 -22 l-22 -25 -15 28 c-9 18 -17 24 -21 16 -4 -6 -12 -11 -17 -11 -6 0 -7 4 -4 10 3 5 -3 15 -15 22 -23 15 -27 38 -5 38 22 0 18 25 -7 44 l-23 17 23 -11 c13 -6 26 -18 29 -26z m-80 -29 c0 -8 -4 -12 -9 -9 -5 3 -6 10 -3 15 9 13 12 11 12 -6z m28 -25 c3 -5 4 -10 1 -10 -3 0 -8 5 -11 10 -3 6 -4 10 -1 10 3 0 8 -4 11 -10z m30 -20 c3 -5 4 -10 1 -10 -3 0 -8 5 -11 10 -3 6 -4 10 -1 10 3 0 8 -4 11 -10z m181 -22 c4 -7 3 -8 -4 -4 -7 4 -12 3 -12 -3 0 -14 29 -41 43 -41 7 0 3 7 -7 15 -11 8 -15 15 -10 15 19 0 31 -21 26 -46 -2 -13 -9 -24 -14 -24 -5 0 -6 -4 -3 -10 12 -19 38 -11 32 10 -7 29 2 25 13 -6 7 -18 15 -24 26 -20 10 4 19 -4 28 -24 7 -17 15 -28 18 -25 3 3 8 -1 11 -9 4 -10 1 -13 -9 -9 -7 3 -14 1 -14 -5 0 -6 -3 -17 -6 -25 -3 -10 5 -20 26 -30 16 -9 28 -12 26 -8 -3 4 1 8 8 8 8 0 12 -8 9 -21 -4 -16 -2 -17 5 -7 7 10 22 -12 56 -82 45 -93 55 -124 37 -113 -5 3 -15 -9 -22 -27 -16 -38 -37 -62 -47 -52 -4 4 -1 10 6 12 14 5 17 33 2 33 -5 0 -8 6 -6 13 1 6 1 9 -1 5 -8 -13 -23 -9 -23 7 0 8 -20 52 -44 99 -25 50 -40 88 -34 94 5 5 5 19 0 33 -11 28 -52 68 -52 51 0 -7 5 -12 10 -12 6 0 10 -4 10 -8 0 -5 -7 -9 -15 -9 -8 0 -15 4 -15 8 0 4 -11 21 -26 38 -14 16 -25 34 -25 38 1 4 -3 8 -8 8 -5 0 -13 3 -17 7 -3 4 3 6 15 3 11 -2 21 -1 21 3 0 11 -43 37 -55 33 -5 -1 -7 0 -3 4 3 3 0 18 -8 33 -11 21 -11 28 -2 31 7 2 19 10 26 18 16 16 19 16 28 1z m159 -208 c3 -5 4 -10 1 -10 -3 0 -8 5 -11 10 -3 6 -4 10 -1 10 3 0 8 -4 11 -10z m-2030 -70 c-3 -5 -12 -10 -18 -10 -7 0 -6 4 3 10 19 12 23 12 15 0z m-40 -60 c3 -5 4 -10 1 -10 -3 0 -8 5 -11 10 -3 6 -4 10 -1 10 3 0 8 -4 11 -10z m-110 -40 c3 -5 4 -10 1 -10 -3 0 -8 5 -11 10 -3 6 -4 10 -1 10 3 0 8 -4 11 -10z m80 -31 c-4 -5 -12 -9 -19 -9 -18 0 -27 -35 -12 -50 6 -7 -1 -5 -16 4 -50 32 -42 63 16 57 20 -2 26 1 21 10 -5 8 -4 10 4 5 6 -4 9 -12 6 -17z m-113 -41 c-11 -11 14 -67 35 -81 9 -5 9 -15 3 -32 -6 -15 -5 -25 1 -27 8 -3 8 -16 1 -43 -20 -73 -35 -248 -30 -337 3 -48 2 -88 -3 -88 -5 0 -9 -13 -9 -30 0 -16 -5 -30 -11 -30 -6 0 -9 -12 -7 -27 4 -34 47 -48 49 -16 0 16 1 16 9 -2 5 -11 9 -27 9 -35 0 -9 -4 -8 -9 5 -5 11 -9 16 -9 10 -1 -5 7 -28 18 -50 29 -61 40 -104 30 -111 -5 -3 -9 -14 -9 -25 0 -11 -12 -32 -27 -47 -15 -15 -21 -20 -14 -10 8 11 9 18 1 23 -5 3 -10 16 -11 28 0 21 -1 21 -8 2 -6 -16 -11 -11 -23 30 -18 57 -22 137 -6 114 7 -10 8 -7 4 11 -3 14 -6 31 -6 38 0 6 -4 12 -10 12 -5 0 -7 -8 -3 -17 3 -10 3 -15 -2 -11 -7 7 -10 23 -14 73 -1 17 -3 18 -11 5 -8 -12 -10 -9 -10 13 0 15 4 27 8 27 5 0 8 81 8 179 -1 99 3 177 7 174 11 -7 6 100 -5 108 -10 7 10 69 23 69 5 0 9 5 9 11 0 5 -4 8 -10 4 -5 -3 -3 16 5 42 8 26 15 52 15 56 0 5 5 5 11 1 7 -4 7 -10 1 -16z m2358 -38 c0 -5 -5 -10 -11 -10 -5 0 -7 5 -4 10 3 6 8 10 11 10 2 0 4 -4 4 -10z m-1420 -91 c14 -25 -5 -53 -32 -46 -21 6 -23 -4 -6 -21 8 -8 15 -9 25 -1 9 8 13 8 13 0 0 -18 -29 -25 -45 -11 -8 7 -15 27 -15 44 0 53 39 75 60 35z m80 0 c14 -25 4 -75 -17 -83 -23 -9 -43 13 -43 48 0 53 39 75 60 35z m79 2 c13 -24 -9 -57 -33 -48 -19 7 -21 -4 -4 -21 8 -8 15 -9 25 -1 9 8 13 8 13 0 0 -18 -29 -25 -45 -11 -8 7 -15 27 -15 44 0 51 39 76 59 37z m82 3 c17 -21 -1 -49 -30 -48 -24 1 -27 -6 -9 -24 8 -8 15 -9 25 -1 9 8 13 8 13 0 0 -18 -29 -25 -45 -11 -8 7 -15 27 -15 44 0 51 34 73 61 40z m84 6 c-3 -5 -15 -10 -25 -10 -17 0 -16 -3 6 -25 27 -27 28 -42 2 -59 -12 -7 -21 -6 -32 4 -9 7 -14 15 -11 18 2 3 11 -1 20 -8 12 -10 16 -9 21 4 4 11 -3 27 -20 45 -34 36 -33 41 10 41 21 0 33 -4 29 -10z m79 -22 c8 -5 7 -8 -1 -8 -8 0 -13 -14 -13 -36 0 -20 -4 -33 -10 -29 -5 3 -7 19 -3 35 4 25 2 30 -13 30 -14 0 -15 -3 -6 -12 7 -7 12 -17 12 -22 -1 -12 -30 24 -30 36 0 4 9 8 20 8 12 0 20 7 21 18 0 13 2 14 6 2 3 -8 11 -18 17 -22z m74 19 c15 -17 3 -87 -15 -94 -21 -8 -37 13 -39 50 -3 50 29 75 54 44z m87 3 c-3 -5 -15 -10 -25 -10 -17 0 -16 -3 6 -25 27 -27 28 -42 2 -59 -12 -7 -21 -6 -32 4 -9 7 -14 15 -11 18 2 3 11 -1 20 -8 12 -10 16 -9 21 4 4 11 -3 27 -20 45 -34 36 -33 41 10 41 21 0 33 -4 29 -10z m843 -30 c16 -1 16 -1 0 -11 -15 -8 -16 -13 -5 -29 6 -11 19 -20 28 -20 14 0 16 9 13 48 l-3 47 9 -44 c7 -31 6 -49 -1 -58 -8 -9 -8 -13 0 -13 20 0 12 -20 -11 -30 l-23 -9 23 0 c14 -1 21 -5 16 -12 -3 -6 0 -15 7 -20 10 -6 15 -41 18 -134 3 -109 1 -125 -13 -125 -11 0 -16 -9 -16 -29 0 -16 -6 -32 -12 -34 -10 -4 -10 -8 2 -16 8 -5 18 -7 24 -4 5 3 6 1 3 -5 -4 -5 -17 -8 -30 -6 l-22 5 23 -12 c12 -7 22 -19 22 -28 0 -10 -3 -12 -8 -5 -4 7 -15 8 -27 3 -11 -4 -15 -8 -9 -8 32 -2 18 -70 -14 -72 -10 0 -12 -3 -4 -6 17 -7 15 -23 -3 -23 -22 0 -18 -18 5 -25 22 -7 27 -22 8 -22 -7 0 -23 -3 -36 -7 -22 -7 -22 -6 -16 36 3 24 7 49 10 56 2 7 -2 22 -8 32 -10 15 -10 22 -1 31 9 9 10 6 6 -11 -4 -16 -3 -21 5 -16 14 9 16 38 3 52 -6 5 -6 32 -2 64 8 54 9 54 10 13 0 -24 6 -43 12 -43 6 0 9 20 7 50 -2 27 -6 50 -10 50 -10 0 -10 175 -1 208 4 17 8 20 14 11 11 -18 3 66 -11 111 -5 19 -9 48 -9 65 1 17 3 22 6 13 2 -10 12 -18 21 -18z m-38 -15 c0 -8 -4 -15 -10 -15 -5 0 -10 7 -10 15 0 8 5 15 10 15 6 0 10 -7 10 -15z m10 -95 c0 -13 -1 -13 -10 0 -5 8 -10 22 -10 30 0 13 1 13 10 0 5 -8 10 -22 10 -30z m7 -37 c-4 -3 -7 0 -7 7 0 7 3 10 7 7 3 -4 3 -10 0 -14z m-2390 -15 c-3 -8 -6 -5 -6 6 -1 11 2 17 5 13 3 -3 4 -12 1 -19z m1007 -1 c9 -14 7 -21 -7 -32 -11 -7 -26 -11 -34 -8 -11 4 -14 2 -11 -8 3 -8 15 -14 27 -13 11 0 21 -3 21 -8 0 -15 -48 -8 -54 8 -8 21 -8 69 1 78 12 12 45 2 57 -17z m80 7 c3 -9 3 -21 -1 -27 -4 -7 -7 -21 -8 -32 0 -23 -32 -33 -49 -15 -8 9 -4 10 17 5 26 -7 38 7 17 20 -6 4 -5 13 2 25 16 25 3 38 -22 22 -11 -7 -20 -8 -20 -4 0 26 54 31 64 6z m75 2 c15 -18 -2 -56 -24 -56 -24 0 -17 -18 8 -23 19 -4 18 -4 -5 -6 -16 0 -28 3 -28 8 0 5 -3 17 -6 25 -5 12 -1 16 17 14 18 -2 25 3 27 20 4 24 -16 30 -36 10 -7 -7 -12 -8 -12 -2 0 27 40 33 59 10z m83 -24 c-6 -2 -12 -18 -12 -35 l-1 -32 -24 30 c-30 36 -32 55 -5 55 11 0 20 5 20 11 0 6 8 3 17 -7 13 -13 14 -19 5 -22z m77 4 c-5 -6 -9 -24 -9 -40 l-1 -31 -24 30 c-30 36 -32 55 -5 55 11 0 20 5 20 10 0 6 6 5 14 -2 9 -8 11 -17 5 -22z m87 9 c10 -42 -3 -75 -31 -75 -28 0 -41 33 -31 75 5 18 13 25 31 25 18 0 26 -7 31 -25z m72 13 c17 -17 15 -63 -3 -78 -35 -29 -65 9 -51 66 7 26 34 32 54 12z m73 -50 l19 -38 -38 1 c-28 2 -31 3 -10 6 25 4 26 5 12 31 -8 15 -14 36 -13 47 0 14 2 16 6 5 3 -8 14 -32 24 -52z m-1551 6 c0 -8 -4 -12 -10 -9 -5 3 -10 10 -10 16 0 5 5 9 10 9 6 0 10 -7 10 -16z m994 -192 l17 -32 -36 0 c-19 0 -35 5 -35 10 0 6 9 10 21 10 16 0 19 4 14 18 -4 9 -9 31 -11 47 -4 28 -3 28 5 5 4 -14 16 -40 25 -58z m160 62 c18 -18 18 -17 10 -38 -3 -9 -15 -16 -25 -16 -10 0 -19 -4 -19 -10 0 -5 9 -10 20 -10 11 0 20 -4 20 -10 0 -5 -11 -10 -24 -10 -16 0 -26 7 -30 23 -9 35 -8 38 19 31 21 -5 25 -3 25 16 0 18 -4 21 -25 18 -20 -4 -23 -3 -14 8 15 18 24 18 43 -2z m86 1 c7 -9 9 -22 5 -32 -5 -10 -7 -26 -6 -36 3 -24 -27 -33 -47 -13 -9 9 -11 16 -5 16 6 0 13 -6 16 -12 4 -10 7 -10 18 0 12 11 12 14 0 21 -9 6 -10 11 -2 15 6 4 11 14 11 23 0 11 -6 14 -27 8 -23 -5 -25 -4 -14 9 17 20 35 20 51 1z m81 -9 c14 -29 4 -75 -16 -83 -23 -8 -45 16 -45 51 0 55 41 76 61 32z m80 0 c14 -29 4 -75 -16 -83 -36 -13 -58 44 -35 88 15 26 38 24 51 -5z m80 0 c14 -29 4 -75 -16 -83 -23 -8 -45 16 -45 51 0 55 41 76 61 32z m69 -31 c0 -53 -1 -55 -20 -43 -11 7 -20 16 -20 21 0 4 5 5 10 2 6 -4 10 8 10 28 0 30 6 47 17 47 2 0 3 -25 3 -55z m-483 -5 l22 -50 -35 0 c-19 0 -34 5 -34 10 0 6 9 10 20 10 24 0 24 -1 5 44 -23 55 -3 42 22 -14z m-1070 -72 c-3 -8 -6 -5 -6 6 -1 11 2 17 5 13 3 -3 4 -12 1 -19z m1000 -60 c15 -19 4 -86 -15 -93 -21 -8 -36 10 -39 48 -3 44 3 57 25 57 11 0 24 -6 29 -12z m83 -9 c13 -23 5 -70 -13 -81 -21 -13 -47 11 -47 45 0 54 39 77 60 36z m79 2 c13 -24 -9 -57 -33 -48 -19 7 -21 -4 -4 -21 8 -8 15 -9 25 -1 9 8 13 8 13 1 0 -15 -22 -21 -42 -10 -12 5 -18 20 -18 41 0 52 39 77 59 38z m81 4 c16 -19 3 -55 -21 -55 -26 0 -24 -18 4 -23 19 -4 18 -4 -5 -6 -16 0 -28 3 -28 8 0 5 -3 17 -6 26 -5 13 -2 15 20 9 22 -5 26 -3 26 14 0 26 -19 39 -31 21 -4 -7 -11 -10 -16 -6 -8 9 14 27 33 27 6 0 17 -7 24 -15z m81 -9 c22 -48 -13 -103 -48 -75 -21 18 -12 53 15 57 23 4 29 16 12 27 -6 4 -17 1 -25 -5 -8 -7 -15 -8 -15 -3 0 31 47 30 61 -1z m80 0 c14 -29 5 -72 -16 -79 -21 -9 -45 20 -45 52 0 51 42 69 61 27z m80 0 c22 -48 -13 -103 -48 -75 -21 18 -12 53 15 57 26 4 24 28 -1 26 -9 -1 -14 2 -11 7 10 17 34 9 45 -15z m82 2 c14 -21 -7 -48 -35 -48 -17 0 -18 -2 -8 -15 10 -12 16 -13 26 -4 9 7 14 8 14 1 0 -15 -22 -21 -42 -10 -12 5 -18 20 -18 41 0 53 39 75 63 35z m-1486 -15 c-4 -3 -7 0 -7 7 0 7 3 10 7 7 3 -4 3 -10 0 -14z m2273 -113 c0 -5 -2 -10 -4 -10 -3 0 -8 5 -11 10 -3 6 -1 10 4 10 6 0 11 -4 11 -10z m27 -112 c-1 -11 -12 -21 -25 -25 -17 -4 -20 -8 -11 -14 7 -4 16 -6 20 -3 4 2 10 0 13 -5 3 -4 -4 -8 -17 -7 -14 1 -23 -6 -25 -19 -3 -16 -1 -17 7 -5 9 13 11 13 11 -2 0 -10 -7 -18 -15 -18 -12 0 -14 -4 -6 -17 11 -20 -11 -65 -86 -170 -47 -66 -70 -81 -103 -63 -34 18 -23 54 45 155 36 52 65 99 65 104 0 5 9 11 21 14 12 3 18 10 15 16 -4 5 -2 12 4 16 6 4 8 11 4 16 -3 5 -2 9 3 8 24 -4 33 4 33 27 0 14 -4 23 -8 20 -5 -3 -9 1 -9 7 0 10 8 10 33 -2 21 -9 32 -21 31 -33z m-2222 -28 c3 -5 1 -10 -4 -10 -6 0 -11 5 -11 10 0 6 2 10 4 10 3 0 8 -4 11 -10z m25 -50 c-11 -7 -11 -10 -2 -10 7 0 10 -4 7 -10 -3 -5 1 -10 9 -10 9 0 16 -3 16 -7 0 -5 20 -38 44 -75 25 -38 39 -68 33 -68 -8 0 -8 -3 -2 -8 6 -4 10 -13 9 -19 -1 -7 -2 -18 -3 -24 -1 -7 -10 -5 -26 5 -13 9 -33 16 -44 16 -11 0 -29 13 -41 30 -23 33 -35 75 -19 64 7 -4 9 1 7 10 -1 10 -7 17 -13 17 -11 0 -41 49 -37 62 1 4 -3 7 -9 7 -8 0 -8 5 1 15 7 8 29 15 49 15 27 0 32 -3 21 -10z m150 -204 c0 -3 -5 -8 -12 -12 -7 -4 -8 -3 -4 4 7 12 16 16 16 8z m-60 -47 c0 -14 -17 -10 -23 5 -4 10 -1 13 9 9 7 -3 14 -9 14 -14z m94 -10 c-3 -5 -2 -8 3 -7 5 2 31 -16 59 -40 46 -38 51 -46 47 -76 -3 -32 -1 -34 32 -38 24 -3 35 0 35 9 0 11 5 10 24 -2 16 -11 22 -22 19 -35 -6 -22 16 -27 34 -9 9 9 10 6 6 -12 -4 -13 -11 -27 -16 -30 -12 -9 -2 -39 13 -39 6 0 9 4 6 9 -3 4 6 6 19 3 16 -3 25 0 25 8 0 7 8 10 20 7 11 -3 20 -1 20 4 0 5 17 1 39 -10 21 -11 84 -34 141 -51 57 -16 108 -38 115 -47 7 -9 18 -14 26 -11 10 4 15 -5 16 -33 3 -44 -10 -57 -33 -35 -17 17 -44 22 -44 7 0 -4 -11 -6 -24 -4 -16 3 -23 10 -19 19 3 8 -1 14 -10 14 -8 0 -20 7 -28 16 -7 9 -25 14 -43 13 -17 -2 -36 0 -43 4 -6 4 -13 2 -15 -3 -2 -6 -29 0 -65 16 -34 15 -60 31 -58 35 3 4 1 10 -5 14 -5 3 -10 1 -10 -6 0 -7 -6 -5 -13 6 -9 11 -19 15 -27 10 -8 -5 -11 -4 -7 2 4 6 -3 19 -14 29 -17 16 -22 16 -29 4 -8 -12 -10 -10 -10 8 0 13 -4 20 -10 17 -6 -4 -7 -11 -3 -18 3 -6 -12 2 -35 19 -23 16 -42 33 -42 37 0 5 4 5 10 2 6 -3 7 1 4 9 -4 9 -15 14 -27 12 -23 -3 -121 70 -112 84 2 4 -2 16 -10 26 -16 21 -20 54 -6 54 5 0 11 10 14 22 5 18 8 19 21 9 9 -8 13 -17 10 -22z m-47 5 c-3 -3 -12 -4 -19 -1 -8 3 -5 6 6 6 11 1 17 -2 13 -5z m-28 -28 c9 -11 9 -16 -1 -22 -7 -4 -10 -4 -6 1 4 4 3 14 -3 22 -6 7 -9 13 -6 13 2 0 10 -6 16 -14z m1635 -165 c23 -25 18 -49 -16 -74 -27 -20 -28 -20 -41 -2 -9 11 -16 14 -20 7 -8 -12 -47 -4 -47 9 0 5 -3 8 -7 7 -5 -2 -9 1 -10 7 -2 5 6 10 17 10 11 0 20 5 21 10 2 13 50 43 70 44 9 1 24 -8 33 -18z m-1314 5 c0 -3 -5 -8 -12 -12 -7 -4 -8 -3 -4 4 7 12 16 16 16 8z m-33 -93 c-4 -3 -7 0 -7 7 0 7 3 10 7 7 3 -4 3 -10 0 -14z m1127 -5 c-6 -10 -4 -10 7 0 7 6 21 12 31 12 18 0 42 -33 31 -44 -3 -3 -1 -6 5 -6 7 0 12 5 12 10 0 6 5 10 11 10 8 0 8 -4 0 -14 -14 -17 -54 -29 -44 -14 4 7 1 8 -6 4 -7 -5 -10 -15 -6 -25 5 -13 4 -14 -6 -3 -14 13 -33 17 -25 4 2 -4 2 -13 -2 -19 -9 -13 -185 -73 -192 -64 -3 3 -18 8 -35 9 -16 2 -31 8 -33 12 -2 5 -12 1 -22 -7 -10 -9 -17 -19 -15 -23 2 -4 -6 -6 -18 -5 -12 1 -26 -1 -32 -5 -5 -4 -46 -10 -90 -14 -63 -5 -86 -3 -109 9 -18 10 -42 14 -60 10 -26 -4 -28 -4 -9 5 12 5 25 20 29 34 5 20 14 26 47 30 81 10 222 13 242 5 17 -6 16 -8 -10 -9 -19 -2 -23 -4 -12 -7 10 -3 26 -2 35 2 16 6 16 7 -1 19 -15 12 -12 14 30 20 27 4 91 22 143 40 111 39 113 40 104 24z m-584 -83 c0 -10 -41 -11 -49 -1 -8 10 -3 11 19 8 17 -2 30 -5 30 -7z m-263 -22 c-4 -3 -10 -3 -14 0 -3 4 0 7 7 7 7 0 10 -3 7 -7z m26 -17 c4 -10 0 -12 -15 -8 -15 4 -17 7 -6 13 17 11 15 11 21 -5z m587 -35 c0 -5 -9 -11 -19 -14 -14 -3 -18 -1 -14 9 6 15 33 19 33 5z"/>
<path d="M830 2500 c0 -7 3 -10 7 -7 3 4 3 10 0 14 -4 3 -7 0 -7 -7z"/>
<path d="M2703 2023 c4 -3 10 -3 14 0 3 4 0 7 -7 7 -7 0 -10 -3 -7 -7z"/>
<path d="M361 1964 c0 -11 3 -14 6 -6 3 7 2 16 -1 19 -3 4 -6 -2 -5 -13z"/>
<path d="M2690 1360 c0 -7 3 -10 7 -7 3 4 3 10 0 14 -4 3 -7 0 -7 -7z"/>
<path d="M2698 1183 c7 -3 16 -2 19 1 4 3 -2 6 -13 5 -11 0 -14 -3 -6 -6z"/>
<path d="M510 995 c0 -5 5 -17 10 -25 5 -8 10 -10 10 -5 0 6 -5 17 -10 25 -5 8 -10 11 -10 5z"/>
<path d="M490 889 c7 -11 14 -19 16 -16 7 7 -7 37 -17 37 -6 0 -5 -9 1 -21z"/>
<path d="M660 790 c0 -7 3 -10 7 -7 3 4 3 10 0 14 -4 3 -7 0 -7 -7z"/>
<path d="M773 683 c4 -3 10 -3 14 0 3 4 0 7 -7 7 -7 0 -10 -3 -7 -7z"/>
<path d="M1220 446 c0 -2 7 -7 16 -10 8 -3 12 -2 9 4 -6 10 -25 14 -25 6z"/>
<path d="M1773 413 c4 -3 10 -3 14 0 3 4 0 7 -7 7 -7 0 -10 -3 -7 -7z"/>
<path d="M1533 333 c4 -3 10 -3 14 0 3 4 0 7 -7 7 -7 0 -10 -3 -7 -7z"/>
</g>
<g id="layer106" fill="#a0a0a2" stroke="none">
<path d="M0 2055 l0 -2055 6000 0 6000 0 0 2055 0 2055 -6000 0 -6000 0 0 -2055z m5845 790 c80 -22 211 -86 255 -124 l35 -31 -93 -90 -93 -89 -52 29 c-148 82 -349 88 -502 15 -122 -58 -214 -173 -250 -310 -20 -78 -20 -249 1 -329 22 -86 80 -191 136 -247 126 -126 355 -165 494 -84 67 39 84 73 84 171 0 197 -102 264 -402 264 l-118 0 0 121 0 122 178 -6 c153 -4 189 -8 267 -32 114 -34 176 -67 242 -132 132 -128 173 -384 91 -560 -77 -165 -287 -252 -573 -240 -236 10 -386 80 -528 247 -65 76 -124 193 -154 308 -22 84 -26 118 -27 252 0 132 3 167 22 233 80 280 278 460 572 523 88 18 333 12 415 -11z m4270 -5 c77 -24 204 -88 247 -123 l28 -23 -93 -91 -92 -92 -76 38 c-192 97 -434 67 -570 -69 -94 -95 -139 -223 -139 -400 0 -175 37 -284 128 -383 93 -99 187 -137 340 -137 111 0 179 16 261 62 l54 30 93 -93 93 -93 -47 -34 c-69 -50 -151 -89 -239 -114 -114 -33 -326 -33 -433 1 -264 82 -459 285 -530 551 -26 98 -31 283 -11 385 48 239 186 430 381 529 135 69 218 86 395 82 110 -3 155 -8 210 -26z m-5873 -28 c147 -40 234 -106 284 -215 27 -57 29 -71 29 -182 0 -116 -1 -123 -33 -187 -39 -79 -93 -131 -176 -168 -34 -15 -160 -60 -281 -99 -121 -40 -240 -85 -265 -101 -56 -36 -82 -78 -83 -136 0 -36 5 -50 29 -75 51 -53 93 -59 441 -59 l313 0 0 -135 0 -135 -317 0 c-357 0 -409 7 -530 64 -141 68 -211 163 -220 305 -12 176 64 312 227 404 49 27 98 45 300 107 233 72 315 129 315 217 0 54 -27 91 -91 123 -49 25 -50 25 -399 30 l-350 5 -3 133 -3 134 368 -4 c336 -4 375 -6 445 -26z m3478 -471 c0 -557 -4 -601 -64 -727 -61 -128 -172 -216 -336 -265 -70 -21 -99 -23 -417 -26 l-343 -5 0 136 0 136 299 0 c274 0 304 2 366 21 86 26 151 88 186 175 23 58 24 67 27 422 l3 362 -264 0 c-288 0 -338 -7 -397 -56 -46 -39 -63 -81 -63 -149 0 -66 16 -105 60 -146 103 -96 332 -105 490 -19 l54 28 -3 -141 -3 -142 -70 -19 c-100 -28 -364 -29 -449 -3 -165 51 -265 127 -323 245 -38 76 -38 76 -38 201 1 107 4 135 24 184 58 146 216 249 431 281 14 2 206 4 428 5 l402 1 0 -499z m582 -23 c4 -581 5 -594 70 -659 60 -60 79 -64 343 -69 l240 -5 3 -133 3 -134 -258 4 c-235 4 -264 7 -328 27 -221 72 -305 180 -344 438 -7 44 -11 262 -11 562 l0 491 140 0 139 0 3 -522z m2638 -104 l0 -626 238 4 237 3 63 34 c74 40 104 75 135 157 21 58 22 71 25 557 l3 497 139 0 140 0 0 -457 c0 -684 -14 -768 -145 -898 -126 -126 -280 -165 -652 -165 l-183 0 -2 -347 -3 -348 -137 -3 -138 -3 0 1111 0 1110 140 0 140 0 0 -626z m-9255 601 c110 -10 296 -69 434 -137 184 -91 331 -208 447 -359 53 -69 146 -249 169 -326 9 -32 21 -69 25 -83 35 -104 48 -446 21 -570 -42 -200 -106 -349 -218 -507 -47 -66 -70 -81 -103 -63 -33 18 -24 55 35 140 47 66 90 148 134 255 63 150 85 383 57 595 -24 174 -92 348 -192 490 -130 183 -419 374 -659 435 -159 40 -360 51 -462 26 -171 -43 -261 -75 -370 -132 -398 -207 -613 -570 -613 -1035 0 -81 21 -215 52 -329 87 -328 400 -635 753 -740 50 -14 101 -30 115 -35 38 -14 105 -22 223 -27 126 -6 242 12 381 58 78 26 243 106 271 130 25 24 80 -12 73 -47 -10 -55 -268 -176 -474 -224 -67 -15 -376 -16 -429 -2 -22 6 -74 19 -115 28 -41 10 -82 21 -90 25 -8 5 -44 20 -80 35 -157 63 -295 153 -419 272 -184 178 -285 374 -337 652 -18 100 -18 362 1 465 45 249 142 441 309 614 101 104 172 159 289 225 140 78 196 101 350 141 151 39 247 46 422 30z m-365 -926 c14 -25 -5 -53 -32 -46 -21 6 -23 -4 -6 -21 8 -8 15 -9 25 -1 9 8 13 8 13 0 0 -18 -29 -25 -45 -11 -8 7 -15 27 -15 44 0 53 39 75 60 35z m80 0 c14 -25 4 -75 -17 -83 -23 -9 -43 13 -43 48 0 53 39 75 60 35z m79 2 c13 -24 -9 -57 -33 -48 -19 7 -21 -4 -4 -21 8 -8 15 -9 25 -1 9 8 13 8 13 0 0 -18 -29 -25 -45 -11 -8 7 -15 27 -15 44 0 51 39 76 59 37z m82 3 c17 -21 -1 -49 -30 -48 -24 1 -27 -6 -9 -24 8 -8 15 -9 25 -1 9 8 13 8 13 0 0 -18 -29 -25 -45 -11 -8 7 -15 27 -15 44 0 51 34 73 61 40z m84 6 c-3 -5 -15 -10 -25 -10 -17 0 -16 -3 6 -25 27 -27 28 -42 2 -59 -12 -7 -21 -6 -32 4 -9 7 -14 15 -11 18 2 3 11 -1 20 -8 12 -10 16 -9 21 4 4 11 -3 27 -20 45 -34 36 -33 41 10 41 21 0 33 -4 29 -10z m79 -22 c8 -5 7 -8 -1 -8 -8 0 -13 -14 -13 -36 0 -20 -4 -33 -10 -29 -5 3 -7 19 -3 35 4 25 2 30 -13 30 -14 0 -15 -3 -6 -12 7 -7 12 -17 12 -22 -1 -12 -30 24 -30 36 0 4 9 8 20 8 12 0 20 7 21 18 0 13 2 14 6 2 3 -8 11 -18 17 -22z m74 19 c15 -17 3 -87 -15 -94 -21 -8 -37 13 -39 50 -3 50 29 75 54 44z m87 3 c-3 -5 -15 -10 -25 -10 -17 0 -16 -3 6 -25 27 -27 28 -42 2 -59 -12 -7 -21 -6 -32 4 -9 7 -14 15 -11 18 2 3 11 -1 20 -8 12 -10 16 -9 21 4 4 11 -3 27 -20 45 -34 36 -33 41 10 41 21 0 33 -4 29 -10z m-561 -193 c9 -14 7 -21 -7 -32 -11 -7 -26 -11 -34 -8 -11 4 -14 2 -11 -8 3 -8 15 -14 27 -13 11 0 21 -3 21 -8 0 -15 -48 -8 -54 8 -8 21 -8 69 1 78 12 12 45 2 57 -17z m80 7 c3 -9 3 -21 -1 -27 -4 -7 -7 -21 -8 -32 0 -23 -32 -33 -49 -15 -8 9 -4 10 17 5 26 -7 38 7 17 20 -6 4 -5 13 2 25 16 25 3 38 -22 22 -11 -7 -20 -8 -20 -4 0 26 54 31 64 6z m75 2 c15 -18 -2 -56 -24 -56 -24 0 -17 -18 8 -23 19 -4 18 -4 -5 -6 -16 0 -28 3 -28 8 0 5 -3 17 -6 25 -5 12 -1 16 17 14 18 -2 25 3 27 20 4 24 -16 30 -36 10 -7 -7 -12 -8 -12 -2 0 27 40 33 59 10z m83 -24 c-6 -2 -12 -18 -12 -35 l-1 -32 -24 30 c-30 36 -32 55 -5 55 11 0 20 5 20 11 0 6 8 3 17 -7 13 -13 14 -19 5 -22z m77 4 c-5 -6 -9 -24 -9 -40 l-1 -31 -24 30 c-30 36 -32 55 -5 55 11 0 20 5 20 10 0 6 6 5 14 -2 9 -8 11 -17 5 -22z m87 9 c10 -42 -3 -75 -31 -75 -28 0 -41 33 -31 75 5 18 13 25 31 25 18 0 26 -7 31 -25z m72 13 c17 -17 15 -63 -3 -78 -35 -29 -65 9 -51 66 7 26 34 32 54 12z m73 -50 l19 -38 -38 1 c-28 2 -31 3 -10 6 25 4 26 5 12 31 -8 15 -14 36 -13 47 0 14 2 16 6 5 3 -8 14 -32 24 -52z m-557 -186 l17 -32 -36 0 c-19 0 -35 5 -35 10 0 6 9 10 21 10 16 0 19 4 14 18 -4 9 -9 31 -11 47 -4 28 -3 28 5 5 4 -14 16 -40 25 -58z m160 62 c18 -18 18 -17 10 -38 -3 -9 -15 -16 -25 -16 -10 0 -19 -4 -19 -10 0 -5 9 -10 20 -10 11 0 20 -4 20 -10 0 -5 -11 -10 -24 -10 -16 0 -26 7 -30 23 -9 35 -8 38 19 31 21 -5 25 -3 25 16 0 18 -4 21 -25 18 -20 -4 -23 -3 -14 8 15 18 24 18 43 -2z m86 1 c7 -9 9 -22 5 -32 -5 -10 -7 -26 -6 -36 3 -24 -27 -33 -47 -13 -9 9 -11 16 -5 16 6 0 13 -6 16 -12 4 -10 7 -10 18 0 12 11 12 14 0 21 -9 6 -10 11 -2 15 6 4 11 14 11 23 0 11 -6 14 -27 8 -23 -5 -25 -4 -14 9 17 20 35 20 51 1z m81 -9 c14 -29 4 -75 -16 -83 -23 -8 -45 16 -45 51 0 55 41 76 61 32z m80 0 c14 -29 4 -75 -16 -83 -36 -13 -58 44 -35 88 15 26 38 24 51 -5z m80 0 c14 -29 4 -75 -16 -83 -23 -8 -45 16 -45 51 0 55 41 76 61 32z m69 -31 c0 -53 -1 -55 -20 -43 -11 7 -20 16 -20 21 0 4 5 5 10 2 6 -4 10 8 10 28 0 30 6 47 17 47 2 0 3 -25 3 -55z m-483 -5 l22 -50 -35 0 c-19 0 -34 5 -34 10 0 6 9 10 20 10 24 0 24 -1 5 44 -23 55 -3 42 22 -14z m-70 -132 c15 -19 4 -86 -15 -93 -21 -8 -36 10 -39 48 -3 44 3 57 25 57 11 0 24 -6 29 -12z m83 -9 c13 -23 5 -70 -13 -81 -21 -13 -47 11 -47 45 0 54 39 77 60 36z m79 2 c13 -24 -9 -57 -33 -48 -19 7 -21 -4 -4 -21 8 -8 15 -9 25 -1 9 8 13 8 13 1 0 -15 -22 -21 -42 -10 -12 5 -18 20 -18 41 0 52 39 77 59 38z m81 4 c16 -19 3 -55 -21 -55 -26 0 -24 -18 4 -23 19 -4 18 -4 -5 -6 -16 0 -28 3 -28 8 0 5 -3 17 -6 26 -5 13 -2 15 20 9 22 -5 26 -3 26 14 0 26 -19 39 -31 21 -4 -7 -11 -10 -16 -6 -8 9 14 27 33 27 6 0 17 -7 24 -15z m81 -9 c22 -48 -13 -103 -48 -75 -21 18 -12 53 15 57 23 4 29 16 12 27 -6 4 -17 1 -25 -5 -8 -7 -15 -8 -15 -3 0 31 47 30 61 -1z m80 0 c14 -29 5 -72 -16 -79 -21 -9 -45 20 -45 52 0 51 42 69 61 27z m80 0 c22 -48 -13 -103 -48 -75 -21 18 -12 53 15 57 26 4 24 28 -1 26 -9 -1 -14 2 -11 7 10 17 34 9 45 -15z m82 2 c14 -21 -7 -48 -35 -48 -17 0 -18 -2 -8 -15 10 -12 16 -13 26 -4 9 7 14 8 14 1 0 -15 -22 -21 -42 -10 -12 5 -18 20 -18 41 0 53 39 75 63 35z"/>
<path d="M1277 1887 c-3 -8 -1 -20 4 -28 11 -19 34 3 26 25 -8 20 -23 21 -30 3z"/>
<path d="M1354 1874 c-7 -28 6 -61 22 -56 14 3 11 75 -3 79 -7 3 -15 -8 -19 -23z"/>
<path d="M1433 1884 c-8 -21 13 -42 28 -27 13 13 5 43 -11 43 -6 0 -13 -7 -17 -16z"/>
<path d="M1520 1875 c0 -17 5 -25 13 -22 6 2 12 12 12 22 0 10 -6 20 -12 23 -8 2 -13 -6 -13 -23z"/>
<path d="M1756 1885 c-6 -17 17 -31 34 -20 8 5 8 11 -1 21 -15 18 -25 18 -33 -1z"/>
<path d="M1762 1829 c2 -6 8 -10 13 -10 5 0 11 4 13 10 2 6 -4 11 -13 11 -9 0 -15 -5 -13 -11z"/>
<path d="M1275 1710 c-8 -14 3 -30 21 -30 8 0 14 9 14 20 0 21 -24 28 -35 10z"/>
<path d="M1590 1686 c0 -2 7 -9 15 -16 12 -10 15 -10 15 4 0 9 -7 16 -15 16 -8 0 -15 -2 -15 -4z"/>
<path d="M1675 1700 c-9 -27 3 -60 21 -60 10 0 14 12 14 40 0 43 -23 57 -35 20z"/>
<path d="M1755 1700 c-9 -27 3 -60 21 -60 10 0 14 12 14 40 0 43 -23 57 -35 20z"/>
<path d="M1602 1538 c-23 -23 -7 -89 17 -74 13 8 15 72 3 80 -5 3 -14 0 -20 -6z"/>
<path d="M1677 1533 c-12 -11 -8 -50 6 -62 19 -15 27 -4 27 36 0 31 -16 44 -33 26z"/>
<path d="M1755 1520 c-7 -23 12 -63 26 -55 15 10 11 75 -5 75 -8 0 -17 -9 -21 -20z"/>
<path d="M1275 1360 c-8 -14 3 -30 21 -30 8 0 14 9 14 20 0 21 -24 28 -35 10z"/>
<path d="M1285 1310 c-4 -6 -3 -16 3 -22 6 -6 12 -6 17 2 4 6 3 16 -3 22 -6 6 -12 6 -17 -2z"/>
<path d="M1357 1364 c-13 -13 -7 -61 8 -74 12 -10 16 -9 21 3 14 37 -8 91 -29 71z"/>
<path d="M1436 1361 c-9 -14 5 -42 18 -38 15 5 14 39 -1 44 -6 2 -14 0 -17 -6z"/>
<path d="M1595 1320 c-8 -13 14 -42 26 -34 5 3 9 14 9 25 0 20 -24 26 -35 9z"/>
<path d="M1675 1347 c-8 -30 12 -74 27 -59 13 13 6 74 -9 79 -7 3 -15 -7 -18 -20z"/>
<path d="M1757 1316 c-6 -16 16 -40 26 -29 4 3 7 15 7 25 0 21 -25 24 -33 4z"/>
<path d="M1838 1358 c-7 -19 2 -38 18 -38 8 0 14 10 14 25 0 26 -24 35 -32 13z"/>
</g>
<g id="layer107" fill="#fefefe" stroke="none">
<path d="M2 2918 c0 -656 4 -1166 8 -1133 24 204 140 506 257 669 255 354 589 569 1018 654 103 20 410 22 510 3 276 -53 526 -165 728 -328 l69 -55 92 88 c52 49 94 93 95 98 0 5 -15 26 -34 47 -19 22 -35 49 -35 61 0 33 1026 1058 1059 1058 18 0 57 -33 148 -125 68 -69 123 -133 123 -142 0 -22 -1039 -1063 -1061 -1063 -8 0 -34 16 -56 35 -23 19 -45 35 -50 35 -5 0 -50 -41 -100 -91 l-92 -90 70 -85 c211 -259 330 -574 345 -915 13 -273 -32 -493 -154 -759 -75 -164 -247 -382 -402 -511 -115 -95 -318 -214 -440 -258 -19 -7 -44 -17 -55 -22 -94 -40 -340 -79 -501 -79 -591 0 -1130 339 -1389 875 -35 72 -71 155 -80 185 -36 120 -63 242 -68 305 -2 22 -4 -278 -5 -667 l-2 -708 6000 0 6000 0 0 2055 0 2055 -6000 0 -6000 0 2 -1192z m5843 -73 c80 -22 211 -86 255 -124 l35 -31 -93 -90 -93 -89 -52 29 c-148 82 -349 88 -502 15 -122 -58 -214 -173 -250 -310 -20 -78 -20 -249 1 -329 22 -86 80 -191 136 -247 126 -126 355 -165 494 -84 67 39 84 73 84 171 0 197 -102 264 -402 264 l-118 0 0 121 0 122 178 -6 c153 -4 189 -8 267 -32 114 -34 176 -67 242 -132 132 -128 173 -384 91 -560 -77 -165 -287 -252 -573 -240 -236 10 -386 80 -528 247 -65 76 -124 193 -154 308 -22 84 -26 118 -27 252 0 132 3 167 22 233 80 280 278 460 572 523 88 18 333 12 415 -11z m4270 -5 c77 -24 204 -88 247 -123 l28 -23 -93 -91 -92 -92 -76 38 c-192 97 -434 67 -570 -69 -94 -95 -139 -223 -139 -400 0 -175 37 -284 128 -383 93 -99 187 -137 340 -137 111 0 179 16 261 62 l54 30 93 -93 93 -93 -47 -34 c-69 -50 -151 -89 -239 -114 -114 -33 -326 -33 -433 1 -264 82 -459 285 -530 551 -26 98 -31 283 -11 385 48 239 186 430 381 529 135 69 218 86 395 82 110 -3 155 -8 210 -26z m-5873 -28 c147 -40 234 -106 284 -215 27 -57 29 -71 29 -182 0 -116 -1 -123 -33 -187 -39 -79 -93 -131 -176 -168 -34 -15 -160 -60 -281 -99 -121 -40 -240 -85 -265 -101 -56 -36 -82 -78 -83 -136 0 -36 5 -50 29 -75 51 -53 93 -59 441 -59 l313 0 0 -135 0 -135 -317 0 c-357 0 -409 7 -530 64 -141 68 -211 163 -220 305 -12 176 64 312 227 404 49 27 98 45 300 107 233 72 315 129 315 217 0 54 -27 91 -91 123 -49 25 -50 25 -399 30 l-350 5 -3 133 -3 134 368 -4 c336 -4 375 -6 445 -26z m3478 -471 c0 -557 -4 -601 -64 -727 -61 -128 -172 -216 -336 -265 -70 -21 -99 -23 -417 -26 l-343 -5 0 136 0 136 299 0 c274 0 304 2 366 21 86 26 151 88 186 175 23 58 24 67 27 422 l3 362 -264 0 c-288 0 -338 -7 -397 -56 -46 -39 -63 -81 -63 -149 0 -66 16 -105 60 -146 103 -96 332 -105 490 -19 l54 28 -3 -141 -3 -142 -70 -19 c-100 -28 -364 -29 -449 -3 -165 51 -265 127 -323 245 -38 76 -38 76 -38 201 1 107 4 135 24 184 58 146 216 249 431 281 14 2 206 4 428 5 l402 1 0 -499z m582 -23 c4 -581 5 -594 70 -659 60 -60 79 -64 343 -69 l240 -5 3 -133 3 -134 -258 4 c-235 4 -264 7 -328 27 -221 72 -305 180 -344 438 -7 44 -11 262 -11 562 l0 491 140 0 139 0 3 -522z m2638 -104 l0 -626 238 4 237 3 63 34 c74 40 104 75 135 157 21 58 22 71 25 557 l3 497 139 0 140 0 0 -457 c0 -684 -14 -768 -145 -898 -126 -126 -280 -165 -652 -165 l-183 0 -2 -347 -3 -348 -137 -3 -138 -3 0 1111 0 1110 140 0 140 0 0 -626z m-5139 -1339 c76 -165 138 -305 139 -311 0 -7 -7 -14 -15 -18 -20 -7 -30 10 -111 189 -37 83 -72 155 -78 162 -8 9 -30 -31 -86 -154 -41 -91 -81 -174 -88 -184 -13 -19 -42 -16 -42 5 0 7 40 100 90 206 49 107 90 200 90 206 0 5 -18 48 -40 94 -23 46 -38 90 -35 97 15 42 44 -5 176 -292z m-2500 110 c24 -9 53 -25 65 -36 l22 -21 4 28 c2 21 8 29 23 29 19 0 20 -8 23 -218 l2 -218 -22 3 c-23 3 -23 6 -28 161 l-5 159 -32 28 c-82 74 -209 56 -253 -35 -17 -35 -20 -62 -20 -179 0 -137 0 -137 -22 -134 -23 3 -23 5 -23 153 0 141 2 153 24 193 28 47 57 70 116 88 54 17 75 17 126 -1z m575 -6 c12 -4 38 -22 57 -39 l36 -31 3 38 c2 30 7 38 23 38 19 0 20 -8 23 -110 5 -154 -8 -205 -66 -265 -30 -31 -61 -52 -87 -59 -163 -44 -298 55 -299 220 0 108 60 188 163 215 45 12 104 9 147 -7z m314 -149 c3 -99 10 -163 18 -177 33 -58 156 -82 219 -43 60 36 67 58 73 225 5 142 6 150 25 150 19 0 20 -8 23 -133 3 -151 -6 -198 -49 -246 -63 -72 -190 -87 -266 -33 l-38 27 -5 -22 c-4 -14 -15 -24 -28 -26 l-22 -3 0 214 c0 117 3 217 7 221 4 4 14 5 23 4 12 -3 16 -29 20 -158z m715 135 c0 -16 -9 -21 -43 -26 -81 -11 -101 -56 -102 -226 l0 -102 63 -3 c54 -3 62 -5 62 -23 0 -18 -8 -20 -62 -23 l-62 -3 -3 -77 c-2 -60 -6 -77 -18 -77 -12 0 -16 17 -18 78 l-3 77 -40 0 c-27 0 -42 5 -46 16 -8 21 13 34 55 34 l32 0 0 139 c0 127 2 141 23 172 28 42 81 70 127 67 27 -2 35 -7 35 -23z m175 -195 c0 -213 -1 -220 -20 -220 -19 0 -20 7 -20 220 0 213 1 220 20 220 19 0 20 -7 20 -220z m385 195 c0 -16 -9 -21 -42 -26 -83 -11 -103 -54 -103 -221 l0 -107 63 -3 c54 -3 62 -5 62 -23 0 -18 -8 -20 -62 -23 l-62 -3 -3 -77 c-2 -60 -6 -77 -18 -77 -12 0 -16 17 -18 78 l-3 77 -40 0 c-27 0 -42 5 -46 16 -8 21 13 34 55 34 l32 0 0 139 c0 127 2 141 23 172 28 42 81 70 127 67 27 -2 35 -7 35 -23z m-375 -530 c6 -8 9 -23 5 -35 -5 -17 -13 -20 -38 -18 -21 2 -33 9 -35 21 -8 39 42 63 68 32z"/>
<path d="M3725 935 c-65 -23 -115 -98 -115 -173 0 -55 48 -130 102 -158 40 -21 124 -18 167 6 124 70 116 262 -13 321 -49 22 -87 23 -141 4z"/>
<path d="M3295 3490 l-469 -470 74 -75 75 -75 467 467 c258 258 468 473 468 478 0 10 -131 145 -140 145 -3 0 -217 -211 -475 -470z"/>
<path d="M1340 3015 c-423 -67 -771 -291 -1006 -646 -46 -70 -84 -130 -84 -133 0 -3 -11 -29 -24 -58 -57 -126 -94 -245 -117 -383 -18 -101 -18 -369 -1 -455 34 -171 65 -267 130 -410 49 -108 165 -272 266 -378 56 -59 165 -151 237 -200 105 -71 310 -165 420 -192 24 -6 73 -18 109 -27 81 -20 460 -25 530 -6 25 6 68 17 95 23 124 30 270 89 390 159 171 100 355 275 474 451 226 333 301 789 196 1185 -55 209 -181 440 -327 601 -49 54 -75 79 -161 156 -111 100 -347 223 -517 270 -199 55 -433 71 -610 43z m345 -200 c110 -10 296 -69 434 -137 184 -91 331 -208 447 -359 53 -69 146 -249 169 -326 9 -32 21 -69 25 -83 35 -104 48 -446 21 -570 -42 -200 -106 -349 -218 -507 -47 -66 -70 -81 -103 -63 -33 18 -24 55 35 140 47 66 90 148 134 255 63 150 85 383 57 595 -24 174 -92 348 -192 490 -130 183 -419 374 -659 435 -159 40 -360 51 -462 26 -171 -43 -261 -75 -370 -132 -398 -207 -613 -570 -613 -1035 0 -81 21 -215 52 -329 87 -328 400 -635 753 -740 50 -14 101 -30 115 -35 38 -14 105 -22 223 -27 126 -6 242 12 381 58 78 26 243 106 271 130 25 24 80 -12 73 -47 -10 -55 -268 -176 -474 -224 -67 -15 -376 -16 -429 -2 -22 6 -74 19 -115 28 -41 10 -82 21 -90 25 -8 5 -44 20 -80 35 -157 63 -295 153 -419 272 -184 178 -285 374 -337 652 -18 100 -18 362 1 465 45 249 142 441 309 614 101 104 172 159 289 225 140 78 196 101 350 141 151 39 247 46 422 30z m-362 -927 c13 -20 -7 -48 -35 -48 -11 0 -16 -4 -12 -11 3 -6 15 -9 25 -6 23 6 26 -11 4 -19 -23 -9 -45 15 -45 50 0 52 39 73 63 34z m78 -2 c14 -29 4 -75 -16 -83 -23 -8 -45 16 -45 51 0 55 41 76 61 32z m79 3 c14 -26 -5 -53 -32 -45 -12 3 -18 0 -15 -7 2 -7 14 -12 26 -11 11 0 21 -3 21 -8 0 -15 -30 -21 -45 -8 -18 15 -20 86 -2 93 24 10 36 7 47 -14z m80 6 c16 -19 3 -55 -21 -55 -10 0 -19 -5 -19 -11 0 -6 9 -9 20 -6 23 6 27 -11 5 -19 -23 -9 -45 15 -45 50 0 49 34 73 60 41z m85 5 c-3 -5 -15 -10 -25 -10 -17 0 -16 -3 6 -25 27 -27 28 -42 1 -59 -13 -8 -21 -6 -34 7 -17 18 -17 18 10 12 35 -9 37 13 2 43 -34 30 -31 42 11 42 21 0 33 -4 29 -10z m76 -57 c-7 -44 -28 -46 -23 -3 3 23 -1 30 -14 30 -14 0 -14 -3 -4 -15 7 -9 11 -18 8 -21 -3 -2 -13 7 -22 21 -16 24 -16 25 9 25 17 0 25 6 25 18 1 16 1 16 14 0 8 -11 11 -31 7 -55z m77 54 c7 -8 9 -29 5 -51 -11 -67 -55 -58 -60 11 -3 48 30 71 55 40z m92 3 c0 -5 -9 -10 -20 -10 -20 0 -20 0 1 -30 18 -24 20 -32 9 -45 -16 -19 -34 -19 -51 1 -11 13 -9 14 14 9 35 -9 36 13 2 45 -34 32 -32 40 10 40 19 0 35 -4 35 -10z m-565 -190 c9 -27 -12 -52 -36 -45 -15 5 -17 2 -13 -10 4 -10 14 -15 25 -12 11 3 19 1 19 -5 0 -5 -12 -8 -27 -6 -24 2 -29 8 -31 36 -5 47 3 62 32 62 16 0 27 -7 31 -20z m79 4 c3 -9 3 -21 -1 -27 -4 -7 -7 -21 -8 -32 0 -24 -46 -28 -53 -5 -4 13 -3 13 11 2 9 -8 22 -10 28 -6 9 5 7 10 -5 19 -14 11 -15 13 -1 19 18 7 20 36 2 36 -7 0 -18 -5 -25 -12 -7 -7 -12 -8 -12 -2 0 28 54 34 64 8z m81 -4 c7 -23 -10 -50 -31 -50 -23 0 -16 -18 9 -23 20 -4 19 -4 -4 -6 -16 0 -29 5 -33 15 -10 27 -7 34 19 34 15 0 25 6 25 14 0 22 -19 30 -35 16 -8 -7 -15 -8 -15 -3 0 30 56 32 65 3z m111 -2 c13 2 24 9 24 14 0 5 8 2 17 -8 13 -13 14 -19 5 -22 -6 -2 -12 -17 -12 -33 0 -37 -11 -37 -33 1 -10 17 -24 30 -31 30 -9 0 -12 -10 -10 -30 4 -37 -8 -38 -35 -4 -26 34 -27 54 -1 54 11 0 20 5 20 12 0 8 5 7 16 -3 9 -9 25 -14 40 -11z m130 -3 c10 -42 -3 -75 -31 -75 -28 0 -41 33 -31 75 5 18 13 25 31 25 18 0 26 -7 31 -25z m80 0 c3 -14 3 -37 0 -51 -5 -20 -12 -25 -34 -22 -23 2 -28 8 -30 36 -5 47 3 62 32 62 19 0 27 -7 32 -25z m61 -25 l22 -50 -37 1 c-31 2 -33 3 -9 6 22 4 26 7 17 18 -14 17 -31 75 -22 75 4 0 17 -23 29 -50z m-548 -203 c19 -19 12 -27 -24 -27 -19 0 -35 5 -35 10 0 6 9 10 20 10 18 0 18 2 5 39 -7 22 -11 42 -7 45 3 3 11 -10 18 -30 7 -20 17 -41 23 -47z m51 66 c0 -10 9 -33 20 -51 11 -18 20 -35 20 -37 0 -3 -16 -5 -35 -5 -19 0 -35 5 -35 10 0 6 9 10 19 10 19 0 19 2 5 35 -17 40 -18 55 -4 55 6 0 10 -8 10 -17z m110 -2 c13 -26 3 -51 -21 -51 -10 0 -19 -4 -19 -10 0 -5 9 -10 20 -10 11 0 20 -4 20 -10 0 -16 -47 -11 -54 6 -12 30 -6 44 16 41 15 -1 23 4 26 17 3 16 0 18 -22 12 -26 -6 -37 8 -13 17 24 10 36 7 47 -12z m79 5 c17 -20 0 -90 -23 -94 -20 -4 -44 14 -33 24 4 4 13 1 21 -5 11 -9 16 -9 21 0 4 6 1 16 -6 21 -11 7 -11 11 -1 15 6 2 12 12 12 20 0 11 -7 14 -27 8 -23 -5 -25 -4 -14 9 16 20 35 20 50 2z m82 -10 c14 -29 4 -75 -16 -83 -23 -8 -45 16 -45 51 0 55 41 76 61 32z m78 10 c17 -20 10 -77 -11 -89 -24 -16 -48 8 -48 47 0 49 34 73 59 42z m82 -10 c14 -29 4 -75 -16 -83 -23 -8 -45 16 -45 51 0 55 41 76 61 32z m69 -31 c0 -53 -1 -55 -20 -43 -11 7 -20 16 -20 21 0 4 5 5 10 2 6 -4 10 8 10 28 0 30 6 47 17 47 2 0 3 -25 3 -55z m-553 -137 c15 -19 4 -86 -15 -93 -21 -8 -36 10 -39 48 -3 44 3 57 25 57 11 0 24 -6 29 -12z m84 -12 c22 -48 -13 -103 -47 -75 -14 12 -19 80 -7 92 14 15 44 6 54 -17z m80 8 c17 -21 -1 -49 -30 -48 -12 0 -20 -4 -18 -10 2 -6 14 -11 26 -10 24 1 28 -14 6 -22 -25 -10 -45 16 -45 56 0 20 3 40 7 43 12 12 40 7 54 -9z m79 1 c16 -19 3 -55 -21 -55 -10 0 -19 -4 -19 -10 0 -5 9 -10 20 -10 11 0 20 -4 20 -10 0 -18 -39 -11 -50 9 -16 32 -12 42 15 35 21 -5 25 -3 25 14 0 26 -19 39 -31 21 -4 -7 -11 -10 -14 -7 -11 11 5 28 24 28 10 0 24 -7 31 -15z m81 -9 c22 -48 -13 -103 -48 -75 -21 18 -12 53 15 57 23 4 29 16 12 27 -6 4 -17 1 -25 -5 -8 -7 -15 -8 -15 -3 0 31 47 30 61 -1z m77 12 c16 -16 15 -60 -2 -84 -20 -27 -50 -7 -54 35 -5 50 27 78 56 49z m83 -12 c22 -48 -13 -103 -48 -75 -21 18 -12 53 15 57 24 4 29 17 11 28 -6 3 -15 0 -20 -7 -4 -7 -11 -10 -14 -7 -11 11 5 28 26 28 11 0 24 -11 30 -24z m79 9 c16 -19 6 -45 -20 -52 -11 -3 -20 -10 -20 -15 0 -6 11 -7 28 -3 26 6 26 6 9 -12 -24 -24 -51 -7 -55 36 -5 51 30 79 58 46z"/>
<path d="M1287 1894 c-11 -11 -8 -44 3 -44 15 0 24 30 13 41 -5 5 -12 6 -16 3z"/>
<path d="M1360 1885 c-16 -19 -9 -59 13 -63 13 -3 17 4 17 32 0 40 -12 53 -30 31z"/>
<path d="M1440 1884 c-9 -10 -10 -18 -2 -26 12 -12 32 -2 32 17 0 21 -16 26 -30 9z"/>
<path d="M1524 1886 c-4 -10 -2 -22 4 -28 8 -8 13 -7 18 6 4 10 2 22 -4 28 -8 8 -13 7 -18 -6z"/>
<path d="M1766 1893 c-12 -12 -6 -33 9 -33 8 0 15 6 15 14 0 17 -14 28 -24 19z"/>
<path d="M1760 1830 c0 -5 7 -10 15 -10 8 0 15 5 15 10 0 6 -7 10 -15 10 -8 0 -15 -4 -15 -10z"/>
<path d="M1280 1700 c0 -11 7 -20 15 -20 8 0 15 9 15 20 0 11 -7 20 -15 20 -8 0 -15 -9 -15 -20z"/>
<path d="M1520 1681 c0 -6 5 -13 10 -16 6 -3 10 1 10 9 0 9 -4 16 -10 16 -5 0 -10 -4 -10 -9z"/>
<path d="M1600 1681 c0 -6 5 -13 10 -16 6 -3 10 1 10 9 0 9 -4 16 -10 16 -5 0 -10 -4 -10 -9z"/>
<path d="M1676 1696 c-7 -30 2 -56 20 -56 10 0 14 12 14 40 0 45 -24 56 -34 16z"/>
<path d="M1760 1680 c0 -29 4 -40 15 -40 11 0 15 11 15 40 0 29 -4 40 -15 40 -11 0 -15 -11 -15 -40z"/>
<path d="M1594 1515 c-7 -26 11 -59 27 -49 5 3 9 21 9 40 0 41 -26 48 -36 9z"/>
<path d="M1675 1520 c-7 -23 12 -63 26 -55 15 10 11 75 -5 75 -8 0 -17 -9 -21 -20z"/>
<path d="M1758 1522 c-7 -24 9 -65 22 -57 16 10 12 75 -4 75 -7 0 -16 -8 -18 -18z"/>
<path d="M1276 1355 c-3 -9 1 -18 10 -22 19 -7 28 2 21 22 -8 19 -23 19 -31 0z"/>
<path d="M1280 1300 c0 -5 7 -10 15 -10 8 0 15 5 15 10 0 6 -7 10 -15 10 -8 0 -15 -4 -15 -10z"/>
<path d="M1354 1346 c-8 -33 1 -56 21 -56 13 0 15 9 13 37 -4 43 -25 55 -34 19z"/>
<path d="M1437 1357 c-3 -8 -1 -20 4 -28 11 -19 34 3 26 25 -8 20 -23 21 -30 3z"/>
<path d="M1595 1320 c-8 -14 3 -30 21 -30 8 0 14 9 14 20 0 21 -24 28 -35 10z"/>
<path d="M1679 1349 c-8 -16 -8 -28 0 -46 15 -32 31 -20 31 22 0 41 -15 53 -31 24z"/>
<path d="M1760 1310 c0 -11 7 -20 15 -20 8 0 15 9 15 20 0 11 -7 20 -15 20 -8 0 -15 -9 -15 -20z"/>
<path d="M1844 1356 c-4 -10 -2 -22 4 -28 8 -8 13 -7 18 6 4 10 2 22 -4 28 -8 8 -13 7 -18 -6z"/>
</g>


</svg>